JonovaCondensed-Bold.ufo
<glyph name="sign:quotedbl" format="2">
  <advance width="552"/>
  <unicode hex="0022"/>
  <guideline x="0" y="854" angle="0"/>
  <guideline x="0" y="953" angle="0"/>
  <guideline x="184" y="0" angle="90"/>
  <guideline x="125" y="0" angle="90"/>
  <outline>
    <contour>
      <point x="79" y="901" type="line" name="av01"/>
      <point x="49" y="1434" type="line"/>
      <point x="71" y="1464" type="line" name="at01"/>
      <point x="193" y="1464" type="line"/>
      <point x="215" y="1434" type="line"/>
      <point x="185" y="901" type="line"/>
    </contour>
    <contour>
      <point x="367" y="901" type="line" name="av02"/>
      <point x="337" y="1434" type="line"/>
      <point x="359" y="1464" type="line" name="at02"/>
      <point x="481" y="1464" type="line"/>
      <point x="503" y="1434" type="line"/>
      <point x="473" y="901" type="line"/>
    </contour>
  </outline>
</glyph>
<glyph name="sign:numbersign" format="2">
  <advance width="840"/>
  <unicode hex="0023"/>
  <guideline x="0" y="431" angle="0"/>
  <guideline x="0" y="1136" angle="0"/>
  <guideline x="228" y="0" angle="80"/>
  <guideline x="116" y="0" angle="80"/>
  <guideline x="418" y="0" angle="80"/>
  <guideline x="533" y="0" angle="80"/>
  <guideline x="-29" y="0" angle="80"/>
  <guideline x="679" y="0" angle="80"/>
  <outline>
    <contour>
      <point x="103" y="1004" type="line" name="at03"/>
      <point x="249" y="1004" type="line"/>
      <point x="310" y="1464" type="line" name="at01"/>
      <point x="418" y="1434" type="line"/>
      <point x="361" y="1004" type="line" name="at04"/>
      <point x="551" y="1004" type="line"/>
      <point x="611" y="1464" type="line" name="at02"/>
      <point x="723" y="1434" type="line"/>
      <point x="667" y="1004" type="line" name="at05"/>
      <point x="812" y="1004" type="line"/>
      <point x="792" y="852" type="line" name="sv01"/>
      <point x="646" y="852" type="line"/>
      <point x="611" y="583" type="line"/>
      <point x="756" y="583" type="line" name="dv02"/>
      <point x="737" y="431" type="line" name="dv01"/>
      <point x="590" y="431" type="line"/>
      <point x="530" y="-30" type="line" name="ab01"/>
      <point x="418" y="0" type="line"/>
      <point x="476" y="431" type="line" name="sv02"/>
      <point x="285" y="431" type="line"/>
      <point x="224" y="-30" type="line" name="ab02"/>
      <point x="116" y="0" type="line"/>
      <point x="173" y="431" type="line" name="sv03"/>
      <point x="28" y="431" type="line"/>
      <point x="49" y="583" type="line" name="sv04"/>
      <point x="192" y="583" type="line"/>
      <point x="229" y="852" type="line" name="sv05"/>
      <point x="83" y="852" type="line" name="sv06"/>
    </contour>
    <contour>
      <point x="305" y="583" type="line" name="sv07"/>
      <point x="495" y="583" type="line"/>
      <point x="531" y="852" type="line" name="sv08"/>
      <point x="341" y="852" type="line" name="sv09"/>
    </contour>
  </outline>
</glyph>
<glyph name="curr:dollar" format="2">
  <advance width="840"/>
  <unicode hex="0024"/>
  <guideline x="0" y="1336" angle="0"/>
  <guideline x="0" y="1176" angle="333"/>
  <guideline x="0" y="98" angle="0"/>
  <guideline x="0" y="-248" angle="10"/>
  <guideline x="719" y="0" angle="90"/>
  <guideline x="16" y="0" angle="90"/>
  <outline>
    <contour>
      <point x="716" y="1312" type="qcurve" name="hr00"/>
      <point x="629" y="1200" type="line" name="ih01"/>
      <point x="618" y="1223"/>
      <point x="587" y="1269"/>
      <point x="547" y="1308"/>
      <point x="494" y="1338"/>
      <point x="461" y="1346" type="qcurve" name="sh01"/>
      <point x="461" y="861" type="line"/>
      <point x="522" y="818"/>
      <point x="634" y="723"/>
      <point x="719" y="609"/>
      <point x="769" y="469"/>
      <point x="769" y="382" type="qcurve" name="dh06"/>
      <point x="769" y="305"/>
      <point x="725" y="166"/>
      <point x="645" y="56"/>
      <point x="532" y="-18"/>
      <point x="461" y="-30" type="qcurve"/>
      <point x="461" y="-142" type="line" name="dh04"/>
      <point x="355" y="-165" type="line" name="dh03"/>
      <point x="355" y="-30" type="line"/>
      <point x="284" y="-24"/>
      <point x="146" y="43"/>
      <point x="71" y="121" type="qcurve"/>
      <point x="156" y="233" type="line" name="ih02"/>
      <point x="205" y="162"/>
      <point x="299" y="91"/>
      <point x="355" y="83" type="qcurve" name="sh02"/>
      <point x="355" y="662" type="line"/>
      <point x="292" y="702"/>
      <point x="188" y="790"/>
      <point x="113" y="895"/>
      <point x="71" y="1022"/>
      <point x="71" y="1101" type="qcurve" name="dh01"/>
      <point x="71" y="1171"/>
      <point x="114" y="1295"/>
      <point x="189" y="1392"/>
      <point x="293" y="1455"/>
      <point x="355" y="1464" type="qcurve" name="sh03"/>
      <point x="355" y="1576" type="line"/>
      <point x="461" y="1600" type="line" name="sh04"/>
      <point x="461" y="1464" type="line"/>
      <point x="509" y="1459"/>
      <point x="580" y="1432"/>
      <point x="639" y="1392"/>
      <point x="689" y="1341"/>
    </contour>
    <contour>
      <point x="587" y="306" type="qcurve" name="dh05"/>
      <point x="587" y="393"/>
      <point x="530" y="533"/>
      <point x="461" y="588" type="qcurve" name="sh05"/>
      <point x="461" y="82" type="line" name="ih03"/>
      <point x="490" y="93"/>
      <point x="536" y="136"/>
      <point x="569" y="195"/>
      <point x="587" y="267"/>
    </contour>
    <contour>
      <point x="253" y="1149" type="qcurve" name="dh02"/>
      <point x="253" y="1119"/>
      <point x="263" y="1059"/>
      <point x="287" y="1004"/>
      <point x="326" y="956"/>
      <point x="355" y="937" type="qcurve" name="sh06"/>
      <point x="355" y="1346" type="line" name="ih04"/>
      <point x="312" y="1329"/>
      <point x="253" y="1230"/>
    </contour>
  </outline>
</glyph>
<glyph name="sign:quotesingle" format="2">
  <advance width="432"/>
  <unicode hex="0027"/>
  <guideline x="1343" y="0" angle="135"/>
  <outline>
    <contour>
      <point x="163" y="901" type="line" name="av01"/>
      <point x="133" y="1434" type="line"/>
      <point x="155" y="1464" type="line" name="at01"/>
      <point x="277" y="1464" type="line"/>
      <point x="299" y="1434" type="line"/>
      <point x="269" y="901" type="line"/>
    </contour>
  </outline>
</glyph>
<glyph name="parenleft" format="2">
  <advance width="552"/>
  <unicode hex="0028"/>
  <guideline x="0" y="1307" angle="0"/>
  <guideline x="502" y="0" angle="90"/>
  <guideline x="516" y="0" angle="80"/>
  <guideline x="673" y="0" angle="100"/>
  <outline>
    <contour>
      <point x="478" y="1464" type="line" name="hr00"/>
      <point x="413" y="1390"/>
      <point x="324" y="1187"/>
      <point x="269" y="957"/>
      <point x="245" y="711"/>
      <point x="245" y="593" type="qcurve" name="dh02"/>
      <point x="245" y="460"/>
      <point x="269" y="211"/>
      <point x="324" y="-13"/>
      <point x="413" y="-204"/>
      <point x="478" y="-278" type="qcurve"/>
      <point x="463" y="-384" type="line" name="av01"/>
      <point x="280" y="-226"/>
      <point x="86" y="258"/>
      <point x="86" y="593" type="qcurve" name="dh01"/>
      <point x="86" y="927"/>
      <point x="280" y="1412"/>
      <point x="463" y="1570" type="qcurve" name="av02"/>
    </contour>
  </outline>
</glyph>
<glyph name="sign:parenright" format="2">
  <advance width="552"/>
  <unicode hex="0029"/>
  <outline>
    <contour>
      <point x="89" y="1570" type="line" name="av01"/>
      <point x="272" y="1412"/>
      <point x="466" y="927"/>
      <point x="466" y="593" type="qcurve" name="dh02"/>
      <point x="466" y="258"/>
      <point x="272" y="-226"/>
      <point x="89" y="-384" type="qcurve" name="av02"/>
      <point x="74" y="-278" type="line"/>
      <point x="140" y="-204"/>
      <point x="228" y="-13"/>
      <point x="283" y="211"/>
      <point x="307" y="460"/>
      <point x="307" y="593" type="qcurve" name="dh01"/>
      <point x="307" y="711"/>
      <point x="283" y="957"/>
      <point x="228" y="1187"/>
      <point x="140" y="1390"/>
      <point x="74" y="1464" type="qcurve"/>
    </contour>
  </outline>
</glyph>
<glyph name="sign:asterisk" format="2">
  <advance width="768"/>
  <unicode hex="002A"/>
  <guideline x="0" y="925" angle="30"/>
  <guideline x="0" y="1517" angle="330"/>
  <guideline x="0" y="1199" angle="0"/>
  <guideline x="384" y="0" angle="90"/>
  <outline>
    <contour>
      <point x="96" y="1321" type="line" name="hr00"/>
      <point x="173" y="1500" type="line" name="iv01"/>
      <point x="348" y="1295" type="line"/>
      <point x="354" y="1298" type="line"/>
      <point x="307" y="1606" type="line" name="av01"/>
      <point x="461" y="1606" type="line"/>
      <point x="415" y="1299" type="line"/>
      <point x="420" y="1295" type="line"/>
      <point x="597" y="1501" type="line" name="iv02"/>
      <point x="674" y="1326" type="line"/>
      <point x="451" y="1225" type="line"/>
      <point x="451" y="1216" type="line"/>
      <point x="672" y="1118" type="line"/>
      <point x="596" y="941" type="line" name="iv03"/>
      <point x="421" y="1146" type="line"/>
      <point x="415" y="1143" type="line"/>
      <point x="462" y="835" type="line" name="av02"/>
      <point x="308" y="835" type="line"/>
      <point x="355" y="1143" type="line"/>
      <point x="350" y="1147" type="line"/>
      <point x="173" y="938" type="line" name="iv04"/>
      <point x="96" y="1113" type="line"/>
      <point x="319" y="1217" type="line"/>
      <point x="319" y="1225" type="line"/>
    </contour>
    <contour>
      <point x="346" y="1221" type="qcurve"/>
      <point x="346" y="1200"/>
      <point x="368" y="1170"/>
      <point x="384" y="1170" type="qcurve"/>
      <point x="401" y="1170"/>
      <point x="423" y="1200"/>
      <point x="423" y="1221" type="qcurve"/>
      <point x="423" y="1243"/>
      <point x="401" y="1273"/>
      <point x="384" y="1273" type="qcurve"/>
      <point x="368" y="1273"/>
      <point x="346" y="1243"/>
    </contour>
  </outline>
</glyph>
<glyph name="sign:comma" format="2">
  <advance width="432"/>
  <unicode hex="002C"/>
  <guideline x="0" y="-266" angle="0"/>
  <guideline x="-594" y="0" angle="125"/>
  <outline>
    <contour>
      <point x="118" y="154" type="line" name="hr00"/>
      <point x="246" y="325" type="line" name="av01"/>
      <point x="266" y="325" type="line"/>
      <point x="277" y="307"/>
      <point x="302" y="250"/>
      <point x="323" y="171"/>
      <point x="337" y="72"/>
      <point x="337" y="12" type="qcurve" name="dh02"/>
      <point x="337" y="-64"/>
      <point x="298" y="-202"/>
      <point x="235" y="-322"/>
      <point x="157" y="-423"/>
      <point x="118" y="-460" type="qcurve" name="ab01"/>
      <point x="49" y="-367" type="line"/>
      <point x="72" y="-338"/>
      <point x="118" y="-276"/>
      <point x="155" y="-204"/>
      <point x="178" y="-120"/>
      <point x="178" y="-69" type="qcurve" name="dh01"/>
      <point x="178" y="-2"/>
      <point x="141" y="93"/>
      <point x="118" y="128" type="qcurve"/>
    </contour>
  </outline>
</glyph>
<glyph name="sign:hyphenminus" format="2">
  <advance width="552"/>
  <unicode hex="002D"/>
  <outline>
    <contour>
      <point x="47" y="593" type="line" name="dh01"/>
      <point x="506" y="593" type="line" name="dh02"/>
      <point x="506" y="381" type="line" name="dv01"/>
      <point x="47" y="381" type="line"/>
    </contour>
  </outline>
</glyph>
<glyph name="sign:slash" format="2">
  <advance width="432"/>
  <unicode hex="002F"/>
  <guideline x="-20" y="0" angle="74"/>
  <guideline x="140" y="0" angle="74"/>
  <outline>
    <contour>
      <point x="477" y="1556" type="line" name="hr00"/>
      <point x="109" y="-152" type="line" name="av01"/>
      <point x="-45" y="-122" type="line"/>
      <point x="323" y="1586" type="line" name="av02"/>
    </contour>
  </outline>
</glyph>
<glyph name="zero" format="2">
  <advance width="840"/>
  <unicode hex="0030"/>
  <guideline x="0" y="874" angle="0"/>
  <guideline x="0" y="579" angle="0"/>
  <guideline x="386" y="0" angle="90"/>
  <outline>
    <contour>
      <point x="420" y="1342" type="qcurve" name="sv01"/>
      <point x="377" y="1342"/>
      <point x="322" y="1272"/>
      <point x="289" y="1121"/>
      <point x="275" y="884"/>
      <point x="275" y="718" type="qcurve" name="sh02"/>
      <point x="275" y="551"/>
      <point x="289" y="314"/>
      <point x="322" y="162"/>
      <point x="377" y="92"/>
      <point x="420" y="92" type="qcurve" name="sv02"/>
      <point x="463" y="92"/>
      <point x="518" y="162"/>
      <point x="551" y="314"/>
      <point x="565" y="551"/>
      <point x="565" y="718" type="qcurve" name="ah01"/>
      <point x="565" y="884"/>
      <point x="551" y="1121"/>
      <point x="518" y="1272"/>
      <point x="463" y="1342"/>
    </contour>
    <contour>
      <point x="420" y="1464" type="qcurve" name="at01"/>
      <point x="597" y="1464"/>
      <point x="784" y="1092"/>
      <point x="784" y="718" type="qcurve" name="sh03"/>
      <point x="784" y="343"/>
      <point x="597" y="-30"/>
      <point x="420" y="-30" type="qcurve" name="ab01"/>
      <point x="243" y="-30"/>
      <point x="56" y="343"/>
      <point x="56" y="718" type="qcurve" name="sh01"/>
      <point x="56" y="1092"/>
      <point x="243" y="1464"/>
    </contour>
  </outline>
</glyph>
<glyph name="one" format="2">
  <advance width="840"/>
  <unicode hex="0031"/>
  <guideline x="0" y="1246" angle="18"/>
  <guideline x="283" y="0" angle="100"/>
  <outline>
    <contour>
      <point x="554" y="1464" type="line" name="at01"/>
      <point x="554" y="0" type="line" name="dh02"/>
      <point x="342" y="0" type="line" name="dh01"/>
      <point x="342" y="1237" type="line" name="iv01"/>
      <point x="131" y="1153" type="line"/>
      <point x="115" y="1265" type="line"/>
      <point x="509" y="1464" type="line"/>
    </contour>
  </outline>
</glyph>
<glyph name="four" format="2">
  <advance width="840"/>
  <unicode hex="0034"/>
  <guideline x="0" y="1542" angle="350"/>
  <guideline x="0" y="458" angle="3"/>
  <guideline x="779" y="0" angle="90"/>
  <guideline x="710" y="0" angle="80"/>
  <outline>
    <contour>
      <point x="455" y="1464" type="line" name="dh01"/>
      <point x="667" y="1434" type="line" name="dh02"/>
      <point x="238" y="472" type="line" name="iv01"/>
      <point x="455" y="488" type="line" name="sh01"/>
      <point x="455" y="686" type="line"/>
      <point x="622" y="740" type="line"/>
      <point x="667" y="740" type="line" name="sh02"/>
      <point x="667" y="504" type="line"/>
      <point x="779" y="512" type="line"/>
      <point x="757" y="350" type="line"/>
      <point x="667" y="350" type="line" name="sh03"/>
      <point x="667" y="0" type="line" name="ab01"/>
      <point x="455" y="0" type="line" name="sh04"/>
      <point x="455" y="350" type="line"/>
      <point x="54" y="350" type="line"/>
      <point x="54" y="410" type="line"/>
    </contour>
  </outline>
</glyph>
<glyph name="digit:five" format="2">
  <advance width="840"/>
  <unicode hex="0035"/>
  <guideline x="0" y="1141" angle="315"/>
  <guideline x="0" y="78" angle="45"/>
  <guideline x="668" y="0" angle="90"/>
  <guideline x="541" y="0" angle="80"/>
  <outline>
    <contour>
      <point x="137" y="760" type="line" name="dh01"/>
      <point x="137" y="1434" type="line" name="at01"/>
      <point x="693" y="1434" type="line"/>
      <point x="667" y="1232" type="line"/>
      <point x="273" y="1272" type="line"/>
      <point x="273" y="893" type="line" name="dh02"/>
      <point x="282" y="899"/>
      <point x="311" y="910"/>
      <point x="345" y="919"/>
      <point x="379" y="925"/>
      <point x="392" y="925" type="qcurve" name="dv02"/>
      <point x="472" y="925"/>
      <point x="614" y="860"/>
      <point x="720" y="740"/>
      <point x="782" y="569"/>
      <point x="782" y="463" type="qcurve" name="dh04"/>
      <point x="782" y="364"/>
      <point x="727" y="185"/>
      <point x="623" y="50"/>
      <point x="473" y="-30"/>
      <point x="379" y="-30" type="qcurve" name="ab01"/>
      <point x="322" y="-30"/>
      <point x="225" y="8"/>
      <point x="146" y="67"/>
      <point x="86" y="138"/>
      <point x="65" y="170" type="qcurve"/>
      <point x="150" y="282" type="line" name="ih01"/>
      <point x="167" y="247"/>
      <point x="211" y="179"/>
      <point x="265" y="125"/>
      <point x="331" y="92"/>
      <point x="371" y="92" type="qcurve" name="sv01"/>
      <point x="413" y="92"/>
      <point x="483" y="142"/>
      <point x="535" y="236"/>
      <point x="563" y="374"/>
      <point x="563" y="463" type="qcurve" name="dh03"/>
      <point x="563" y="557"/>
      <point x="528" y="687"/>
      <point x="476" y="768"/>
      <point x="416" y="803"/>
      <point x="392" y="803" type="qcurve" name="dv01"/>
      <point x="368" y="803"/>
      <point x="329" y="793"/>
      <point x="298" y="780"/>
      <point x="277" y="765"/>
      <point x="272" y="760" type="qcurve"/>
    </contour>
  </outline>
</glyph>
<glyph name="digit:six" format="2">
  <advance width="840"/>
  <unicode hex="0036"/>
  <guideline x="0" y="2040" angle="0"/>
  <guideline x="0" y="1263" angle="3"/>
  <guideline x="1766" y="0" angle="90"/>
  <guideline x="430" y="0" angle="90"/>
  <guideline x="514" y="0" angle="80"/>
  <outline>
    <contour>
      <point x="423" y="780" type="qcurve" name="dv01"/>
      <point x="390" y="780"/>
      <point x="336" y="727"/>
      <point x="297" y="636"/>
      <point x="275" y="515"/>
      <point x="275" y="448" type="qcurve" name="sh02"/>
      <point x="275" y="364"/>
      <point x="298" y="232"/>
      <point x="338" y="140"/>
      <point x="392" y="92"/>
      <point x="423" y="92" type="qcurve" name="sv01"/>
      <point x="453" y="92"/>
      <point x="505" y="138"/>
      <point x="543" y="226"/>
      <point x="565" y="355"/>
      <point x="565" y="439" type="qcurve" name="ah01"/>
      <point x="565" y="520"/>
      <point x="543" y="646"/>
      <point x="505" y="734"/>
      <point x="453" y="780"/>
    </contour>
    <contour>
      <point x="691" y="1342" type="line" name="sv02"/>
      <point x="611" y="1342"/>
      <point x="464" y="1264"/>
      <point x="349" y="1123"/>
      <point x="275" y="929"/>
      <point x="267" y="814" type="qcurve" name="sh03"/>
      <point x="305" y="856"/>
      <point x="393" y="902"/>
      <point x="438" y="902" type="qcurve" name="dv02"/>
      <point x="515" y="902"/>
      <point x="643" y="832"/>
      <point x="734" y="707"/>
      <point x="784" y="538"/>
      <point x="784" y="439" type="qcurve" name="sh04"/>
      <point x="784" y="332"/>
      <point x="727" y="159"/>
      <point x="631" y="37"/>
      <point x="506" y="-30"/>
      <point x="438" y="-30" type="qcurve" name="ab01"/>
      <point x="365" y="-30"/>
      <point x="227" y="56"/>
      <point x="121" y="227"/>
      <point x="56" y="480"/>
      <point x="56" y="647" type="qcurve" name="sh01"/>
      <point x="56" y="743"/>
      <point x="89" y="939"/>
      <point x="158" y="1120"/>
      <point x="263" y="1279"/>
      <point x="407" y="1396"/>
      <point x="593" y="1464"/>
      <point x="707" y="1464" type="qcurve" name="at01"/>
    </contour>
  </outline>
</glyph>
<glyph name="eight" format="2">
  <advance width="840"/>
  <unicode hex="0038"/>
  <guideline x="0" y="1239" angle="325"/>
  <guideline x="0" y="1125" angle="325"/>
  <guideline x="0" y="487" angle="35"/>
  <guideline x="0" y="370" angle="35"/>
  <guideline x="0" y="1112" angle="0"/>
  <outline>
    <contour>
      <point x="304" y="1118" type="qcurve" name="sh01"/>
      <point x="304" y="1065"/>
      <point x="320" y="975"/>
      <point x="349" y="909"/>
      <point x="392" y="872" name="hr00"/>
      <point x="420" y="872" type="qcurve" name="dv02"/>
      <point x="448" y="872"/>
      <point x="491" y="909"/>
      <point x="520" y="975" name="hr01"/>
      <point x="535" y="1065"/>
      <point x="535" y="1118" type="qcurve" name="dh03"/>
      <point x="535" y="1224"/>
      <point x="476" y="1342"/>
      <point x="420" y="1342" type="qcurve" name="sv01"/>
      <point x="364" y="1342" name="hr02"/>
      <point x="304" y="1224"/>
    </contour>
    <contour>
      <point x="275" y="424" type="qcurve" name="dh02"/>
      <point x="275" y="362"/>
      <point x="290" y="243"/>
      <point x="323" y="149"/>
      <point x="379" y="92"/>
      <point x="420" y="92" type="qcurve" name="sv02"/>
      <point x="461" y="92"/>
      <point x="517" y="149"/>
      <point x="551" y="243"/>
      <point x="565" y="362"/>
      <point x="565" y="424" type="qcurve" name="ih02"/>
      <point x="565" y="485"/>
      <point x="551" y="602"/>
      <point x="517" y="694"/>
      <point x="461" y="750"/>
      <point x="420" y="750" type="qcurve" name="dv01"/>
      <point x="379" y="750"/>
      <point x="323" y="694"/>
      <point x="290" y="602"/>
      <point x="275" y="485"/>
    </contour>
    <contour>
      <point x="56" y="421" type="qcurve" name="dh01"/>
      <point x="56" y="479"/>
      <point x="71" y="592"/>
      <point x="110" y="696"/>
      <point x="176" y="789"/>
      <point x="227" y="828" type="qcurve"/>
      <point x="167" y="888"/>
      <point x="115" y="1043"/>
      <point x="115" y="1125" type="qcurve" name="ih01"/>
      <point x="115" y="1189"/>
      <point x="160" y="1312"/>
      <point x="240" y="1406"/>
      <point x="353" y="1464"/>
      <point x="420" y="1464" type="qcurve" name="at01"/>
      <point x="488" y="1464"/>
      <point x="599" y="1406"/>
      <point x="680" y="1312"/>
      <point x="724" y="1189"/>
      <point x="724" y="1125" type="qcurve" name="dh04"/>
      <point x="724" y="1043"/>
      <point x="671" y="888"/>
      <point x="611" y="828" type="qcurve"/>
      <point x="663" y="789"/>
      <point x="731" y="698"/>
      <point x="769" y="596"/>
      <point x="784" y="483"/>
      <point x="784" y="422" type="qcurve" name="sh02"/>
      <point x="784" y="338"/>
      <point x="738" y="176"/>
      <point x="647" y="48"/>
      <point x="511" y="-30"/>
      <point x="420" y="-30" type="qcurve" name="ab01"/>
      <point x="330" y="-30"/>
      <point x="194" y="48"/>
      <point x="103" y="176"/>
      <point x="56" y="338"/>
    </contour>
  </outline>
</glyph>
<glyph name="digit:nine" format="2">
  <advance width="840"/>
  <unicode hex="0039"/>
  <guideline x="137" y="0" angle="80"/>
  <outline>
    <contour>
      <point x="417" y="684" type="qcurve" name="dv02"/>
      <point x="455" y="684"/>
      <point x="511" y="735"/>
      <point x="548" y="820"/>
      <point x="565" y="931"/>
      <point x="565" y="991" type="qcurve" name="ah01"/>
      <point x="565" y="1071"/>
      <point x="544" y="1201"/>
      <point x="506" y="1292"/>
      <point x="451" y="1342"/>
      <point x="417" y="1342" type="qcurve" name="sv01"/>
      <point x="384" y="1342"/>
      <point x="332" y="1295"/>
      <point x="295" y="1209"/>
      <point x="275" y="1086"/>
      <point x="275" y="1010" type="qcurve" name="sh02"/>
      <point x="275" y="937"/>
      <point x="295" y="817"/>
      <point x="332" y="731"/>
      <point x="384" y="684"/>
    </contour>
    <contour>
      <point x="149" y="92" type="line" name="sv02"/>
      <point x="235" y="92"/>
      <point x="383" y="177"/>
      <point x="497" y="322"/>
      <point x="568" y="514"/>
      <point x="575" y="621" type="qcurve" name="sh03"/>
      <point x="539" y="591"/>
      <point x="447" y="562"/>
      <point x="402" y="562" type="qcurve" name="dv01"/>
      <point x="322" y="562"/>
      <point x="194" y="628"/>
      <point x="104" y="746"/>
      <point x="56" y="911"/>
      <point x="56" y="1010" type="qcurve" name="sh01"/>
      <point x="56" y="1113"/>
      <point x="111" y="1280"/>
      <point x="206" y="1399"/>
      <point x="331" y="1464"/>
      <point x="402" y="1464" type="qcurve" name="at01"/>
      <point x="475" y="1464"/>
      <point x="613" y="1378"/>
      <point x="719" y="1209"/>
      <point x="784" y="960"/>
      <point x="784" y="797" type="qcurve" name="sh04"/>
      <point x="784" y="701"/>
      <point x="753" y="504"/>
      <point x="686" y="320"/>
      <point x="584" y="159"/>
      <point x="439" y="39"/>
      <point x="251" y="-30"/>
      <point x="133" y="-30" type="qcurve" name="ab01"/>
    </contour>
  </outline>
</glyph>
<glyph name="semicolon" format="2">
  <advance width="432"/>
  <unicode hex="003B"/>
  <outline>
    <contour>
      <point x="373" y="858" type="qcurve" name="dh02"/>
      <point x="373" y="828" name="hr00"/>
      <point x="356" y="774"/>
      <point x="326" y="735" name="hr01"/>
      <point x="286" y="712"/>
      <point x="263" y="712" type="qcurve" name="sv01"/>
      <point x="241" y="712"/>
      <point x="200" y="735"/>
      <point x="171" y="774"/>
      <point x="154" y="828"/>
      <point x="154" y="858" type="qcurve" name="dh01"/>
      <point x="154" y="888"/>
      <point x="171" y="942"/>
      <point x="200" y="981"/>
      <point x="241" y="1004"/>
      <point x="263" y="1004" type="qcurve" name="at01"/>
      <point x="286" y="1004"/>
      <point x="326" y="981"/>
      <point x="356" y="942"/>
      <point x="373" y="888"/>
    </contour>
    <contour>
      <point x="154" y="154" type="line" name="sh01"/>
      <point x="282" y="325" type="line"/>
      <point x="302" y="325" type="line"/>
      <point x="313" y="307"/>
      <point x="338" y="250"/>
      <point x="359" y="171"/>
      <point x="373" y="72"/>
      <point x="373" y="12" type="qcurve" name="sh02"/>
      <point x="373" y="-64"/>
      <point x="334" y="-202"/>
      <point x="271" y="-322"/>
      <point x="193" y="-423"/>
      <point x="154" y="-460" type="qcurve" name="ab01"/>
      <point x="85" y="-367" type="line"/>
      <point x="108" y="-338"/>
      <point x="154" y="-276"/>
      <point x="191" y="-204"/>
      <point x="214" y="-120"/>
      <point x="214" y="-69" type="qcurve" name="sh03"/>
      <point x="214" y="-2"/>
      <point x="177" y="93"/>
      <point x="154" y="128" type="qcurve"/>
    </contour>
  </outline>
</glyph>
<glyph name="equal" format="2">
  <advance width="864"/>
  <unicode hex="003D"/>
  <guideline x="451" y="0" angle="90"/>
  <outline>
    <contour>
      <point x="56" y="805" type="line" name="hr00"/>
      <point x="808" y="805" type="line" name="dv04"/>
      <point x="808" y="593" type="line" name="dv03"/>
      <point x="56" y="593" type="line"/>
    </contour>
    <contour>
      <point x="56" y="381" type="line"/>
      <point x="808" y="381" type="line" name="dv02"/>
      <point x="808" y="169" type="line" name="dv01"/>
      <point x="56" y="169" type="line"/>
    </contour>
  </outline>
</glyph>
<glyph name="math:greater" format="2">
  <advance width="864"/>
  <unicode hex="003E"/>
  <guideline x="0" y="1098" angle="330"/>
  <guideline x="0" y="-103" angle="30"/>
  <guideline x="0" y="1350" angle="0"/>
  <guideline x="0" y="714" angle="0"/>
  <outline>
    <contour>
      <point x="179" y="1004" type="line" name="at01"/>
      <point x="782" y="538" type="line"/>
      <point x="782" y="436" type="line"/>
      <point x="178" y="-30" type="line" name="ab01"/>
      <point x="152" y="170" type="line"/>
      <point x="563" y="487" type="line" name="iv01"/>
      <point x="152" y="804" type="line"/>
    </contour>
  </outline>
</glyph>
<glyph name="sign:question" format="2">
  <advance width="768"/>
  <unicode hex="003F"/>
  <guideline x="0" y="1487" angle="315"/>
  <guideline x="0" y="96" angle="0"/>
  <guideline x="400" y="0" angle="90"/>
  <guideline x="400" y="0" angle="80"/>
  <outline>
    <contour>
      <point x="492" y="96" type="qcurve" name="sh01"/>
      <point x="492" y="70"/>
      <point x="477" y="24"/>
      <point x="452" y="-10"/>
      <point x="417" y="-30"/>
      <point x="398" y="-30" type="qcurve" name="ab01"/>
      <point x="378" y="-30"/>
      <point x="344" y="-10"/>
      <point x="318" y="24"/>
      <point x="303" y="70"/>
      <point x="303" y="96" type="qcurve" name="ih01"/>
      <point x="303" y="122"/>
      <point x="318" y="168"/>
      <point x="344" y="202"/>
      <point x="378" y="222" name="hr00"/>
      <point x="398" y="222" type="qcurve" name="sv01"/>
      <point x="417" y="222"/>
      <point x="452" y="202"/>
      <point x="477" y="168"/>
      <point x="492" y="122"/>
    </contour>
    <contour>
      <point x="89" y="1265" type="line"/>
      <point x="114" y="1301"/>
      <point x="176" y="1372"/>
      <point x="252" y="1429"/>
      <point x="344" y="1464"/>
      <point x="401" y="1464" type="qcurve" name="at01"/>
      <point x="458" y="1464"/>
      <point x="560" y="1421"/>
      <point x="637" y="1342"/>
      <point x="681" y="1231"/>
      <point x="681" y="1164" type="qcurve" name="sh02"/>
      <point x="681" y="1097"/>
      <point x="649" y="993"/>
      <point x="587" y="907"/>
      <point x="497" y="830"/>
      <point x="439" y="790" type="qcurve"/>
      <point x="410" y="770"/>
      <point x="371" y="726"/>
      <point x="350" y="680"/>
      <point x="342" y="633"/>
      <point x="342" y="611" type="qcurve" name="dh02"/>
      <point x="342" y="580"/>
      <point x="364" y="532"/>
      <point x="397" y="499"/>
      <point x="433" y="482"/>
      <point x="448" y="482" type="qcurve"/>
      <point x="433" y="370" type="line"/>
      <point x="390" y="370"/>
      <point x="313" y="412"/>
      <point x="255" y="482"/>
      <point x="221" y="572"/>
      <point x="221" y="619" type="qcurve" name="dh01"/>
      <point x="221" y="657"/>
      <point x="232" y="728"/>
      <point x="260" y="797"/>
      <point x="310" y="866"/>
      <point x="347" y="901" type="qcurve"/>
      <point x="422" y="970"/>
      <point x="492" y="1101"/>
      <point x="492" y="1182" type="qcurve" name="sh03"/>
      <point x="492" y="1219"/>
      <point x="473" y="1279"/>
      <point x="440" y="1320"/>
      <point x="396" y="1342"/>
      <point x="372" y="1342" type="qcurve" name="sv02"/>
      <point x="344" y="1342"/>
      <point x="286" y="1310"/>
      <point x="233" y="1257"/>
      <point x="189" y="1189"/>
      <point x="174" y="1153" type="qcurve" name="iv01"/>
    </contour>
  </outline>
</glyph>
<glyph name="F" format="2">
  <advance width="816"/>
  <unicode hex="0046"/>
  <guideline x="700" y="0" angle="90"/>
  <guideline x="592" y="0" angle="80"/>
  <anchor x="420" y="1600" name="AccentAbove"/>
  <anchor x="750" y="1600" name="AccentAboveRight"/>
  <anchor x="300" y="0" name="AccentBelow"/>
  <anchor x="420" y="712" name="AccentOverlay"/>
  <outline>
    <contour>
      <point x="98" y="1434" type="line" name="dh01"/>
      <point x="782" y="1434" type="line"/>
      <point x="760" y="1272" type="line"/>
      <point x="332" y="1312" type="line" name="dh02"/>
      <point x="332" y="859" type="line"/>
      <point x="705" y="859" type="line" name="dv02"/>
      <point x="686" y="717" type="line" name="dv01"/>
      <point x="332" y="717" type="line" name="sh01"/>
      <point x="332" y="0" type="line" name="ab01"/>
      <point x="98" y="0" type="line"/>
    </contour>
  </outline>
</glyph>
<glyph name="G" format="2">
  <advance width="1200"/>
  <unicode hex="0047"/>
  <guideline x="0" y="-167" angle="45"/>
  <guideline x="646" y="0" angle="90"/>
  <guideline x="550" y="0" angle="80"/>
  <guideline x="1005" y="0" angle="90"/>
  <anchor x="550" y="0" name="AccentBelow"/>
  <anchor x="650" y="1600" name="AccentDefault"/>
  <anchor x="500" y="712" name="AccentMiddle"/>
  <outline>
    <contour>
      <point x="645" y="717" type="line" name="dv02"/>
      <point x="1052" y="717" type="line"/>
      <point x="1052" y="200" type="line" name="sh01"/>
      <point x="1008" y="139"/>
      <point x="917" y="52"/>
      <point x="817" y="-4"/>
      <point x="707" y="-30"/>
      <point x="644" y="-30" type="qcurve" name="ab01"/>
      <point x="512" y="-30"/>
      <point x="290" y="78"/>
      <point x="131" y="274"/>
      <point x="44" y="550"/>
      <point x="44" y="717" type="qcurve" name="sh02"/>
      <point x="44" y="880"/>
      <point x="129" y="1155"/>
      <point x="287" y="1353"/>
      <point x="509" y="1464"/>
      <point x="645" y="1464" type="qcurve" name="at01"/>
      <point x="717" y="1464"/>
      <point x="834" y="1432"/>
      <point x="932" y="1373"/>
      <point x="1015" y="1288"/>
      <point x="1052" y="1235" type="qcurve" name="sh03"/>
      <point x="960" y="1113" type="line" name="ih01"/>
      <point x="931" y="1165"/>
      <point x="869" y="1243"/>
      <point x="795" y="1295"/>
      <point x="704" y="1322"/>
      <point x="646" y="1322" type="qcurve" name="sv01"/>
      <point x="555" y="1322"/>
      <point x="420" y="1228"/>
      <point x="330" y="1065"/>
      <point x="285" y="844"/>
      <point x="285" y="717" type="qcurve" name="sh04"/>
      <point x="285" y="637"/>
      <point x="302" y="486"/>
      <point x="339" y="351"/>
      <point x="396" y="239"/>
      <point x="476" y="157"/>
      <point x="580" y="112"/>
      <point x="644" y="112" type="qcurve" name="sv02"/>
      <point x="671" y="112"/>
      <point x="714" y="115"/>
      <point x="753" y="125"/>
      <point x="793" y="144"/>
      <point x="818" y="160" type="qcurve" name="ah01"/>
      <point x="818" y="575" type="line"/>
      <point x="626" y="575" type="line" name="dv01"/>
    </contour>
  </outline>
</glyph>
<glyph name="J" format="2">
  <advance width="552"/>
  <unicode hex="004A"/>
  <guideline x="22" y="0" angle="90"/>
  <guideline x="0" y="0" angle="80"/>
  <anchor x="270" y="1600" name="AccentAbove"/>
  <anchor x="400" y="1600" name="AccentAboveRight"/>
  <anchor x="150" y="0" name="AccentBelow"/>
  <anchor x="290" y="712" name="AccentOverlay"/>
  <outline>
    <contour>
      <point x="216" y="1434" type="line" name="dh01"/>
      <point x="450" y="1464" type="line" name="dh02"/>
      <point x="450" y="539" type="line"/>
      <point x="450" y="362"/>
      <point x="383" y="139"/>
      <point x="264" y="15"/>
      <point x="99" y="-30"/>
      <point x="0" y="-30" type="qcurve" name="ab01"/>
      <point x="22" y="132" type="line" name="sv01"/>
      <point x="58" y="132"/>
      <point x="127" y="150"/>
      <point x="182" y="213"/>
      <point x="216" y="332"/>
      <point x="216" y="433" type="qcurve"/>
    </contour>
  </outline>
</glyph>
<glyph name="L" format="2">
  <advance width="816"/>
  <unicode hex="004C"/>
  <guideline x="724" y="0" angle="80"/>
  <anchor x="240" y="1600" name="AccentAbove"/>
  <anchor x="570" y="1600" name="AccentAboveRight"/>
  <anchor x="300" y="0" name="AccentBelow"/>
  <anchor x="290" y="712" name="AccentOverlay"/>
  <outline>
    <contour>
      <point x="98" y="1434" type="line" name="dh01"/>
      <point x="332" y="1464" type="line" name="dh02"/>
      <point x="332" y="122" type="line"/>
      <point x="760" y="162" type="line"/>
      <point x="737" y="0" type="line" name="ab01"/>
      <point x="98" y="0" type="line"/>
    </contour>
  </outline>
</glyph>
<glyph name="latn:O" format="2">
  <advance width="1200"/>
  <unicode hex="004F"/>
  <anchor x="620" y="1600" name="AccentAbove"/>
  <anchor x="950" y="1600" name="AccentAboveRight"/>
  <anchor x="480" y="0" name="AccentBelow"/>
  <anchor x="550" y="712" name="AccentOverlay"/>
  <outline>
    <contour>
      <point x="286" y="717" type="qcurve" name="sh02"/>
      <point x="286" y="571"/>
      <point x="335" y="346"/>
      <point x="419" y="192"/>
      <point x="534" y="112"/>
      <point x="600" y="112" type="qcurve" name="sv01"/>
      <point x="666" y="112"/>
      <point x="781" y="192"/>
      <point x="866" y="346"/>
      <point x="914" y="571"/>
      <point x="914" y="717" type="qcurve" name="ah01"/>
      <point x="914" y="862"/>
      <point x="866" y="1088"/>
      <point x="781" y="1242"/>
      <point x="666" y="1322"/>
      <point x="600" y="1322" type="qcurve" name="sv02"/>
      <point x="534" y="1322"/>
      <point x="419" y="1242"/>
      <point x="335" y="1088"/>
      <point x="286" y="863"/>
    </contour>
    <contour>
      <point x="44" y="717" type="qcurve" name="sh01"/>
      <point x="44" y="832"/>
      <point x="89" y="1032"/>
      <point x="166" y="1198"/>
      <point x="272" y="1328"/>
      <point x="395" y="1417"/>
      <point x="531" y="1464"/>
      <point x="600" y="1464" type="qcurve" name="at01"/>
      <point x="669" y="1464"/>
      <point x="805" y="1417"/>
      <point x="929" y="1328"/>
      <point x="1034" y="1198"/>
      <point x="1112" y="1032"/>
      <point x="1156" y="832"/>
      <point x="1156" y="717" type="qcurve" name="sh03"/>
      <point x="1156" y="602"/>
      <point x="1112" y="402"/>
      <point x="1034" y="236"/>
      <point x="929" y="106"/>
      <point x="805" y="17"/>
      <point x="669" y="-30"/>
      <point x="600" y="-30" type="qcurve" name="ab01"/>
      <point x="530" y="-30"/>
      <point x="395" y="17"/>
      <point x="271" y="106"/>
      <point x="165" y="236"/>
      <point x="88" y="402"/>
      <point x="44" y="602"/>
    </contour>
  </outline>
</glyph>
<glyph name="latn:Q" format="2">
  <advance width="1200"/>
  <unicode hex="0051"/>
  <guideline x="0" y="-129" angle="0"/>
  <guideline x="1156" y="0" angle="90"/>
  <guideline x="1359" y="0" angle="45"/>
  <anchor x="620" y="1600" name="AccentAbove"/>
  <anchor x="950" y="1600" name="AccentAboveRight"/>
  <anchor x="600" y="0" name="AccentBelow"/>
  <anchor x="550" y="712" name="AccentOverlay"/>
  <outline>
    <contour>
      <point x="44" y="717" type="qcurve" name="sh01"/>
      <point x="44" y="832"/>
      <point x="89" y="1032"/>
      <point x="166" y="1198"/>
      <point x="272" y="1328"/>
      <point x="395" y="1417"/>
      <point x="531" y="1464"/>
      <point x="600" y="1464" type="qcurve" name="at01"/>
      <point x="669" y="1464"/>
      <point x="805" y="1417"/>
      <point x="929" y="1328"/>
      <point x="1034" y="1198"/>
      <point x="1112" y="1032"/>
      <point x="1156" y="832"/>
      <point x="1156" y="717" type="qcurve" name="sh02"/>
      <point x="1156" y="602"/>
      <point x="1111" y="394"/>
      <point x="1025" y="217"/>
      <point x="896" y="76"/>
      <point x="813" y="28" type="qcurve" name="ih01"/>
      <point x="884" y="16"/>
      <point x="996" y="-50"/>
      <point x="1081" y="-135"/>
      <point x="1139" y="-230"/>
      <point x="1156" y="-271" type="qcurve" name="sh03"/>
      <point x="1015" y="-459" type="line" name="ih02"/>
      <point x="989" y="-385"/>
      <point x="944" y="-263"/>
      <point x="895" y="-168"/>
      <point x="837" y="-98"/>
      <point x="762" y="-52"/>
      <point x="665" y="-30"/>
      <point x="600" y="-30" type="qcurve" name="ab01"/>
      <point x="530" y="-30"/>
      <point x="395" y="17"/>
      <point x="271" y="106"/>
      <point x="165" y="236"/>
      <point x="88" y="402"/>
      <point x="44" y="602"/>
    </contour>
    <contour>
      <point x="286" y="717" type="qcurve" name="sh04"/>
      <point x="286" y="571"/>
      <point x="335" y="346"/>
      <point x="419" y="192"/>
      <point x="534" y="112"/>
      <point x="600" y="112" type="qcurve" name="sv01"/>
      <point x="666" y="112"/>
      <point x="781" y="192"/>
      <point x="866" y="346"/>
      <point x="914" y="571"/>
      <point x="914" y="717" type="qcurve" name="ah01"/>
      <point x="914" y="862"/>
      <point x="866" y="1088"/>
      <point x="781" y="1242"/>
      <point x="666" y="1322"/>
      <point x="600" y="1322" type="qcurve" name="sv02"/>
      <point x="534" y="1322"/>
      <point x="419" y="1242"/>
      <point x="335" y="1088"/>
      <point x="286" y="863"/>
    </contour>
  </outline>
</glyph>
<glyph name="latn:S" format="2">
  <advance width="864"/>
  <unicode hex="0053"/>
  <guideline x="0" y="811" angle="340"/>
  <guideline x="0" y="1107" angle="340"/>
  <guideline x="429" y="0" angle="90"/>
  <guideline x="-118" y="0" angle="45"/>
  <anchor x="420" y="1600" name="AccentAbove"/>
  <anchor x="750" y="1600" name="AccentAboveRight"/>
  <anchor x="320" y="0" name="AccentBelow"/>
  <anchor x="300" y="0" name="AccentCedilla"/>
  <anchor x="420" y="712" name="AccentOverlay"/>
  <outline>
    <contour>
      <point x="768" y="1235" type="qcurve" name="hr00"/>
      <point x="677" y="1113" type="line" name="ih01"/>
      <point x="661" y="1153"/>
      <point x="617" y="1229"/>
      <point x="563" y="1287"/>
      <point x="499" y="1322"/>
      <point x="462" y="1322" type="qcurve" name="sv01"/>
      <point x="437" y="1322"/>
      <point x="386" y="1296"/>
      <point x="345" y="1247"/>
      <point x="320" y="1177"/>
      <point x="320" y="1134" type="qcurve" name="sh03"/>
      <point x="320" y="1084"/>
      <point x="339" y="1004"/>
      <point x="386" y="938"/>
      <point x="464" y="880"/>
      <point x="523" y="852" type="qcurve"/>
      <point x="655" y="788"/>
      <point x="791" y="569"/>
      <point x="791" y="409" type="qcurve" name="sh01"/>
      <point x="791" y="320"/>
      <point x="737" y="160"/>
      <point x="638" y="40"/>
      <point x="497" y="-30"/>
      <point x="410" y="-30" type="qcurve" name="ab01"/>
      <point x="352" y="-30"/>
      <point x="248" y="11"/>
      <point x="161" y="77"/>
      <point x="91" y="159"/>
      <point x="66" y="199" type="qcurve"/>
      <point x="158" y="321" type="line" name="ih02"/>
      <point x="179" y="278"/>
      <point x="233" y="202"/>
      <point x="296" y="145"/>
      <point x="370" y="112"/>
      <point x="410" y="112" type="qcurve" name="sv02"/>
      <point x="452" y="112"/>
      <point x="518" y="147"/>
      <point x="563" y="208"/>
      <point x="587" y="290"/>
      <point x="587" y="336" type="qcurve" name="ah01"/>
      <point x="587" y="384"/>
      <point x="561" y="468"/>
      <point x="506" y="542"/>
      <point x="420" y="608"/>
      <point x="359" y="637" type="qcurve"/>
      <point x="308" y="662"/>
      <point x="221" y="738"/>
      <point x="158" y="841"/>
      <point x="123" y="971"/>
      <point x="123" y="1051" type="qcurve" name="sh02"/>
      <point x="123" y="1138"/>
      <point x="174" y="1289"/>
      <point x="266" y="1400"/>
      <point x="389" y="1464"/>
      <point x="463" y="1464" type="qcurve" name="at01"/>
      <point x="519" y="1464"/>
      <point x="612" y="1425"/>
      <point x="687" y="1361"/>
      <point x="746" y="1278"/>
    </contour>
  </outline>
</glyph>
<glyph name="latn:U" format="2">
  <advance width="1128"/>
  <unicode hex="0055"/>
  <guideline x="0" y="568" angle="0"/>
  <guideline x="584" y="0" angle="90"/>
  <anchor x="570" y="1600" name="AccentAbove"/>
  <anchor x="900" y="1600" name="AccentAboveRight"/>
  <anchor x="619" y="0" name="AccentAttachedBelow"/>
  <anchor x="480" y="0" name="AccentBelow"/>
  <anchor x="570" y="712" name="AccentOverlay"/>
  <outline>
    <contour>
      <point x="336" y="1464" type="line" name="at01"/>
      <point x="336" y="500" type="line" name="dh02"/>
      <point x="336" y="404"/>
      <point x="387" y="259"/>
      <point x="470" y="162"/>
      <point x="573" y="112"/>
      <point x="626" y="112" type="qcurve" name="sv01"/>
      <point x="692" y="112"/>
      <point x="796" y="171"/>
      <point x="867" y="280"/>
      <point x="905" y="435"/>
      <point x="905" y="530" type="qcurve" name="dh03"/>
      <point x="905" y="1464" type="line" name="at02"/>
      <point x="1026" y="1434" type="line"/>
      <point x="1026" y="568" type="line" name="dh04"/>
      <point x="1026" y="437"/>
      <point x="970" y="218"/>
      <point x="862" y="59"/>
      <point x="704" y="-30"/>
      <point x="602" y="-30" type="qcurve" name="ab01"/>
      <point x="491" y="-30"/>
      <point x="308" y="47"/>
      <point x="176" y="200"/>
      <point x="102" y="428"/>
      <point x="102" y="578" type="qcurve" name="dh01"/>
      <point x="102" y="1434" type="line"/>
    </contour>
  </outline>
</glyph>
<glyph name="latn:V" format="2">
  <advance width="936"/>
  <unicode hex="0056"/>
  <guideline x="404" y="0" angle="70"/>
  <guideline x="533" y="0" angle="70"/>
  <guideline x="404" y="0" angle="110"/>
  <guideline x="654" y="0" angle="110"/>
  <anchor x="520" y="1600" name="AccentAbove"/>
  <anchor x="850" y="1600" name="AccentAboveRight"/>
  <anchor x="350" y="0" name="AccentBelow"/>
  <anchor x="420" y="712" name="AccentOverlay"/>
  <outline>
    <contour>
      <point x="254" y="1464" type="line" name="at01"/>
      <point x="529" y="456" type="line" name="iv01"/>
      <point x="803" y="1464" type="line" name="at02"/>
      <point x="924" y="1434" type="line"/>
      <point x="533" y="0" type="line" name="ab01"/>
      <point x="404" y="0" type="line"/>
      <point x="12" y="1434" type="line"/>
    </contour>
  </outline>
</glyph>
<glyph name="W" format="2">
  <advance width="1416"/>
  <unicode hex="0057"/>
  <guideline x="0" y="528" angle="0"/>
  <guideline x="347" y="0" angle="106"/>
  <guideline x="1187" y="0" angle="108"/>
  <guideline x="1069" y="0" angle="74"/>
  <guideline x="944" y="0" angle="74"/>
  <guideline x="599" y="0" angle="106"/>
  <guideline x="478" y="0" angle="72"/>
  <guideline x="356" y="0" angle="72"/>
  <guideline x="938" y="0" angle="108"/>
  <guideline x="760" y="0" angle="90"/>
  <anchor x="600" y="0" name="AccentBelow"/>
  <anchor x="750" y="1600" name="AccentDefault"/>
  <anchor x="650" y="712" name="AccentMiddle"/>
  <outline>
    <contour>
      <point x="1058" y="528" type="line" name="iv01"/>
      <point x="1259" y="1464" type="line" name="at01"/>
      <point x="1377" y="1434" type="line" name="at03"/>
      <point x="1067" y="0" type="line" name="ab01"/>
      <point x="939" y="0" type="line"/>
      <point x="709" y="943" type="line" name="iv02"/>
      <point x="478" y="0" type="line" name="ab02"/>
      <point x="349" y="0" type="line"/>
      <point x="39" y="1434" type="line" name="at04"/>
      <point x="283" y="1464" type="line" name="at02"/>
      <point x="485" y="528" type="line" name="iv03"/>
      <point x="706" y="1434" type="line" name="at05"/>
      <point x="837" y="1434" type="line"/>
    </contour>
  </outline>
</glyph>
<glyph name="X" format="2">
  <advance width="936"/>
  <unicode hex="0058"/>
  <guideline x="0" y="725" angle="0"/>
  <guideline x="199" y="0" angle="60"/>
  <guideline x="58" y="0" angle="60"/>
  <guideline x="907" y="0" angle="120"/>
  <guideline x="651" y="0" angle="120"/>
  <guideline x="63" y="0" angle="90"/>
  <guideline x="722" y="0" angle="90"/>
  <anchor x="350" y="0" name="AccentBelow"/>
  <anchor x="400" y="1600" name="AccentDefault"/>
  <anchor x="350" y="712" name="AccentMiddle"/>
  <outline>
    <contour>
      <point x="273" y="1464" type="line" name="at01"/>
      <point x="482" y="980" type="line" name="iv01"/>
      <point x="693" y="1464" type="line" name="at02"/>
      <point x="820" y="1434" type="line"/>
      <point x="553" y="818" type="line"/>
      <point x="906" y="0" type="line" name="iv02"/>
      <point x="664" y="-30" type="line" name="ab01"/>
      <point x="425" y="521" type="line" name="iv03"/>
      <point x="185" y="-30" type="line" name="ab02"/>
      <point x="58" y="0" type="line"/>
      <point x="355" y="685" type="line"/>
      <point x="30" y="1434" type="line" name="iv04"/>
    </contour>
  </outline>
</glyph>
<glyph name="latn:Y" format="2">
  <advance width="936"/>
  <unicode hex="0059"/>
  <guideline x="212" y="0" angle="62"/>
  <guideline x="839" y="0" angle="118"/>
  <guideline x="584" y="0" angle="118"/>
  <guideline x="353" y="0" angle="62"/>
  <anchor x="520" y="1600" name="AccentAbove"/>
  <anchor x="850" y="1600" name="AccentAboveRight"/>
  <anchor x="350" y="0" name="AccentBelow"/>
  <anchor x="420" y="712" name="AccentOverlay"/>
  <outline>
    <contour>
      <point x="254" y="1464" type="line" name="at01"/>
      <point x="526" y="785" type="line" name="ih01"/>
      <point x="796" y="1464" type="line" name="at02"/>
      <point x="924" y="1434" type="line"/>
      <point x="585" y="582" type="line"/>
      <point x="585" y="0" type="line" name="dh02"/>
      <point x="351" y="0" type="line" name="dh01"/>
      <point x="351" y="584" type="line"/>
      <point x="12" y="1434" type="line" name="iv01"/>
    </contour>
  </outline>
</glyph>
<glyph name="latn:Z" format="2">
  <advance width="936"/>
  <unicode hex="005A"/>
  <guideline x="0" y="1259" angle="3"/>
  <guideline x="284" y="0" angle="60"/>
  <guideline x="-80" y="0" angle="80"/>
  <guideline x="859" y="0" angle="80"/>
  <guideline x="45" y="0" angle="90"/>
  <guideline x="879" y="0" angle="90"/>
  <guideline x="20" y="0" angle="60"/>
  <anchor x="470" y="1600" name="AccentAbove"/>
  <anchor x="800" y="1600" name="AccentAboveRight"/>
  <anchor x="350" y="0" name="AccentBelow"/>
  <anchor x="420" y="712" name="AccentOverlay"/>
  <outline>
    <contour>
      <point x="110" y="1434" type="line" name="hr00"/>
      <point x="879" y="1434" type="line"/>
      <point x="879" y="1374" type="line"/>
      <point x="332" y="122" type="line"/>
      <point x="880" y="163" type="line"/>
      <point x="859" y="0" type="line"/>
      <point x="47" y="0" type="line"/>
      <point x="47" y="60" type="line"/>
      <point x="590" y="1312" type="line"/>
      <point x="89" y="1272" type="line"/>
    </contour>
  </outline>
</glyph>
<glyph name="sign:bracketleft" format="2">
  <advance width="552"/>
  <unicode hex="005B"/>
  <guideline x="342" y="0" angle="80"/>
  <guideline x="500" y="0" angle="100"/>
  <guideline x="485" y="0" angle="90"/>
  <outline>
    <contour>
      <point x="176" y="1464" type="line" name="dh01"/>
      <point x="506" y="1464" type="line"/>
      <point x="489" y="1342" type="line" name="sv01"/>
      <point x="365" y="1342" type="line" name="dh02"/>
      <point x="365" y="-156" type="line"/>
      <point x="489" y="-156" type="line" name="dv02"/>
      <point x="506" y="-278" type="line" name="dv01"/>
      <point x="176" y="-278" type="line"/>
    </contour>
  </outline>
</glyph>
<glyph name="sign:bracketright" format="2">
  <advance width="552"/>
  <unicode hex="005D"/>
  <outline>
    <contour>
      <point x="377" y="-278" type="line" name="dh02"/>
      <point x="47" y="-278" type="line" name="dv01"/>
      <point x="63" y="-156" type="line"/>
      <point x="188" y="-156" type="line" name="dh01"/>
      <point x="188" y="1342" type="line" name="sv01"/>
      <point x="63" y="1342" type="line"/>
      <point x="47" y="1464" type="line" name="at01"/>
      <point x="377" y="1464" type="line"/>
    </contour>
  </outline>
</glyph>
<glyph name="sign:asciicircum" format="2">
  <advance width="936"/>
  <unicode hex="005E"/>
  <guideline x="0" y="700" angle="330"/>
  <guideline x="468" y="0" angle="90"/>
  <guideline x="-213" y="0" angle="60"/>
  <guideline x="1150" y="0" angle="120"/>
  <outline>
    <contour>
      <point x="407" y="1434" type="line" name="at01"/>
      <point x="529" y="1434" type="line"/>
      <point x="869" y="648" type="line"/>
      <point x="745" y="553" type="line" name="av01"/>
      <point x="468" y="1181" type="line" name="iv01"/>
      <point x="191" y="553" type="line" name="av02"/>
      <point x="68" y="648" type="line"/>
    </contour>
  </outline>
</glyph>
<glyph name="sign:grave" format="2">
  <advance width="576"/>
  <unicode hex="0060"/>
  <guideline x="0" y="1613" angle="0"/>
  <guideline x="0" y="1346" angle="45"/>
  <guideline x="1328" y="0" angle="135"/>
  <guideline x="173" y="0" angle="90"/>
  <guideline x="-490" y="0" angle="45"/>
  <guideline x="1212" y="0" angle="135"/>
  <guideline x="291" y="0" angle="90"/>
  <outline>
    <contour>
      <point x="344" y="1138" type="line" name="av01"/>
      <point x="69" y="1426" type="line"/>
      <point x="69" y="1470" type="line"/>
      <point x="158" y="1588" type="line" name="av02"/>
      <point x="191" y="1588" type="line"/>
      <point x="401" y="1219" type="line"/>
    </contour>
  </outline>
</glyph>
<glyph name="latn:b" format="2">
  <advance width="840"/>
  <unicode hex="0062"/>
  <guideline x="406" y="0" angle="90"/>
  <anchor x="420" y="1600" name="AccentAbove"/>
  <anchor x="550" y="1400" name="AccentAboveRight"/>
  <anchor x="300" y="0" name="AccentBelow"/>
  <anchor x="420" y="486" name="AccentOverlay"/>
  <outline>
    <contour>
      <point x="75" y="1464" type="line" name="sh01"/>
      <point x="242" y="1494" type="line" name="av01"/>
      <point x="287" y="1494" type="line" name="sh02"/>
      <point x="287" y="962" type="line" name="iv01"/>
      <point x="319" y="982"/>
      <point x="397" y="1004"/>
      <point x="444" y="1004" type="qcurve" name="at01"/>
      <point x="521" y="1004"/>
      <point x="651" y="929"/>
      <point x="746" y="793"/>
      <point x="798" y="602"/>
      <point x="798" y="487" type="qcurve" name="sh03"/>
      <point x="798" y="355"/>
      <point x="739" y="160"/>
      <point x="636" y="32"/>
      <point x="498" y="-30"/>
      <point x="419" y="-30" type="qcurve" name="ab01"/>
      <point x="382" y="-30"/>
      <point x="305" y="-16"/>
      <point x="220" y="18"/>
      <point x="127" y="77"/>
      <point x="75" y="122" type="qcurve"/>
    </contour>
    <contour>
      <point x="287" y="852" type="qcurve" name="sh04"/>
      <point x="287" y="122" type="line"/>
      <point x="306" y="99"/>
      <point x="369" y="82"/>
      <point x="404" y="82" type="qcurve" name="sv02"/>
      <point x="440" y="82"/>
      <point x="503" y="131"/>
      <point x="551" y="231"/>
      <point x="579" y="383"/>
      <point x="579" y="487" type="qcurve" name="ah01"/>
      <point x="579" y="574"/>
      <point x="556" y="723"/>
      <point x="512" y="831"/>
      <point x="448" y="892"/>
      <point x="407" y="892" type="qcurve" name="sv01"/>
      <point x="362" y="892"/>
      <point x="308" y="870"/>
    </contour>
  </outline>
</glyph>
<glyph name="latn:c" format="2">
  <advance width="768"/>
  <unicode hex="0063"/>
  <guideline x="790" y="0" angle="135"/>
  <guideline x="59" y="0" angle="45"/>
  <guideline x="698" y="0" angle="90"/>
  <guideline x="614" y="0" angle="90"/>
  <anchor x="420" y="1100" name="AccentAbove"/>
  <anchor x="750" y="1100" name="AccentAboveRight"/>
  <anchor x="420" y="0" name="AccentBelow"/>
  <anchor x="300" y="0" name="AccentCedilla"/>
  <anchor x="370" y="486" name="AccentOverlay"/>
  <outline>
    <contour>
      <point x="621" y="740" type="line" name="iv01"/>
      <point x="608" y="767"/>
      <point x="577" y="821"/>
      <point x="536" y="865"/>
      <point x="483" y="892"/>
      <point x="450" y="892" type="qcurve" name="sv01"/>
      <point x="413" y="892"/>
      <point x="347" y="836"/>
      <point x="297" y="731"/>
      <point x="269" y="581"/>
      <point x="269" y="487" type="qcurve" name="dh02"/>
      <point x="269" y="393"/>
      <point x="297" y="243"/>
      <point x="347" y="138"/>
      <point x="413" y="82"/>
      <point x="450" y="82" type="qcurve" name="sv02"/>
      <point x="486" y="82"/>
      <point x="539" y="109"/>
      <point x="578" y="152"/>
      <point x="608" y="206"/>
      <point x="621" y="234" type="qcurve" name="iv02"/>
      <point x="706" y="122" type="line"/>
      <point x="684" y="90"/>
      <point x="633" y="34"/>
      <point x="566" y="-7"/>
      <point x="482" y="-30"/>
      <point x="428" y="-30" type="qcurve" name="ab01"/>
      <point x="341" y="-30"/>
      <point x="202" y="47"/>
      <point x="103" y="185"/>
      <point x="50" y="374"/>
      <point x="50" y="487" type="qcurve" name="dh01"/>
      <point x="50" y="599"/>
      <point x="103" y="789"/>
      <point x="202" y="927"/>
      <point x="341" y="1004"/>
      <point x="428" y="1004" type="qcurve" name="at01"/>
      <point x="482" y="1004"/>
      <point x="566" y="980"/>
      <point x="633" y="939"/>
      <point x="685" y="883"/>
      <point x="706" y="852" type="qcurve"/>
    </contour>
  </outline>
</glyph>
<glyph name="d" format="2">
  <advance width="840"/>
  <unicode hex="0064"/>
  <guideline x="404" y="0" angle="90"/>
  <anchor x="420" y="1600" name="AccentAbove"/>
  <anchor x="750" y="1600" name="AccentAboveRight"/>
  <anchor x="350" y="0" name="AccentBelow"/>
  <anchor x="300" y="0" name="AccentCedilla"/>
  <anchor x="420" y="486" name="AccentOverlay"/>
  <outline>
    <contour>
      <point x="554" y="821" type="line" name="hr00"/>
      <point x="534" y="852"/>
      <point x="474" y="892"/>
      <point x="429" y="892" type="qcurve" name="sv01"/>
      <point x="392" y="892"/>
      <point x="330" y="834"/>
      <point x="286" y="728"/>
      <point x="261" y="578"/>
      <point x="261" y="487" type="qcurve" name="sh02"/>
      <point x="261" y="386"/>
      <point x="290" y="234"/>
      <point x="338" y="133"/>
      <point x="398" y="82"/>
      <point x="429" y="82" type="qcurve" name="sv02"/>
      <point x="475" y="82"/>
      <point x="534" y="123"/>
      <point x="554" y="152" type="qcurve" name="ah01"/>
    </contour>
    <contour>
      <point x="393" y="1004" type="qcurve" name="at01"/>
      <point x="416" y="1004"/>
      <point x="464" y="988"/>
      <point x="509" y="966"/>
      <point x="545" y="941"/>
      <point x="554" y="931" type="qcurve" name="sh03"/>
      <point x="554" y="1464" type="line"/>
      <point x="720" y="1494" type="line" name="av01"/>
      <point x="765" y="1494" type="line"/>
      <point x="765" y="156" type="line" name="sh04"/>
      <point x="765" y="120"/>
      <point x="788" y="82"/>
      <point x="819" y="82" type="qcurve" name="sv03"/>
      <point x="804" y="-30" type="line" name="ab01"/>
      <point x="755" y="-30"/>
      <point x="682" y="-16"/>
      <point x="627" y="11"/>
      <point x="589" y="53"/>
      <point x="576" y="82" type="qcurve" name="ih01"/>
      <point x="561" y="56"/>
      <point x="520" y="15"/>
      <point x="472" y="-14"/>
      <point x="419" y="-30"/>
      <point x="392" y="-30" type="qcurve" name="ab02"/>
      <point x="320" y="-30"/>
      <point x="192" y="41"/>
      <point x="97" y="174"/>
      <point x="42" y="366"/>
      <point x="42" y="487" type="qcurve" name="sh01"/>
      <point x="42" y="602"/>
      <point x="95" y="792"/>
      <point x="190" y="929"/>
      <point x="318" y="1004"/>
    </contour>
  </outline>
</glyph>
<glyph name="latn:e" format="2">
  <advance width="768"/>
  <unicode hex="0065"/>
  <guideline x="0" y="1485" angle="0"/>
  <guideline x="773" y="0" angle="135"/>
  <guideline x="707" y="0" angle="90"/>
  <anchor x="420" y="1100" name="AccentAbove"/>
  <anchor x="550" y="1100" name="AccentAboveRight"/>
  <anchor x="419" y="0" name="AccentAttachedBelow"/>
  <anchor x="300" y="0" name="AccentBelow"/>
  <anchor x="370" y="550" name="AccentOverlay"/>
  <outline>
    <contour>
      <point x="435" y="82" type="qcurve" name="sv01"/>
      <point x="465" y="82"/>
      <point x="517" y="109"/>
      <point x="560" y="152"/>
      <point x="593" y="206"/>
      <point x="606" y="234" type="qcurve" name="ih01"/>
      <point x="691" y="122" type="line"/>
      <point x="669" y="90"/>
      <point x="614" y="34"/>
      <point x="545" y="-7"/>
      <point x="461" y="-30"/>
      <point x="413" y="-30" type="qcurve" name="ab01"/>
      <point x="326" y="-30"/>
      <point x="189" y="47"/>
      <point x="93" y="185"/>
      <point x="42" y="374"/>
      <point x="42" y="487" type="qcurve" name="sh02"/>
      <point x="42" y="599"/>
      <point x="95" y="789"/>
      <point x="194" y="927"/>
      <point x="334" y="1004"/>
      <point x="420" y="1004" type="qcurve" name="at01"/>
      <point x="474" y="1004"/>
      <point x="583" y="949"/>
      <point x="671" y="827"/>
      <point x="726" y="629"/>
      <point x="726" y="487" type="qcurve" name="sh01"/>
      <point x="254" y="487" type="line" name="sh03"/>
      <point x="254" y="371"/>
      <point x="287" y="215"/>
      <point x="339" y="121"/>
      <point x="404" y="82"/>
    </contour>
    <contour>
      <point x="413" y="892" type="qcurve" name="sv02"/>
      <point x="383" y="892"/>
      <point x="326" y="855"/>
      <point x="281" y="781"/>
      <point x="254" y="671"/>
      <point x="254" y="599" type="qcurve" name="sh04"/>
      <point x="545" y="599" type="line" name="ah01"/>
      <point x="545" y="677"/>
      <point x="524" y="789"/>
      <point x="488" y="859"/>
      <point x="440" y="892"/>
    </contour>
  </outline>
</glyph>
<glyph name="h" format="2">
  <advance width="840"/>
  <unicode hex="0068"/>
  <guideline x="760" y="0" angle="80"/>
  <anchor x="420" y="1600" name="AccentAbove"/>
  <anchor x="550" y="1400" name="AccentAboveRight"/>
  <anchor x="320" y="0" name="AccentBelow"/>
  <anchor x="50" y="0" name="AccentCedilla"/>
  <anchor x="534" y="486" name="AccentOverlay"/>
  <outline>
    <contour>
      <point x="75" y="1464" type="line" name="sh01"/>
      <point x="242" y="1494" type="line" name="av01"/>
      <point x="287" y="1494" type="line" name="sh02"/>
      <point x="287" y="925" type="line" name="iv01"/>
      <point x="326" y="963"/>
      <point x="428" y="1004"/>
      <point x="487" y="1004" type="qcurve" name="at01"/>
      <point x="548" y="1004"/>
      <point x="648" y="960"/>
      <point x="720" y="877"/>
      <point x="759" y="757"/>
      <point x="759" y="680" type="qcurve"/>
      <point x="759" y="172" type="line" name="sh03"/>
      <point x="759" y="124"/>
      <point x="780" y="82"/>
      <point x="813" y="82" type="qcurve"/>
      <point x="798" y="-30" type="line" name="ab01"/>
      <point x="727" y="-30"/>
      <point x="631" y="12"/>
      <point x="572" y="86"/>
      <point x="548" y="187"/>
      <point x="548" y="247" type="qcurve" name="ah01"/>
      <point x="548" y="724" type="line"/>
      <point x="548" y="763"/>
      <point x="527" y="825"/>
      <point x="493" y="868"/>
      <point x="452" y="892"/>
      <point x="433" y="892" type="qcurve" name="sv01"/>
      <point x="408" y="892"/>
      <point x="365" y="875"/>
      <point x="327" y="846"/>
      <point x="297" y="811"/>
      <point x="287" y="793" type="qcurve" name="sh04"/>
      <point x="287" y="0" type="line" name="ab02"/>
      <point x="75" y="0" type="line"/>
    </contour>
  </outline>
</glyph>
<glyph name="latn:i" format="2">
  <advance width="432"/>
  <unicode hex="0069"/>
  <guideline x="371" y="0" angle="80"/>
  <guideline x="216" y="0" angle="90"/>
  <anchor x="240" y="1450" name="AccentAbove"/>
  <anchor x="370" y="1200" name="AccentAboveRight"/>
  <anchor x="219" y="0" name="AccentAttachedBelow"/>
  <anchor x="120" y="0" name="AccentBelow"/>
  <anchor x="190" y="486" name="AccentOverlay"/>
  <outline>
    <contour>
      <point x="110" y="974" type="line" name="dh01"/>
      <point x="277" y="1004" type="line" name="at01"/>
      <point x="322" y="1004" type="line" name="dh02"/>
      <point x="322" y="0" type="line" name="ab01"/>
      <point x="110" y="0" type="line"/>
    </contour>
    <contour>
      <point x="107" y="1288" type="qcurve" name="sh01"/>
      <point x="107" y="1318"/>
      <point x="124" y="1372"/>
      <point x="153" y="1411"/>
      <point x="194" y="1434"/>
      <point x="216" y="1434" type="qcurve" name="at02"/>
      <point x="239" y="1434"/>
      <point x="279" y="1411"/>
      <point x="308" y="1372"/>
      <point x="326" y="1318"/>
      <point x="326" y="1288" type="qcurve" name="sh02"/>
      <point x="326" y="1258"/>
      <point x="308" y="1204"/>
      <point x="279" y="1165"/>
      <point x="239" y="1142"/>
      <point x="216" y="1142" type="qcurve" name="sv01"/>
      <point x="194" y="1142"/>
      <point x="153" y="1165"/>
      <point x="124" y="1204"/>
      <point x="107" y="1258"/>
    </contour>
  </outline>
</glyph>
<glyph name="latn:m" format="2">
  <advance width="1248"/>
  <unicode hex="006D"/>
  <guideline x="0" y="769" angle="0"/>
  <anchor x="620" y="1100" name="AccentAbove"/>
  <anchor x="1150" y="1100" name="AccentAboveRight"/>
  <anchor x="620" y="0" name="AccentBelow"/>
  <anchor x="570" y="486" name="AccentOverlay"/>
  <outline>
    <contour>
      <point x="75" y="944" type="line" name="dh01"/>
      <point x="242" y="974" type="line" name="at01"/>
      <point x="287" y="974" type="line" name="dh02"/>
      <point x="287" y="893" type="line" name="iv01"/>
      <point x="304" y="915"/>
      <point x="347" y="956"/>
      <point x="396" y="986"/>
      <point x="449" y="1004"/>
      <point x="477" y="1004" type="qcurve" name="at02"/>
      <point x="552" y="1004"/>
      <point x="662" y="924"/>
      <point x="692" y="852" type="qcurve" name="ih01"/>
      <point x="713" y="882"/>
      <point x="761" y="937"/>
      <point x="815" y="979"/>
      <point x="878" y="1004"/>
      <point x="914" y="1004" type="qcurve" name="at03"/>
      <point x="962" y="1004"/>
      <point x="1051" y="967"/>
      <point x="1119" y="891" name="hr00"/>
      <point x="1161" y="777"/>
      <point x="1161" y="699" type="qcurve"/>
      <point x="1161" y="173" type="line" name="dh06"/>
      <point x="1161" y="125"/>
      <point x="1182" y="82"/>
      <point x="1215" y="82" type="qcurve"/>
      <point x="1200" y="-30" type="line" name="ab01"/>
      <point x="1071" y="-30"/>
      <point x="950" y="110"/>
      <point x="950" y="247" type="qcurve" name="dh05"/>
      <point x="950" y="740" type="line"/>
      <point x="950" y="782"/>
      <point x="934" y="840"/>
      <point x="908" y="876"/>
      <point x="877" y="892"/>
      <point x="862" y="892" type="qcurve" name="sv01"/>
      <point x="842" y="892"/>
      <point x="804" y="871"/>
      <point x="769" y="836"/>
      <point x="737" y="792"/>
      <point x="724" y="769" type="qcurve"/>
      <point x="724" y="0" type="line" name="dh04"/>
      <point x="512" y="0" type="line" name="dh03"/>
      <point x="512" y="741" type="line"/>
      <point x="512" y="783"/>
      <point x="496" y="840"/>
      <point x="471" y="876"/>
      <point x="440" y="892"/>
      <point x="425" y="892" type="qcurve" name="sv02"/>
      <point x="407" y="892"/>
      <point x="368" y="872"/>
      <point x="332" y="838"/>
      <point x="299" y="794"/>
      <point x="287" y="770" type="qcurve" name="sh01"/>
      <point x="287" y="0" type="line" name="ab02"/>
      <point x="75" y="0" type="line"/>
    </contour>
  </outline>
</glyph>
<glyph name="latn:n" format="2">
  <advance width="840"/>
  <unicode hex="006E"/>
  <anchor x="420" y="1100" name="AccentAbove"/>
  <anchor x="750" y="1100" name="AccentAboveRight"/>
  <anchor x="320" y="0" name="AccentBelow"/>
  <anchor x="390" y="486" name="AccentOverlay"/>
  <outline>
    <contour>
      <point x="75" y="944" type="line" name="sh01"/>
      <point x="242" y="974" type="line" name="at01"/>
      <point x="287" y="974" type="line" name="sh02"/>
      <point x="287" y="892" type="line" name="iv01"/>
      <point x="306" y="914"/>
      <point x="354" y="955"/>
      <point x="408" y="986"/>
      <point x="465" y="1004"/>
      <point x="494" y="1004" type="qcurve" name="at02"/>
      <point x="555" y="1004"/>
      <point x="653" y="960"/>
      <point x="722" y="877"/>
      <point x="759" y="757" name="hr00"/>
      <point x="759" y="680" type="qcurve"/>
      <point x="759" y="172" type="line" name="sh03"/>
      <point x="759" y="124"/>
      <point x="780" y="82"/>
      <point x="813" y="82" type="qcurve"/>
      <point x="798" y="-30" type="line" name="ab01"/>
      <point x="727" y="-30"/>
      <point x="631" y="12"/>
      <point x="572" y="86"/>
      <point x="548" y="187"/>
      <point x="548" y="247" type="qcurve" name="ah01"/>
      <point x="548" y="724" type="line"/>
      <point x="548" y="802"/>
      <point x="498" y="892"/>
      <point x="448" y="892" type="qcurve" name="sv01"/>
      <point x="423" y="892"/>
      <point x="374" y="868"/>
      <point x="331" y="832"/>
      <point x="296" y="789"/>
      <point x="287" y="770" type="qcurve" name="sh04"/>
      <point x="287" y="0" type="line" name="ab02"/>
      <point x="75" y="0" type="line"/>
    </contour>
  </outline>
</glyph>
<glyph name="latn:p" format="2">
  <advance width="840"/>
  <unicode hex="0070"/>
  <guideline x="442" y="0" angle="90"/>
  <anchor x="420" y="1100" name="AccentAbove"/>
  <anchor x="750" y="1100" name="AccentAboveRight"/>
  <anchor x="440" y="-420" name="AccentBelow"/>
  <anchor x="370" y="486" name="AccentOverlay"/>
  <outline>
    <contour>
      <point x="75" y="944" type="line" name="sh01"/>
      <point x="242" y="974" type="line" name="at01"/>
      <point x="287" y="974" type="line" name="sh02"/>
      <point x="287" y="914" type="line" name="iv01"/>
      <point x="301" y="935"/>
      <point x="341" y="968"/>
      <point x="387" y="992"/>
      <point x="436" y="1004"/>
      <point x="459" y="1004" type="qcurve" name="at02"/>
      <point x="531" y="1004"/>
      <point x="655" y="929"/>
      <point x="746" y="793"/>
      <point x="798" y="602"/>
      <point x="798" y="487" type="qcurve" name="sh03"/>
      <point x="798" y="358" name="hr00"/>
      <point x="742" y="165"/>
      <point x="648" y="35"/>
      <point x="524" y="-30"/>
      <point x="457" y="-30" type="qcurve" name="ab02"/>
      <point x="414" y="-30"/>
      <point x="323" y="9"/>
      <point x="287" y="51" type="qcurve" name="sh04"/>
      <point x="287" y="-460" type="line"/>
      <point x="120" y="-490" type="line" name="ab01"/>
      <point x="75" y="-490" type="line"/>
    </contour>
    <contour>
      <point x="287" y="802" type="qcurve" name="sh05"/>
      <point x="287" y="162" type="line"/>
      <point x="315" y="119"/>
      <point x="376" y="82"/>
      <point x="412" y="82" type="qcurve" name="sv02"/>
      <point x="441" y="82"/>
      <point x="501" y="128"/>
      <point x="549" y="226"/>
      <point x="579" y="379"/>
      <point x="579" y="487" type="qcurve" name="ah01"/>
      <point x="579" y="574"/>
      <point x="554" y="723"/>
      <point x="510" y="831"/>
      <point x="450" y="892"/>
      <point x="414" y="892" type="qcurve" name="sv01"/>
      <point x="389" y="892"/>
      <point x="349" y="873"/>
      <point x="317" y="846"/>
      <point x="294" y="815"/>
    </contour>
  </outline>
</glyph>
<glyph name="q" format="2">
  <advance width="840"/>
  <unicode hex="0071"/>
  <guideline x="422" y="0" angle="90"/>
  <anchor x="420" y="1100" name="AccentAbove"/>
  <anchor x="750" y="1100" name="AccentAboveRight"/>
  <anchor x="350" y="-420" name="AccentBelow"/>
  <anchor x="370" y="486" name="AccentOverlay"/>
  <outline>
    <contour>
      <point x="554" y="851" type="line" name="ah01"/>
      <point x="537" y="867"/>
      <point x="474" y="892"/>
      <point x="429" y="892" type="qcurve" name="sv01"/>
      <point x="392" y="892"/>
      <point x="330" y="834"/>
      <point x="286" y="728"/>
      <point x="261" y="578"/>
      <point x="261" y="487" type="qcurve" name="sh02"/>
      <point x="261" y="386"/>
      <point x="290" y="234"/>
      <point x="338" y="133"/>
      <point x="398" y="82"/>
      <point x="429" y="82" type="qcurve" name="sv02"/>
      <point x="452" y="82"/>
      <point x="489" y="96"/>
      <point x="520" y="119"/>
      <point x="544" y="148"/>
      <point x="554" y="163" type="qcurve"/>
    </contour>
    <contour>
      <point x="393" y="1004" type="qcurve" name="at01"/>
      <point x="496" y="1004"/>
      <point x="677" y="929"/>
      <point x="765" y="851" type="qcurve" name="sh03"/>
      <point x="765" y="-460" type="line"/>
      <point x="599" y="-490" type="line" name="ab01"/>
      <point x="554" y="-490" type="line" name="sh04"/>
      <point x="554" y="51" type="line" name="ih01"/>
      <point x="522" y="13"/>
      <point x="437" y="-30"/>
      <point x="392" y="-30" type="qcurve" name="ab02"/>
      <point x="320" y="-30"/>
      <point x="192" y="41"/>
      <point x="97" y="174"/>
      <point x="42" y="366"/>
      <point x="42" y="487" type="qcurve" name="sh01"/>
      <point x="42" y="602"/>
      <point x="95" y="792"/>
      <point x="190" y="929"/>
      <point x="318" y="1004"/>
    </contour>
  </outline>
</glyph>
<glyph name="r" format="2">
  <advance width="552"/>
  <unicode hex="0072"/>
  <guideline x="423" y="0" angle="80"/>
  <anchor x="80" y="0" name="AccentBelow"/>
  <anchor x="220" y="1100" name="AccentDefault"/>
  <anchor x="80" y="486" name="AccentMiddle"/>
  <outline>
    <contour>
      <point x="287" y="974" type="line" name="sh01"/>
      <point x="287" y="826" type="line" name="iv01"/>
      <point x="298" y="859"/>
      <point x="330" y="923"/>
      <point x="370" y="973"/>
      <point x="418" y="1004" name="hr00"/>
      <point x="445" y="1004" type="qcurve" name="at01"/>
      <point x="464" y="1004"/>
      <point x="495" y="993"/>
      <point x="521" y="975"/>
      <point x="540" y="954" name="hr01"/>
      <point x="548" y="944" type="qcurve"/>
      <point x="521" y="740" type="line" name="iv02"/>
      <point x="512" y="751"/>
      <point x="488" y="767"/>
      <point x="461" y="777"/>
      <point x="436" y="782"/>
      <point x="426" y="782" type="qcurve" name="sv01"/>
      <point x="389" y="782"/>
      <point x="335" y="745"/>
      <point x="302" y="689"/>
      <point x="287" y="623"/>
      <point x="287" y="595" type="qcurve"/>
      <point x="287" y="0" type="line" name="dh02"/>
      <point x="75" y="0" type="line" name="dh01"/>
      <point x="75" y="944" type="line"/>
      <point x="242" y="974" type="line"/>
    </contour>
  </outline>
</glyph>
<glyph name="s" format="2">
  <advance width="648"/>
  <unicode hex="0073"/>
  <guideline x="0" y="749" angle="340"/>
  <guideline x="0" y="586" angle="340"/>
  <guideline x="0" y="1323" angle="320"/>
  <guideline x="326" y="0" angle="90"/>
  <guideline x="-35" y="0" angle="45"/>
  <guideline x="-66" y="0" angle="45"/>
  <anchor x="320" y="1100" name="AccentAbove"/>
  <anchor x="520" y="1100" name="AccentAboveRight"/>
  <anchor x="200" y="0" name="AccentBelow"/>
  <anchor x="200" y="0" name="AccentCedilla"/>
  <anchor x="270" y="486" name="AccentOverlay"/>
  <outline>
    <contour>
      <point x="110" y="234" type="line" name="ih01"/>
      <point x="130" y="187"/>
      <point x="173" y="128"/>
      <point x="217" y="94"/>
      <point x="261" y="82"/>
      <point x="283" y="82" type="qcurve" name="sv01"/>
      <point x="307" y="82"/>
      <point x="354" y="101"/>
      <point x="392" y="140"/>
      <point x="416" y="201"/>
      <point x="416" y="242" type="qcurve" name="ah01"/>
      <point x="416" y="300"/>
      <point x="346" y="378"/>
      <point x="275" y="413" type="qcurve"/>
      <point x="239" y="431"/>
      <point x="167" y="489"/>
      <point x="112" y="568"/>
      <point x="78" y="671"/>
      <point x="78" y="735" type="qcurve" name="sh01"/>
      <point x="78" y="797"/>
      <point x="114" y="897"/>
      <point x="179" y="967"/>
      <point x="266" y="1004"/>
      <point x="317" y="1004" type="qcurve" name="at01"/>
      <point x="368" y="1004"/>
      <point x="449" y="983"/>
      <point x="517" y="944"/>
      <point x="575" y="888"/>
      <point x="602" y="852" type="qcurve" name="sh04"/>
      <point x="515" y="740" type="line" name="ih02"/>
      <point x="483" y="819"/>
      <point x="397" y="892"/>
      <point x="350" y="892" type="qcurve" name="sv02"/>
      <point x="335" y="892"/>
      <point x="303" y="875"/>
      <point x="277" y="840"/>
      <point x="260" y="788"/>
      <point x="260" y="753" type="qcurve" name="sh02"/>
      <point x="260" y="723"/>
      <point x="281" y="673"/>
      <point x="313" y="634"/>
      <point x="351" y="606"/>
      <point x="369" y="597" type="qcurve"/>
      <point x="430" y="568"/>
      <point x="519" y="500"/>
      <point x="577" y="417"/>
      <point x="605" y="319"/>
      <point x="605" y="260" type="qcurve" name="sh03"/>
      <point x="605" y="193"/>
      <point x="559" y="85"/>
      <point x="480" y="10"/>
      <point x="376" y="-30"/>
      <point x="318" y="-30" type="qcurve" name="ab01"/>
      <point x="270" y="-30"/>
      <point x="189" y="-13"/>
      <point x="119" y="24"/>
      <point x="56" y="82"/>
      <point x="26" y="122" type="qcurve"/>
    </contour>
  </outline>
</glyph>
<glyph name="t" format="2">
  <advance width="552"/>
  <unicode hex="0074"/>
  <guideline x="0" y="175" angle="0"/>
  <guideline x="0" y="863" angle="357.44"/>
  <guideline x="372" y="0" angle="80"/>
  <guideline x="-85" y="0" angle="80"/>
  <guideline x="487" y="0" angle="90"/>
  <anchor x="240" y="1600" name="AccentAbove"/>
  <anchor x="370" y="1300" name="AccentAboveRight"/>
  <anchor x="200" y="0" name="AccentBelow"/>
  <anchor x="200" y="0" name="AccentCedilla"/>
  <anchor x="220" y="486" name="AccentOverlay"/>
  <outline>
    <contour>
      <point x="353" y="1322" type="line" name="sh01"/>
      <point x="353" y="1004" type="line"/>
      <point x="506" y="1004" type="line"/>
      <point x="487" y="865" type="line"/>
      <point x="353" y="873" type="line"/>
      <point x="353" y="269" type="line" name="dh02"/>
      <point x="353" y="221"/>
      <point x="366" y="151"/>
      <point x="398" y="104"/>
      <point x="449" y="82"/>
      <point x="487" y="82" type="qcurve" name="sv01"/>
      <point x="472" y="-30" type="line" name="ab01"/>
      <point x="366" y="-30"/>
      <point x="236" y="13"/>
      <point x="165" y="103"/>
      <point x="141" y="244"/>
      <point x="141" y="342" type="qcurve" name="dh01"/>
      <point x="141" y="885" type="line"/>
      <point x="39" y="892" type="line"/>
      <point x="54" y="1004" type="line"/>
      <point x="141" y="1004" type="line" name="sh02"/>
      <point x="141" y="1292" type="line"/>
      <point x="308" y="1322" type="line"/>
    </contour>
  </outline>
</glyph>
<glyph name="latn:v" format="2">
  <advance width="768"/>
  <unicode hex="0076"/>
  <guideline x="524" y="0" angle="110"/>
  <guideline x="298" y="0" angle="110"/>
  <guideline x="470" y="0" angle="70"/>
  <guideline x="355" y="0" angle="70"/>
  <guideline x="365" y="0" angle="90"/>
  <anchor x="420" y="1100" name="AccentAbove"/>
  <anchor x="750" y="1100" name="AccentAboveRight"/>
  <anchor x="250" y="0" name="AccentBelow"/>
  <anchor x="320" y="486" name="AccentOverlay"/>
  <outline>
    <contour>
      <point x="249" y="1004" type="line" name="at01"/>
      <point x="440" y="308" type="line" name="iv01"/>
      <point x="629" y="1004" type="line" name="at02"/>
      <point x="736" y="974" type="line"/>
      <point x="470" y="0" type="line" name="ab01"/>
      <point x="298" y="0" type="line"/>
      <point x="32" y="974" type="line"/>
    </contour>
  </outline>
</glyph>
<glyph name="w" format="2">
  <advance width="1080"/>
  <unicode hex="0077"/>
  <guideline x="0" y="287" angle="0"/>
  <guideline x="674" y="0" angle="106"/>
  <guideline x="456" y="0" angle="106"/>
  <guideline x="846" y="0" angle="74"/>
  <guideline x="405" y="0" angle="74"/>
  <guideline x="734" y="0" angle="74"/>
  <guideline x="233" y="0" angle="106"/>
  <guideline x="896" y="0" angle="106"/>
  <guideline x="293" y="0" angle="74"/>
  <guideline x="570" y="0" angle="90"/>
  <anchor x="400" y="0" name="AccentBelow"/>
  <anchor x="600" y="1100" name="AccentDefault"/>
  <anchor x="420" y="486" name="AccentMiddle"/>
  <outline>
    <contour>
      <point x="681" y="1004" type="line" name="at01"/>
      <point x="815" y="368" type="line" name="iv01"/>
      <point x="950" y="1004" type="line" name="at02"/>
      <point x="1057" y="974" type="line"/>
      <point x="846" y="0" type="line" name="ab01"/>
      <point x="674" y="0" type="line"/>
      <point x="539" y="621" type="line" name="iv02"/>
      <point x="405" y="0" type="line" name="ab02"/>
      <point x="233" y="0" type="line"/>
      <point x="23" y="974" type="line"/>
      <point x="240" y="1004" type="line" name="at03"/>
      <point x="374" y="368" type="line" name="iv03"/>
      <point x="509" y="1004" type="line"/>
    </contour>
  </outline>
</glyph>
<glyph name="x" format="2">
  <advance width="768"/>
  <unicode hex="0078"/>
  <guideline x="0" y="835" angle="0"/>
  <guideline x="0" y="156" angle="0"/>
  <guideline x="39" y="0" angle="55"/>
  <guideline x="160" y="0" angle="55"/>
  <guideline x="755" y="0" angle="125"/>
  <guideline x="523" y="0" angle="125"/>
  <guideline x="368" y="0" angle="90"/>
  <guideline x="68" y="0" angle="90"/>
  <guideline x="674" y="0" angle="90"/>
  <anchor x="370" y="1100" name="AccentAbove"/>
  <anchor x="700" y="1100" name="AccentAboveRight"/>
  <anchor x="250" y="0" name="AccentBelow"/>
  <anchor x="320" y="486" name="AccentOverlay"/>
  <outline>
    <contour>
      <point x="228" y="1004" type="line" name="at01"/>
      <point x="398" y="683" type="line" name="iv01"/>
      <point x="566" y="1004" type="line" name="at02"/>
      <point x="671" y="974" type="line"/>
      <point x="458" y="569" type="line"/>
      <point x="755" y="0" type="line" name="iv02"/>
      <point x="539" y="-30" type="line" name="ab01"/>
      <point x="341" y="346" type="line" name="iv03"/>
      <point x="144" y="-30" type="line" name="ab02"/>
      <point x="39" y="0" type="line"/>
      <point x="281" y="460" type="line"/>
      <point x="12" y="974" type="line" name="iv04"/>
    </contour>
  </outline>
</glyph>
<glyph name="y" format="2">
  <advance width="720"/>
  <unicode hex="0079"/>
  <guideline x="455" y="0" angle="72"/>
  <guideline x="553" y="0" angle="112"/>
  <guideline x="342" y="0" angle="72"/>
  <guideline x="328" y="0" angle="112"/>
  <guideline x="37" y="0" angle="100"/>
  <guideline x="61" y="0" angle="90"/>
  <anchor x="420" y="1100" name="AccentAbove"/>
  <anchor x="750" y="1100" name="AccentAboveRight"/>
  <anchor x="200" y="-420" name="AccentBelow"/>
  <anchor x="320" y="486" name="AccentOverlay"/>
  <outline>
    <contour>
      <point x="251" y="1004" type="line" name="at01"/>
      <point x="436" y="385" type="line" name="iv01"/>
      <point x="587" y="1004" type="line" name="at02"/>
      <point x="692" y="974" type="line"/>
      <point x="448" y="-30" type="line"/>
      <point x="415" y="-167"/>
      <point x="341" y="-344"/>
      <point x="252" y="-449"/>
      <point x="143" y="-490"/>
      <point x="61" y="-490" type="qcurve" name="ab01"/>
      <point x="76" y="-378" type="line"/>
      <point x="116" y="-378"/>
      <point x="198" y="-340"/>
      <point x="263" y="-252"/>
      <point x="315" y="-109"/>
      <point x="341" y="-3" type="qcurve"/>
      <point x="31" y="974" type="line"/>
    </contour>
  </outline>
</glyph>
<glyph name="latn:z" format="2">
  <advance width="720"/>
  <unicode hex="007A"/>
  <guideline x="0" y="831" angle="3"/>
  <guideline x="-17" y="0" angle="55"/>
  <guideline x="226" y="0" angle="55"/>
  <guideline x="706" y="0" angle="90"/>
  <guideline x="-56" y="0" angle="80"/>
  <anchor x="420" y="1100" name="AccentAbove"/>
  <anchor x="750" y="1100" name="AccentAboveRight"/>
  <anchor x="320" y="0" name="AccentBelow"/>
  <anchor x="320" y="486" name="AccentOverlay"/>
  <outline>
    <contour>
      <point x="23" y="60" type="line" name="hr00"/>
      <point x="443" y="862" type="line"/>
      <point x="62" y="835" type="line"/>
      <point x="80" y="974" type="line"/>
      <point x="698" y="974" type="line"/>
      <point x="698" y="914" type="line"/>
      <point x="270" y="112" type="line"/>
      <point x="697" y="141" type="line"/>
      <point x="679" y="0" type="line"/>
      <point x="23" y="0" type="line"/>
    </contour>
  </outline>
</glyph>
<glyph name="sign:bar" format="2">
  <advance width="552"/>
  <unicode hex="007C"/>
  <outline>
    <contour>
      <point x="362" y="1682" type="line" name="av01"/>
      <point x="362" y="-278" type="line" name="dh02"/>
      <point x="173" y="-278" type="line" name="dh01"/>
      <point x="173" y="1682" type="line"/>
    </contour>
  </outline>
</glyph>
<glyph name="sign:exclamdown" format="2">
  <advance width="552"/>
  <unicode hex="00A1"/>
  <outline>
    <contour>
      <point x="412" y="599" type="line" name="hr00"/>
      <point x="487" y="-460" type="line"/>
      <point x="464" y="-490" type="line" name="ab01"/>
      <point x="245" y="-490" type="line"/>
      <point x="223" y="-460" type="line"/>
      <point x="298" y="599" type="line"/>
    </contour>
    <contour>
      <point x="464" y="858" type="qcurve"/>
      <point x="464" y="828"/>
      <point x="447" y="774"/>
      <point x="418" y="735"/>
      <point x="377" y="712"/>
      <point x="355" y="712" type="qcurve" name="sv01"/>
      <point x="332" y="712"/>
      <point x="292" y="735"/>
      <point x="263" y="774"/>
      <point x="245" y="828"/>
      <point x="245" y="858" type="qcurve"/>
      <point x="245" y="888"/>
      <point x="263" y="942"/>
      <point x="292" y="981"/>
      <point x="332" y="1004"/>
      <point x="355" y="1004" type="qcurve" name="at01"/>
      <point x="377" y="1004"/>
      <point x="418" y="981"/>
      <point x="447" y="942"/>
      <point x="464" y="888"/>
    </contour>
  </outline>
</glyph>
<glyph name="curr:sterling" format="2">
  <advance width="840"/>
  <unicode hex="00A3"/>
  <guideline x="0" y="722" angle="357.17"/>
  <guideline x="524" y="0" angle="80"/>
  <guideline x="686" y="0" angle="90"/>
  <outline>
    <contour>
      <point x="83" y="803" type="line" name="hr00"/>
      <point x="230" y="803" type="line" name="sh01"/>
      <point x="230" y="830"/>
      <point x="216" y="906"/>
      <point x="200" y="993" name="hr01"/>
      <point x="186" y="1086"/>
      <point x="186" y="1130" type="qcurve" name="dh01"/>
      <point x="186" y="1203"/>
      <point x="235" y="1325"/>
      <point x="318" y="1414"/>
      <point x="428" y="1464"/>
      <point x="488" y="1464" type="qcurve" name="at01"/>
      <point x="579" y="1464"/>
      <point x="716" y="1383" name="hr02"/>
      <point x="767" y="1311" type="qcurve"/>
      <point x="683" y="1201" type="line" name="iv01"/>
      <point x="674" y="1225"/>
      <point x="650" y="1278"/>
      <point x="614" y="1323"/>
      <point x="563" y="1352" name="hr03"/>
      <point x="527" y="1352" type="qcurve" name="sv01"/>
      <point x="467" y="1352"/>
      <point x="405" y="1228"/>
      <point x="405" y="1122" type="qcurve" name="dh02"/>
      <point x="405" y="1090"/>
      <point x="414" y="1003"/>
      <point x="425" y="913"/>
      <point x="434" y="830"/>
      <point x="434" y="803" type="qcurve" name="sh02"/>
      <point x="630" y="803" type="line"/>
      <point x="614" y="678" type="line"/>
      <point x="434" y="694" type="line" name="sh03"/>
      <point x="434" y="603"/>
      <point x="406" y="435"/>
      <point x="362" y="286"/>
      <point x="308" y="161"/>
      <point x="284" y="112" type="qcurve" name="ih01"/>
      <point x="360" y="104"/>
      <point x="482" y="82"/>
      <point x="525" y="82" type="qcurve" name="sv02"/>
      <point x="554" y="82"/>
      <point x="603" y="110"/>
      <point x="643" y="153"/>
      <point x="673" y="207"/>
      <point x="683" y="234" type="qcurve" name="iv02"/>
      <point x="768" y="122" type="line"/>
      <point x="755" y="103"/>
      <point x="718" y="51"/>
      <point x="659" y="3"/>
      <point x="574" y="-30"/>
      <point x="515" y="-30" type="qcurve" name="ab02"/>
      <point x="473" y="-30"/>
      <point x="407" y="-26"/>
      <point x="346" y="-19"/>
      <point x="287" y="-11"/>
      <point x="218" y="-4"/>
      <point x="137" y="0"/>
      <point x="86" y="0" type="qcurve" name="ab01"/>
      <point x="72" y="112" type="line"/>
      <point x="99" y="157"/>
      <point x="155" y="261"/>
      <point x="201" y="399"/>
      <point x="230" y="582"/>
      <point x="230" y="707" type="qcurve" name="sh04"/>
      <point x="72" y="718" type="line"/>
    </contour>
  </outline>
</glyph>
<glyph name="sign:brokenbar" format="2">
  <advance width="552"/>
  <unicode hex="00A6"/>
  <outline>
    <contour>
      <point x="362" y="1682" type="line" name="av01"/>
      <point x="362" y="848" type="line" name="dh02"/>
      <point x="173" y="848" type="line" name="dh01"/>
      <point x="173" y="1682" type="line"/>
    </contour>
    <contour>
      <point x="173" y="-278" type="line" name="sh01"/>
      <point x="173" y="556" type="line"/>
      <point x="362" y="556" type="line" name="sh02"/>
      <point x="362" y="-278" type="line"/>
    </contour>
  </outline>
</glyph>
<glyph name="sign:section" format="2">
  <advance width="768"/>
  <unicode hex="00A7"/>
  <guideline x="395" y="0" angle="90"/>
  <outline>
    <contour>
      <point x="308" y="554" type="qcurve" name="dh02"/>
      <point x="308" y="503"/>
      <point x="335" y="417" name="hr00"/>
      <point x="380" y="343"/>
      <point x="435" y="280"/>
      <point x="464" y="253" type="qcurve"/>
      <point x="508" y="310"/>
      <point x="508" y="419" type="qcurve" name="ih01"/>
      <point x="508" y="472"/>
      <point x="481" y="561"/>
      <point x="437" y="634" name="hr01"/>
      <point x="381" y="695"/>
      <point x="353" y="721" type="qcurve"/>
      <point x="332" y="694"/>
      <point x="308" y="608"/>
    </contour>
    <contour>
      <point x="662" y="-168" type="qcurve" name="dh04"/>
      <point x="662" y="-227"/>
      <point x="627" y="-342"/>
      <point x="560" y="-434"/>
      <point x="460" y="-490" name="hr02"/>
      <point x="395" y="-490" type="qcurve" name="ab01"/>
      <point x="299" y="-490"/>
      <point x="157" y="-404"/>
      <point x="110" y="-338" type="qcurve"/>
      <point x="196" y="-226" type="line" name="ih02"/>
      <point x="212" y="-265"/>
      <point x="256" y="-322"/>
      <point x="299" y="-360"/>
      <point x="341" y="-378"/>
      <point x="356" y="-378" type="qcurve" name="sv01"/>
      <point x="381" y="-378"/>
      <point x="425" y="-351"/>
      <point x="456" y="-308"/>
      <point x="473" y="-253"/>
      <point x="473" y="-224" type="qcurve" name="dh03"/>
      <point x="473" y="-159"/>
      <point x="440" y="-59"/>
      <point x="386" y="23"/>
      <point x="317" y="93"/>
      <point x="245" y="163"/>
      <point x="176" y="239"/>
      <point x="122" y="332"/>
      <point x="89" y="448"/>
      <point x="89" y="524" type="qcurve" name="dh01"/>
      <point x="89" y="577"/>
      <point x="114" y="668"/>
      <point x="157" y="746"/>
      <point x="214" y="813"/>
      <point x="247" y="843" type="qcurve"/>
      <point x="203" y="903"/>
      <point x="154" y="1050"/>
      <point x="154" y="1140" type="qcurve" name="ih03"/>
      <point x="154" y="1199"/>
      <point x="191" y="1315"/>
      <point x="260" y="1407"/>
      <point x="359" y="1464"/>
      <point x="421" y="1464" type="qcurve" name="at01"/>
      <point x="478" y="1464"/>
      <point x="564" y="1440"/>
      <point x="631" y="1398"/>
      <point x="683" y="1343"/>
      <point x="707" y="1312" type="qcurve"/>
      <point x="621" y="1200" type="line" name="ih04"/>
      <point x="608" y="1233"/>
      <point x="574" y="1288"/>
      <point x="533" y="1329"/>
      <point x="485" y="1352"/>
      <point x="458" y="1352" type="qcurve" name="sv02"/>
      <point x="431" y="1352"/>
      <point x="389" y="1325"/>
      <point x="359" y="1281"/>
      <point x="343" y="1225"/>
      <point x="343" y="1197" type="qcurve" name="sh01"/>
      <point x="343" y="1132"/>
      <point x="376" y="1031"/>
      <point x="430" y="949"/>
      <point x="499" y="879"/>
      <point x="571" y="809"/>
      <point x="640" y="734"/>
      <point x="694" y="641"/>
      <point x="727" y="524"/>
      <point x="727" y="448" type="qcurve" name="sh02"/>
      <point x="727" y="396"/>
      <point x="702" y="305"/>
      <point x="659" y="227"/>
      <point x="602" y="159"/>
      <point x="569" y="129" type="qcurve"/>
      <point x="612" y="70"/>
      <point x="662" y="-78"/>
    </contour>
  </outline>
</glyph>
<glyph name="guillemotleft" format="2">
  <advance width="768"/>
  <unicode hex="00AB"/>
  <guideline x="0" y="894" angle="0"/>
  <outline>
    <contour>
      <point x="279" y="906" type="line" name="av01"/>
      <point x="440" y="868" type="line"/>
      <point x="245" y="487" type="line"/>
      <point x="440" y="106" type="line"/>
      <point x="278" y="68" type="line" name="av03"/>
      <point x="32" y="487" type="line"/>
    </contour>
    <contour>
      <point x="575" y="906" type="line" name="av02"/>
      <point x="737" y="868" type="line"/>
      <point x="541" y="487" type="line"/>
      <point x="737" y="106" type="line"/>
      <point x="574" y="68" type="line" name="av04"/>
      <point x="328" y="487" type="line"/>
    </contour>
  </outline>
</glyph>
<glyph name="sign:registered" format="2">
  <advance width="1200"/>
  <unicode hex="00AE"/>
  <outline>
    <contour>
      <point x="39" y="716" type="qcurve" name="dh01"/>
      <point x="39" y="819"/>
      <point x="79" y="1010"/>
      <point x="152" y="1177"/>
      <point x="254" y="1313"/>
      <point x="379" y="1411"/>
      <point x="522" y="1464"/>
      <point x="599" y="1464" type="qcurve" name="at01"/>
      <point x="677" y="1464"/>
      <point x="821" y="1411"/>
      <point x="945" y="1313"/>
      <point x="1048" y="1177"/>
      <point x="1121" y="1010"/>
      <point x="1161" y="819"/>
      <point x="1161" y="716" type="qcurve" name="dh08"/>
      <point x="1161" y="613"/>
      <point x="1121" y="422"/>
      <point x="1048" y="256"/>
      <point x="945" y="120"/>
      <point x="821" y="23"/>
      <point x="677" y="-30"/>
      <point x="599" y="-30" type="qcurve" name="ab01"/>
      <point x="522" y="-30"/>
      <point x="379" y="23"/>
      <point x="254" y="120"/>
      <point x="152" y="256"/>
      <point x="79" y="422"/>
      <point x="39" y="613"/>
    </contour>
    <contour>
      <point x="131" y="718" type="qcurve" name="dh02"/>
      <point x="131" y="634"/>
      <point x="165" y="475"/>
      <point x="227" y="336"/>
      <point x="314" y="221"/>
      <point x="418" y="138"/>
      <point x="536" y="92"/>
      <point x="599" y="92" type="qcurve" name="sv01"/>
      <point x="662" y="92"/>
      <point x="781" y="138"/>
      <point x="886" y="221"/>
      <point x="972" y="336"/>
      <point x="1035" y="475"/>
      <point x="1070" y="634"/>
      <point x="1070" y="718" type="qcurve" name="dh07"/>
      <point x="1070" y="844"/>
      <point x="994" y="1070"/>
      <point x="864" y="1241"/>
      <point x="694" y="1342"/>
      <point x="599" y="1342" type="qcurve" name="sv02"/>
      <point x="536" y="1342"/>
      <point x="418" y="1296"/>
      <point x="314" y="1213"/>
      <point x="227" y="1098"/>
      <point x="165" y="959"/>
      <point x="131" y="802"/>
    </contour>
    <contour>
      <point x="523" y="1073" type="line" name="dh04"/>
      <point x="523" y="727" type="line"/>
      <point x="575" y="727" type="line"/>
      <point x="599" y="727"/>
      <point x="642" y="755"/>
      <point x="675" y="804"/>
      <point x="694" y="869"/>
      <point x="694" y="907" type="qcurve" name="dh05"/>
      <point x="694" y="943"/>
      <point x="674" y="1004"/>
      <point x="640" y="1048"/>
      <point x="598" y="1073"/>
      <point x="576" y="1073" type="qcurve" name="dv01"/>
    </contour>
    <contour>
      <point x="379" y="1155" type="line" name="dh03"/>
      <point x="587" y="1155" type="line" name="dv02"/>
      <point x="712" y="1155"/>
      <point x="838" y="1025"/>
      <point x="838" y="907" type="qcurve" name="dh06"/>
      <point x="838" y="855"/>
      <point x="801" y="775"/>
      <point x="747" y="718"/>
      <point x="685" y="681"/>
      <point x="659" y="672" type="qcurve"/>
      <point x="884" y="296" type="line" name="ih01"/>
      <point x="730" y="277" type="line"/>
      <point x="538" y="645" type="line"/>
      <point x="523" y="645" type="line" name="sh01"/>
      <point x="523" y="295" type="line"/>
      <point x="379" y="295" type="line"/>
    </contour>
  </outline>
</glyph>
<glyph name="sign:macron" format="2">
  <advance width="576"/>
  <unicode hex="00AF"/>
  <guideline x="-93" y="0" angle="80"/>
  <outline>
    <contour>
      <point x="78" y="1354" type="line" name="hr00"/>
      <point x="522" y="1354" type="line" name="dv02"/>
      <point x="498" y="1172" type="line" name="dv01"/>
      <point x="54" y="1172" type="line"/>
    </contour>
  </outline>
</glyph>
<glyph name="math:plusminus" format="2">
  <advance width="864"/>
  <unicode hex="00B1"/>
  <guideline x="710" y="0" angle="90"/>
  <outline>
    <contour>
      <point x="56" y="212" type="line" name="sv01"/>
      <point x="808" y="212" type="line"/>
      <point x="808" y="0" type="line" name="ab01"/>
      <point x="56" y="0" type="line"/>
    </contour>
    <contour>
      <point x="68" y="762" type="line" name="sv02"/>
      <point x="68" y="974" type="line" name="at01"/>
      <point x="353" y="974" type="line" name="dh01"/>
      <point x="353" y="1355" type="line" name="av01"/>
      <point x="512" y="1355" type="line"/>
      <point x="512" y="974" type="line" name="dh02"/>
      <point x="797" y="974" type="line"/>
      <point x="797" y="762" type="line" name="sv03"/>
      <point x="512" y="762" type="line" name="sh01"/>
      <point x="512" y="381" type="line"/>
      <point x="353" y="381" type="line" name="sh02"/>
      <point x="353" y="762" type="line" name="sv04"/>
    </contour>
  </outline>
</glyph>
<glyph name="sign:acute" format="2">
  <advance width="576"/>
  <unicode hex="00B4"/>
  <guideline x="1955" y="0" angle="90"/>
  <guideline x="508" y="0" angle="90"/>
  <outline>
    <contour>
      <point x="175" y="1219" type="line" name="hr00"/>
      <point x="386" y="1588" type="line" name="av01"/>
      <point x="419" y="1588" type="line"/>
      <point x="507" y="1470" type="line"/>
      <point x="507" y="1426" type="line"/>
      <point x="233" y="1138" type="line" name="av02"/>
    </contour>
  </outline>
</glyph>
<glyph name="sign:micro" format="2">
  <advance width="768"/>
  <unicode hex="00B5"/>
  <guideline x="207" y="0" angle="90"/>
  <outline>
    <contour>
      <point x="287" y="-460" type="line" name="sh02"/>
      <point x="120" y="-490" type="line" name="ab01"/>
      <point x="75" y="-490" type="line" name="sh01"/>
      <point x="75" y="974" type="line"/>
      <point x="242" y="1004" type="line" name="at01"/>
      <point x="287" y="1004" type="line" name="sh03"/>
      <point x="287" y="209" type="line"/>
      <point x="305" y="158"/>
      <point x="365" y="112"/>
      <point x="393" y="112" type="qcurve" name="sv01"/>
      <point x="430" y="112"/>
      <point x="477" y="158"/>
      <point x="503" y="208" type="qcurve" name="ah01"/>
      <point x="503" y="974" type="line"/>
      <point x="669" y="1004" type="line" name="at02"/>
      <point x="714" y="1004" type="line"/>
      <point x="714" y="165" type="line" name="sh04"/>
      <point x="714" y="117"/>
      <point x="737" y="82"/>
      <point x="768" y="82" type="qcurve"/>
      <point x="753" y="-30" type="line" name="ab02"/>
      <point x="703" y="-30"/>
      <point x="630" y="-11"/>
      <point x="578" y="21"/>
      <point x="545" y="61"/>
      <point x="535" y="82" type="qcurve" name="ih01"/>
      <point x="517" y="62"/>
      <point x="485" y="32"/>
      <point x="452" y="11"/>
      <point x="414" y="0"/>
      <point x="392" y="0" type="qcurve" name="ab03"/>
      <point x="382" y="0"/>
      <point x="355" y="6"/>
      <point x="326" y="19"/>
      <point x="298" y="40"/>
      <point x="287" y="55" type="qcurve" name="iv01"/>
    </contour>
  </outline>
</glyph>
<glyph name="periodcentered" format="2">
  <advance width="432"/>
  <unicode hex="00B7"/>
  <outline>
    <contour>
      <point x="95" y="497" type="qcurve" name="dh01"/>
      <point x="95" y="530"/>
      <point x="114" y="589"/>
      <point x="147" y="633"/>
      <point x="191" y="658"/>
      <point x="216" y="658" type="qcurve" name="dv02"/>
      <point x="241" y="658"/>
      <point x="285" y="633"/>
      <point x="318" y="589"/>
      <point x="337" y="530"/>
      <point x="337" y="497" type="qcurve" name="dh02"/>
      <point x="337" y="464"/>
      <point x="318" y="405"/>
      <point x="285" y="361"/>
      <point x="241" y="336"/>
      <point x="216" y="336" type="qcurve" name="dv01"/>
      <point x="191" y="336"/>
      <point x="147" y="361"/>
      <point x="114" y="405"/>
      <point x="95" y="464"/>
    </contour>
  </outline>
</glyph>
<glyph name="sign:cedilla" format="2">
  <advance width="576"/>
  <unicode hex="00B8"/>
  <guideline x="230" y="0" angle="70"/>
  <outline>
    <contour>
      <point x="234" y="15" type="line" name="sv01"/>
      <point x="371" y="15" type="line" name="ih01"/>
      <point x="346" y="-72" type="line"/>
      <point x="363" y="-75"/>
      <point x="410" y="-102"/>
      <point x="452" y="-149"/>
      <point x="481" y="-217"/>
      <point x="481" y="-262" type="qcurve" name="dh02"/>
      <point x="481" y="-318" name="hr00"/>
      <point x="449" y="-403"/>
      <point x="392" y="-461"/>
      <point x="318" y="-490"/>
      <point x="276" y="-490" type="qcurve" name="ab01"/>
      <point x="239" y="-490"/>
      <point x="181" y="-467"/>
      <point x="136" y="-433"/>
      <point x="104" y="-393"/>
      <point x="95" y="-375" type="qcurve"/>
      <point x="156" y="-266" type="line" name="iv01"/>
      <point x="169" y="-310"/>
      <point x="211" y="-369"/>
      <point x="245" y="-369" type="qcurve" name="sv02"/>
      <point x="263" y="-369"/>
      <point x="293" y="-348"/>
      <point x="316" y="-313"/>
      <point x="329" y="-267"/>
      <point x="329" y="-243" type="qcurve" name="dh01"/>
      <point x="329" y="-204"/>
      <point x="308" y="-153"/>
      <point x="272" y="-124"/>
      <point x="225" y="-113"/>
      <point x="199" y="-113" type="qcurve"/>
    </contour>
  </outline>
</glyph>
<glyph name="onesuperior" format="2">
  <advance width="552"/>
  <unicode hex="00B9"/>
  <guideline x="310" y="0" angle="100"/>
  <outline>
    <contour>
      <point x="403" y="1464" type="line" name="at01"/>
      <point x="403" y="586" type="line" name="dh02"/>
      <point x="266" y="586" type="line" name="dh01"/>
      <point x="266" y="1304" type="line" name="iv01"/>
      <point x="142" y="1271" type="line"/>
      <point x="130" y="1363" type="line"/>
      <point x="373" y="1464" type="line"/>
    </contour>
  </outline>
</glyph>
<glyph name="guillemotright" format="2">
  <advance width="768"/>
  <unicode hex="00BB"/>
  <guideline x="0" y="894" angle="0"/>
  <outline>
    <contour>
      <point x="489" y="906" type="line" name="av01"/>
      <point x="737" y="487" type="line"/>
      <point x="491" y="68" type="line" name="av03"/>
      <point x="328" y="106" type="line"/>
      <point x="524" y="487" type="line"/>
      <point x="328" y="868" type="line"/>
    </contour>
    <contour>
      <point x="193" y="906" type="line" name="av02"/>
      <point x="440" y="487" type="line"/>
      <point x="194" y="68" type="line" name="av04"/>
      <point x="32" y="106" type="line"/>
      <point x="227" y="487" type="line"/>
      <point x="32" y="868" type="line"/>
    </contour>
  </outline>
</glyph>
<glyph name="questiondown" format="2">
  <advance width="768"/>
  <unicode hex="00BF"/>
  <outline>
    <contour>
      <point x="320" y="1338" type="qcurve" name="sh01"/>
      <point x="320" y="1364"/>
      <point x="335" y="1410"/>
      <point x="360" y="1444"/>
      <point x="395" y="1464"/>
      <point x="414" y="1464" type="qcurve" name="at01"/>
      <point x="434" y="1464"/>
      <point x="468" y="1444"/>
      <point x="494" y="1410"/>
      <point x="509" y="1364"/>
      <point x="509" y="1338" type="qcurve" name="sh02"/>
      <point x="509" y="1312"/>
      <point x="494" y="1266"/>
      <point x="468" y="1232"/>
      <point x="434" y="1212"/>
      <point x="414" y="1212" type="qcurve" name="sv01"/>
      <point x="395" y="1212" name="hr00"/>
      <point x="360" y="1232"/>
      <point x="335" y="1266"/>
      <point x="320" y="1312"/>
    </contour>
    <contour>
      <point x="696" y="122" type="line"/>
      <point x="666" y="86"/>
      <point x="604" y="29"/>
      <point x="534" y="-10"/>
      <point x="456" y="-30"/>
      <point x="411" y="-30" type="qcurve" name="ab01"/>
      <point x="353" y="-30"/>
      <point x="251" y="10"/>
      <point x="175" y="85"/>
      <point x="131" y="193"/>
      <point x="131" y="260" type="qcurve" name="dh01"/>
      <point x="131" y="327"/>
      <point x="163" y="434"/>
      <point x="225" y="524"/>
      <point x="315" y="604"/>
      <point x="373" y="644" type="qcurve"/>
      <point x="402" y="664"/>
      <point x="440" y="708"/>
      <point x="461" y="754"/>
      <point x="470" y="800"/>
      <point x="470" y="823" type="qcurve" name="dh03"/>
      <point x="470" y="854"/>
      <point x="452" y="902"/>
      <point x="426" y="935"/>
      <point x="394" y="952"/>
      <point x="380" y="952" type="qcurve" name="dv01"/>
      <point x="343" y="952"/>
      <point x="298" y="914"/>
      <point x="281" y="888" type="qcurve" name="ih01"/>
      <point x="221" y="969" type="line"/>
      <point x="242" y="991"/>
      <point x="282" y="1026"/>
      <point x="327" y="1051"/>
      <point x="380" y="1064"/>
      <point x="412" y="1064" type="qcurve" name="dv02"/>
      <point x="455" y="1064"/>
      <point x="521" y="1022"/>
      <point x="567" y="952"/>
      <point x="591" y="862"/>
      <point x="591" y="815" type="qcurve" name="dh04"/>
      <point x="591" y="777"/>
      <point x="580" y="706"/>
      <point x="551" y="636"/>
      <point x="502" y="567"/>
      <point x="464" y="533" type="qcurve"/>
      <point x="389" y="464"/>
      <point x="320" y="323"/>
      <point x="320" y="242" type="qcurve" name="dh02"/>
      <point x="320" y="204"/>
      <point x="339" y="145"/>
      <point x="372" y="104"/>
      <point x="416" y="82"/>
      <point x="440" y="82" type="qcurve" name="sv02"/>
      <point x="464" y="82"/>
      <point x="513" y="104"/>
      <point x="559" y="144"/>
      <point x="598" y="200"/>
      <point x="611" y="234" type="qcurve" name="iv01"/>
    </contour>
  </outline>
</glyph>
<glyph name="latn:Ccedilla" format="2">
  <advance width="1008"/>
  <unicode hex="00C7"/>
  <outline>
    <contour>
      <point x="986" y="1235" type="qcurve" name="hr00"/>
      <point x="894" y="1113" type="line" name="iv01"/>
      <point x="838" y="1228"/>
      <point x="689" y="1342"/>
      <point x="597" y="1342" type="qcurve" name="sv01"/>
      <point x="526" y="1342"/>
      <point x="410" y="1256"/>
      <point x="329" y="1094"/>
      <point x="285" y="862"/>
      <point x="285" y="717" type="qcurve" name="dh02"/>
      <point x="285" y="571"/>
      <point x="329" y="340"/>
      <point x="410" y="178"/>
      <point x="526" y="92"/>
      <point x="597" y="92" type="qcurve"/>
      <point x="689" y="92"/>
      <point x="838" y="204"/>
      <point x="894" y="321" type="qcurve" name="iv02"/>
      <point x="986" y="199" type="line"/>
      <point x="955" y="157"/>
      <point x="886" y="84"/>
      <point x="807" y="25"/>
      <point x="718" y="-15"/>
      <point x="667" y="-24" type="qcurve"/>
      <point x="653" y="-72" type="line"/>
      <point x="671" y="-75"/>
      <point x="717" y="-102"/>
      <point x="759" y="-149"/>
      <point x="788" y="-217"/>
      <point x="788" y="-262" type="qcurve" name="dh04"/>
      <point x="788" y="-318"/>
      <point x="756" y="-403"/>
      <point x="700" y="-461"/>
      <point x="626" y="-490"/>
      <point x="584" y="-490" type="qcurve" name="ab01"/>
      <point x="547" y="-490"/>
      <point x="488" y="-467"/>
      <point x="443" y="-433"/>
      <point x="412" y="-393"/>
      <point x="402" y="-375" type="qcurve"/>
      <point x="464" y="-266" type="line" name="ih01"/>
      <point x="476" y="-310"/>
      <point x="518" y="-369"/>
      <point x="553" y="-369" type="qcurve" name="sv02"/>
      <point x="570" y="-369"/>
      <point x="601" y="-348"/>
      <point x="623" y="-313"/>
      <point x="637" y="-267"/>
      <point x="637" y="-243" type="qcurve" name="dh03"/>
      <point x="637" y="-204"/>
      <point x="616" y="-153"/>
      <point x="580" y="-124"/>
      <point x="533" y="-113"/>
      <point x="506" y="-113" type="qcurve" name="ih02"/>
      <point x="530" y="-24" type="line"/>
      <point x="435" y="-9"/>
      <point x="260" y="108"/>
      <point x="125" y="299"/>
      <point x="44" y="559"/>
      <point x="44" y="717" type="qcurve" name="dh01"/>
      <point x="44" y="832"/>
      <point x="87" y="1032"/>
      <point x="164" y="1198"/>
      <point x="269" y="1328"/>
      <point x="392" y="1417"/>
      <point x="528" y="1464"/>
      <point x="597" y="1464" type="qcurve" name="at01"/>
      <point x="662" y="1464"/>
      <point x="773" y="1430"/>
      <point x="869" y="1369"/>
      <point x="950" y="1285"/>
    </contour>
  </outline>
</glyph>
<glyph name="latn:Eth" format="2">
  <advance width="1128"/>
  <unicode hex="00D0"/>
  <guideline x="47" y="0" angle="90"/>
  <outline>
    <contour>
      <point x="99" y="1434" type="line" name="sh01"/>
      <point x="458" y="1434" type="line"/>
      <point x="602" y="1434"/>
      <point x="827" y="1336"/>
      <point x="984" y="1151"/>
      <point x="1067" y="885"/>
      <point x="1067" y="717" type="qcurve" name="sh02"/>
      <point x="1067" y="619"/>
      <point x="1028" y="436"/>
      <point x="953" y="277"/>
      <point x="848" y="145"/>
      <point x="714" y="52"/>
      <point x="555" y="0"/>
      <point x="466" y="0" type="qcurve" name="ab01"/>
      <point x="99" y="0" type="line" name="sh03"/>
      <point x="99" y="717" type="line" name="sv01"/>
      <point x="29" y="717" type="line"/>
      <point x="49" y="859" type="line" name="sv02"/>
      <point x="99" y="859" type="line"/>
    </contour>
    <contour>
      <point x="333" y="1302" type="line" name="sh04"/>
      <point x="333" y="859" type="line"/>
      <point x="591" y="859" type="line" name="dv02"/>
      <point x="572" y="717" type="line" name="dv01"/>
      <point x="333" y="717" type="line" name="sh05"/>
      <point x="333" y="132" type="line" name="sv03"/>
      <point x="445" y="132" type="line"/>
      <point x="536" y="132"/>
      <point x="678" y="226"/>
      <point x="775" y="386"/>
      <point x="825" y="598"/>
      <point x="825" y="717" type="qcurve" name="ah01"/>
      <point x="825" y="859"/>
      <point x="772" y="1078"/>
      <point x="672" y="1226"/>
      <point x="530" y="1302"/>
      <point x="440" y="1302" type="qcurve"/>
    </contour>
  </outline>
</glyph>
<glyph name="latn:Ostroke" format="2">
  <advance width="1200"/>
  <unicode hex="00D8"/>
  <outline>
    <contour>
      <point x="44" y="717" type="qcurve" name="sh01"/>
      <point x="44" y="832"/>
      <point x="89" y="1032"/>
      <point x="166" y="1198"/>
      <point x="272" y="1328"/>
      <point x="395" y="1417"/>
      <point x="531" y="1464"/>
      <point x="600" y="1464" type="qcurve" name="at01"/>
      <point x="688" y="1464"/>
      <point x="775" y="1426" type="qcurve"/>
      <point x="820" y="1559" type="line" name="av01"/>
      <point x="941" y="1529" type="line"/>
      <point x="883" y="1360" type="line"/>
      <point x="941" y="1314"/>
      <point x="1042" y="1185"/>
      <point x="1115" y="1022"/>
      <point x="1156" y="828"/>
      <point x="1156" y="717" type="qcurve" name="sh02"/>
      <point x="1156" y="602"/>
      <point x="1112" y="402"/>
      <point x="1034" y="236"/>
      <point x="929" y="106"/>
      <point x="806" y="17"/>
      <point x="669" y="-30"/>
      <point x="600" y="-30" type="qcurve" name="ab01"/>
      <point x="555" y="-30"/>
      <point x="468" y="-10"/>
      <point x="425" y="9" type="qcurve"/>
      <point x="380" y="-125" type="line" name="av02"/>
      <point x="260" y="-95" type="line"/>
      <point x="317" y="74" type="line"/>
      <point x="258" y="120"/>
      <point x="158" y="249"/>
      <point x="86" y="412"/>
      <point x="44" y="606"/>
    </contour>
    <contour>
      <point x="286" y="717" type="qcurve" name="sh03"/>
      <point x="286" y="569"/>
      <point x="335" y="337"/>
      <point x="379" y="256" type="qcurve" name="ih01"/>
      <point x="730" y="1293" type="line"/>
      <point x="669" y="1342"/>
      <point x="600" y="1342" type="qcurve" name="sv01"/>
      <point x="534" y="1342"/>
      <point x="419" y="1256"/>
      <point x="335" y="1095"/>
      <point x="286" y="863"/>
    </contour>
    <contour>
      <point x="600" y="92" type="qcurve" name="sv02"/>
      <point x="666" y="92"/>
      <point x="781" y="178"/>
      <point x="866" y="340"/>
      <point x="914" y="571"/>
      <point x="914" y="717" type="qcurve" name="ah01"/>
      <point x="914" y="864"/>
      <point x="865" y="1097"/>
      <point x="821" y="1178" type="qcurve" name="ih02"/>
      <point x="470" y="141" type="line"/>
      <point x="530" y="92"/>
    </contour>
  </outline>
</glyph>
<glyph name="latn:Thorn" format="2">
  <advance width="864"/>
  <unicode hex="00DE"/>
  <outline>
    <contour>
      <point x="99" y="1434" type="line" name="sh01"/>
      <point x="333" y="1464" type="line" name="sh02"/>
      <point x="333" y="1156" type="line" name="dv03"/>
      <point x="420" y="1156" type="line"/>
      <point x="527" y="1156"/>
      <point x="681" y="1083"/>
      <point x="779" y="961"/>
      <point x="826" y="802"/>
      <point x="826" y="717" type="qcurve" name="sh03"/>
      <point x="826" y="632"/>
      <point x="779" y="473"/>
      <point x="681" y="351"/>
      <point x="527" y="278"/>
      <point x="420" y="278" type="qcurve" name="dv01"/>
      <point x="333" y="278" type="line" name="sh04"/>
      <point x="333" y="0" type="line" name="ab01"/>
      <point x="99" y="0" type="line"/>
    </contour>
    <contour>
      <point x="333" y="1024" type="line" name="sh05"/>
      <point x="333" y="410" type="line"/>
      <point x="401" y="410" type="line" name="dv02"/>
      <point x="448" y="410"/>
      <point x="517" y="455"/>
      <point x="563" y="536"/>
      <point x="584" y="649"/>
      <point x="584" y="717" type="qcurve" name="ah01"/>
      <point x="584" y="785"/>
      <point x="563" y="898"/>
      <point x="517" y="979"/>
      <point x="448" y="1024"/>
      <point x="401" y="1024" type="qcurve"/>
    </contour>
  </outline>
</glyph>
<glyph name="latn:ccedilla" format="2">
  <advance width="768"/>
  <unicode hex="00E7"/>
  <outline>
    <contour>
      <point x="621" y="740" type="line" name="iv01"/>
      <point x="608" y="767"/>
      <point x="577" y="821"/>
      <point x="536" y="865"/>
      <point x="483" y="892"/>
      <point x="450" y="892" type="qcurve" name="sh01"/>
      <point x="413" y="892"/>
      <point x="347" y="836"/>
      <point x="297" y="731"/>
      <point x="269" y="581"/>
      <point x="269" y="487" type="qcurve" name="sh03"/>
      <point x="269" y="393"/>
      <point x="297" y="243"/>
      <point x="347" y="138"/>
      <point x="413" y="82"/>
      <point x="450" y="82" type="qcurve" name="sh04"/>
      <point x="486" y="82"/>
      <point x="539" y="109"/>
      <point x="578" y="152"/>
      <point x="608" y="206"/>
      <point x="621" y="234" type="qcurve" name="iv02"/>
      <point x="706" y="122" type="line"/>
      <point x="686" y="93"/>
      <point x="641" y="42"/>
      <point x="585" y="3"/>
      <point x="515" y="-24"/>
      <point x="471" y="-28" type="qcurve"/>
      <point x="458" y="-72" type="line"/>
      <point x="476" y="-75"/>
      <point x="522" y="-102"/>
      <point x="564" y="-149"/>
      <point x="593" y="-217"/>
      <point x="593" y="-262" type="qcurve" name="sh05"/>
      <point x="593" y="-318"/>
      <point x="561" y="-403"/>
      <point x="505" y="-461"/>
      <point x="431" y="-490"/>
      <point x="389" y="-490" type="qcurve" name="ab01"/>
      <point x="352" y="-490"/>
      <point x="293" y="-467"/>
      <point x="248" y="-433"/>
      <point x="217" y="-393"/>
      <point x="207" y="-375" type="qcurve"/>
      <point x="269" y="-266" type="line" name="sh06"/>
      <point x="281" y="-310"/>
      <point x="323" y="-369"/>
      <point x="358" y="-369" type="qcurve" name="sv01"/>
      <point x="375" y="-369"/>
      <point x="406" y="-348"/>
      <point x="428" y="-313"/>
      <point x="442" y="-267"/>
      <point x="442" y="-243" type="qcurve" name="ah01"/>
      <point x="442" y="-204"/>
      <point x="421" y="-153"/>
      <point x="385" y="-124"/>
      <point x="338" y="-113"/>
      <point x="311" y="-113" type="qcurve" name="ih01"/>
      <point x="338" y="-18" type="line"/>
      <point x="271" y="0"/>
      <point x="164" y="90"/>
      <point x="89" y="222"/>
      <point x="50" y="390"/>
      <point x="50" y="487" type="qcurve" name="sh02"/>
      <point x="50" y="599"/>
      <point x="103" y="789"/>
      <point x="202" y="927"/>
      <point x="341" y="1004"/>
      <point x="428" y="1004" type="qcurve" name="sh07"/>
      <point x="482" y="1004"/>
      <point x="566" y="980"/>
      <point x="633" y="939"/>
      <point x="685" y="883"/>
      <point x="706" y="852" type="qcurve"/>
    </contour>
  </outline>
</glyph>
<glyph name="eth" format="2">
  <advance width="840"/>
  <unicode hex="00F0"/>
  <guideline x="0" y="683" angle="40"/>
  <guideline x="0" y="508" angle="40"/>
  <guideline x="0" y="918" angle="40"/>
  <guideline x="1620" y="0" angle="130"/>
  <guideline x="1235" y="0" angle="130"/>
  <outline>
    <contour>
      <point x="420" y="760" type="qcurve" name="dv01"/>
      <point x="383" y="760"/>
      <point x="324" y="706"/>
      <point x="284" y="614"/>
      <point x="262" y="491"/>
      <point x="262" y="422" type="qcurve" name="dh02"/>
      <point x="262" y="350"/>
      <point x="284" y="225"/>
      <point x="324" y="134"/>
      <point x="383" y="82"/>
      <point x="420" y="82" type="qcurve" name="sv01"/>
      <point x="461" y="82"/>
      <point x="521" y="137"/>
      <point x="560" y="233"/>
      <point x="578" y="365"/>
      <point x="578" y="442" type="qcurve" name="dh03"/>
      <point x="578" y="499"/>
      <point x="561" y="612" name="hr00"/>
      <point x="523" y="703"/>
      <point x="463" y="760"/>
    </contour>
    <contour>
      <point x="797" y="565" type="qcurve" name="dh04"/>
      <point x="797" y="456"/>
      <point x="766" y="284"/>
      <point x="710" y="151"/>
      <point x="635" y="57"/>
      <point x="548" y="-2"/>
      <point x="451" y="-30"/>
      <point x="402" y="-30" type="qcurve" name="ab01"/>
      <point x="331" y="-30"/>
      <point x="201" y="40"/>
      <point x="102" y="164"/>
      <point x="43" y="333"/>
      <point x="43" y="432" type="qcurve" name="dh01"/>
      <point x="43" y="527"/>
      <point x="99" y="689"/>
      <point x="197" y="806"/>
      <point x="327" y="872"/>
      <point x="402" y="872" type="qcurve" name="dv02"/>
      <point x="426" y="872"/>
      <point x="480" y="862"/>
      <point x="534" y="843"/>
      <point x="584" y="814"/>
      <point x="604" y="796" type="qcurve" name="sh01"/>
      <point x="604" y="891"/>
      <point x="562" y="1067"/>
      <point x="519" y="1139" type="qcurve" name="ih01"/>
      <point x="398" y="1004" type="line" name="ih02"/>
      <point x="333" y="1107" type="line"/>
      <point x="454" y="1242" type="line"/>
      <point x="368" y="1381" type="line"/>
      <point x="469" y="1494" type="line" name="ih03"/>
      <point x="555" y="1356" type="line" name="ih04"/>
      <point x="680" y="1494" type="line" name="ih05"/>
      <point x="745" y="1391" type="line"/>
      <point x="621" y="1253" type="line"/>
      <point x="660" y="1192"/>
      <point x="725" y="1031"/>
      <point x="772" y="849"/>
      <point x="797" y="657"/>
    </contour>
  </outline>
</glyph>
<glyph name="math:divide" format="2">
  <advance width="864"/>
  <unicode hex="00F7"/>
  <outline>
    <contour>
      <point x="86" y="593" type="line" name="hr00"/>
      <point x="779" y="593" type="line" name="dv02"/>
      <point x="779" y="381" type="line" name="dv01"/>
      <point x="86" y="381" type="line"/>
    </contour>
    <contour>
      <point x="542" y="116" type="qcurve" name="dh02"/>
      <point x="542" y="86"/>
      <point x="524" y="32"/>
      <point x="495" y="-7"/>
      <point x="455" y="-30"/>
      <point x="432" y="-30" type="qcurve" name="ab01"/>
      <point x="410" y="-30"/>
      <point x="369" y="-7"/>
      <point x="340" y="32"/>
      <point x="323" y="86"/>
      <point x="323" y="116" type="qcurve" name="dh01"/>
      <point x="323" y="146"/>
      <point x="340" y="200"/>
      <point x="369" y="239"/>
      <point x="410" y="262"/>
      <point x="432" y="262" type="qcurve" name="sv01"/>
      <point x="455" y="262"/>
      <point x="495" y="239"/>
      <point x="524" y="200"/>
      <point x="542" y="146"/>
    </contour>
    <contour>
      <point x="542" y="858" type="qcurve" name="sh01"/>
      <point x="542" y="828"/>
      <point x="524" y="774"/>
      <point x="495" y="735"/>
      <point x="455" y="712"/>
      <point x="432" y="712" type="qcurve" name="sv02"/>
      <point x="410" y="712"/>
      <point x="369" y="735"/>
      <point x="340" y="774"/>
      <point x="323" y="828"/>
      <point x="323" y="858" type="qcurve" name="sh02"/>
      <point x="323" y="888"/>
      <point x="340" y="942"/>
      <point x="369" y="981"/>
      <point x="410" y="1004"/>
      <point x="432" y="1004" type="qcurve" name="at01"/>
      <point x="455" y="1004"/>
      <point x="495" y="981"/>
      <point x="524" y="942"/>
      <point x="542" y="888"/>
    </contour>
  </outline>
</glyph>
<glyph name="oslash" format="2">
  <advance width="840"/>
  <unicode hex="00F8"/>
  <guideline x="193" y="0" angle="66"/>
  <outline>
    <contour>
      <point x="420" y="1004" type="qcurve" name="at01"/>
      <point x="474" y="1004"/>
      <point x="523" y="989" type="qcurve"/>
      <point x="560" y="1099" type="line" name="av01"/>
      <point x="680" y="1069" type="line"/>
      <point x="633" y="928" type="line"/>
      <point x="713" y="861"/>
      <point x="798" y="633"/>
      <point x="798" y="487" type="qcurve" name="sh01"/>
      <point x="798" y="374"/>
      <point x="746" y="185"/>
      <point x="648" y="47"/>
      <point x="508" y="-30"/>
      <point x="420" y="-30" type="qcurve" name="ab01"/>
      <point x="365" y="-30"/>
      <point x="317" y="-15" type="qcurve"/>
      <point x="281" y="-125" type="line" name="av02"/>
      <point x="160" y="-95" type="line"/>
      <point x="207" y="46" type="line"/>
      <point x="128" y="113"/>
      <point x="42" y="341"/>
      <point x="42" y="487" type="qcurve" name="sh02"/>
      <point x="42" y="599"/>
      <point x="95" y="789"/>
      <point x="192" y="927"/>
      <point x="332" y="1004"/>
    </contour>
    <contour>
      <point x="420" y="82" type="qcurve" name="sv01"/>
      <point x="459" y="82"/>
      <point x="518" y="138"/>
      <point x="559" y="243"/>
      <point x="579" y="393"/>
      <point x="579" y="487" type="qcurve" name="ah01"/>
      <point x="579" y="615"/>
      <point x="560" y="708" type="qcurve" name="ih01"/>
      <point x="357" y="105" type="line"/>
      <point x="386" y="82"/>
    </contour>
    <contour>
      <point x="420" y="892" type="qcurve" name="sv02"/>
      <point x="381" y="892"/>
      <point x="322" y="836"/>
      <point x="281" y="731"/>
      <point x="261" y="581"/>
      <point x="261" y="487" type="qcurve" name="sh03"/>
      <point x="261" y="358"/>
      <point x="281" y="265" type="qcurve" name="ih02"/>
      <point x="482" y="869" type="line"/>
      <point x="455" y="892"/>
    </contour>
  </outline>
</glyph>
<glyph name="Aogonek" format="2">
  <advance width="1008"/>
  <unicode hex="0104"/>
  <guideline x="996" y="0" angle="90"/>
  <anchor x="500" y="1600" name="AccentDefault"/>
  <outline>
    <contour>
      <point x="1016" y="-418" type="line" name="hr00"/>
      <point x="996" y="-431"/>
      <point x="946" y="-450"/>
      <point x="912" y="-450" type="qcurve" name="dv01"/>
      <point x="867" y="-450"/>
      <point x="801" y="-415"/>
      <point x="758" y="-356"/>
      <point x="738" y="-280"/>
      <point x="738" y="-239" type="qcurve" name="dh01"/>
      <point x="738" y="-213"/>
      <point x="746" y="-160"/>
      <point x="767" y="-106"/>
      <point x="807" y="-49"/>
      <point x="839" y="-19" type="qcurve" name="ih01"/>
      <point x="752" y="-30" type="line"/>
      <point x="639" y="345" type="line" name="dv03"/>
      <point x="247" y="345" type="line"/>
      <point x="133" y="-30" type="line"/>
      <point x="11" y="0" type="line"/>
      <point x="446" y="1434" type="line"/>
      <point x="554" y="1464" type="line" name="at01"/>
      <point x="996" y="0" type="line"/>
      <point x="956" y="-25"/>
      <point x="901" y="-77"/>
      <point x="867" y="-129"/>
      <point x="852" y="-182"/>
      <point x="852" y="-209" type="qcurve" name="dh02"/>
      <point x="852" y="-232"/>
      <point x="865" y="-269"/>
      <point x="887" y="-294"/>
      <point x="913" y="-308"/>
      <point x="926" y="-308" type="qcurve" name="dv02"/>
      <point x="950" y="-308"/>
      <point x="983" y="-284"/>
      <point x="996" y="-270" type="qcurve"/>
    </contour>
    <contour>
      <point x="596" y="487" type="line" name="dv04"/>
      <point x="443" y="992" type="line"/>
      <point x="290" y="487" type="line"/>
    </contour>
  </outline>
</glyph>
<glyph name="latn:aogonek" format="2">
  <advance width="840"/>
  <unicode hex="0105"/>
  <guideline x="798" y="0" angle="90"/>
  <anchor x="440" y="1100" name="AccentAbove"/>
  <anchor x="770" y="1100" name="AccentAboveRight"/>
  <outline>
    <contour>
      <point x="96" y="852" type="line" name="hr00"/>
      <point x="164" y="924"/>
      <point x="331" y="1004"/>
      <point x="417" y="1004" type="qcurve" name="at01"/>
      <point x="480" y="1004"/>
      <point x="602" y="952"/>
      <point x="699" y="851"/>
      <point x="759" y="704"/>
      <point x="759" y="609" type="qcurve" name="sh01"/>
      <point x="759" y="150" type="line"/>
      <point x="759" y="116"/>
      <point x="785" y="82"/>
      <point x="813" y="82" type="qcurve" name="sv01"/>
      <point x="798" y="-30" type="line" name="ab01"/>
      <point x="787" y="-30"/>
      <point x="767" y="-30"/>
      <point x="757" y="-29" type="qcurve" name="ab02"/>
      <point x="701" y="-74"/>
      <point x="654" y="-163"/>
      <point x="654" y="-209" type="qcurve" name="dh04"/>
      <point x="654" y="-232"/>
      <point x="667" y="-269" name="hr01"/>
      <point x="689" y="-294"/>
      <point x="715" y="-308"/>
      <point x="728" y="-308" type="qcurve" name="dv02"/>
      <point x="752" y="-308"/>
      <point x="785" y="-284"/>
      <point x="798" y="-270" type="qcurve"/>
      <point x="818" y="-418" type="line"/>
      <point x="798" y="-431"/>
      <point x="748" y="-450"/>
      <point x="714" y="-450" type="qcurve" name="dv01"/>
      <point x="669" y="-450"/>
      <point x="603" y="-415"/>
      <point x="560" y="-356"/>
      <point x="540" y="-280"/>
      <point x="540" y="-239" type="qcurve" name="sh02"/>
      <point x="540" y="-212"/>
      <point x="549" y="-156"/>
      <point x="574" y="-98"/>
      <point x="619" y="-38"/>
      <point x="655" y="-6" type="qcurve" name="ih01"/>
      <point x="618" y="10"/>
      <point x="582" y="58"/>
      <point x="571" y="82" type="qcurve" name="ih02"/>
      <point x="551" y="60"/>
      <point x="504" y="20"/>
      <point x="446" y="-11"/>
      <point x="376" y="-30"/>
      <point x="335" y="-30" type="qcurve" name="ab03"/>
      <point x="281" y="-30"/>
      <point x="182" y="6"/>
      <point x="106" y="75"/>
      <point x="62" y="175"/>
      <point x="62" y="239" type="qcurve" name="dh01"/>
      <point x="62" y="323"/>
      <point x="131" y="455"/>
      <point x="259" y="546"/>
      <point x="438" y="596"/>
      <point x="548" y="599" type="qcurve" name="sh03"/>
      <point x="548" y="668" type="line"/>
      <point x="548" y="717"/>
      <point x="530" y="799"/>
      <point x="493" y="859"/>
      <point x="438" y="892"/>
      <point x="402" y="892" type="qcurve" name="sv02"/>
      <point x="381" y="892"/>
      <point x="326" y="875"/>
      <point x="267" y="838"/>
      <point x="206" y="780"/>
      <point x="180" y="740" type="qcurve" name="ih03"/>
    </contour>
    <contour>
      <point x="548" y="497" type="line"/>
      <point x="489" y="492"/>
      <point x="391" y="454"/>
      <point x="320" y="390"/>
      <point x="281" y="303"/>
      <point x="281" y="250" type="qcurve" name="dh02"/>
      <point x="281" y="200"/>
      <point x="303" y="135"/>
      <point x="337" y="97"/>
      <point x="377" y="82"/>
      <point x="395" y="82" type="qcurve" name="sv03"/>
      <point x="416" y="82"/>
      <point x="461" y="102"/>
      <point x="502" y="135"/>
      <point x="536" y="177"/>
      <point x="548" y="199" type="qcurve" name="dh03"/>
    </contour>
  </outline>
</glyph>
<glyph name="latn:Dstroke" format="2">
  <advance width="1128"/>
  <unicode hex="0110"/>
  <outline>
    <contour>
      <point x="99" y="1434" type="line" name="sh01"/>
      <point x="455" y="1434" type="line"/>
      <point x="599" y="1434"/>
      <point x="826" y="1336"/>
      <point x="983" y="1151"/>
      <point x="1067" y="885"/>
      <point x="1067" y="717" type="qcurve" name="sh02"/>
      <point x="1067" y="619"/>
      <point x="1027" y="436"/>
      <point x="953" y="277"/>
      <point x="846" y="145"/>
      <point x="712" y="52"/>
      <point x="553" y="0"/>
      <point x="463" y="0" type="qcurve" name="ab01"/>
      <point x="99" y="0" type="line" name="sh03"/>
      <point x="99" y="717" type="line" name="sv01"/>
      <point x="23" y="717" type="line"/>
      <point x="41" y="859" type="line" name="sv02"/>
      <point x="99" y="859" type="line"/>
    </contour>
    <contour>
      <point x="333" y="1302" type="line" name="sh04"/>
      <point x="333" y="859" type="line"/>
      <point x="659" y="859" type="line" name="dv02"/>
      <point x="641" y="717" type="line" name="dv01"/>
      <point x="333" y="717" type="line" name="sh05"/>
      <point x="333" y="132" type="line" name="sv03"/>
      <point x="442" y="132" type="line"/>
      <point x="533" y="132"/>
      <point x="676" y="226"/>
      <point x="774" y="386"/>
      <point x="825" y="598"/>
      <point x="825" y="717" type="qcurve" name="ah01"/>
      <point x="825" y="859"/>
      <point x="771" y="1078"/>
      <point x="670" y="1226"/>
      <point x="527" y="1302"/>
      <point x="437" y="1302" type="qcurve"/>
    </contour>
  </outline>
</glyph>
<glyph name="dcroat" format="2">
  <advance width="840"/>
  <unicode hex="0111"/>
  <guideline x="778" y="0" angle="90"/>
  <outline>
    <contour>
      <point x="393" y="1004" type="qcurve" name="at01"/>
      <point x="416" y="1004"/>
      <point x="464" y="988"/>
      <point x="509" y="966"/>
      <point x="545" y="941"/>
      <point x="554" y="931" type="qcurve" name="iv01"/>
      <point x="554" y="1149" type="line" name="ah01"/>
      <point x="392" y="1159" type="line"/>
      <point x="407" y="1271" type="line"/>
      <point x="554" y="1271" type="line" name="sh01"/>
      <point x="554" y="1464" type="line"/>
      <point x="720" y="1494" type="line" name="av01"/>
      <point x="765" y="1494" type="line" name="sh03"/>
      <point x="765" y="1271" type="line"/>
      <point x="859" y="1271" type="line"/>
      <point x="840" y="1132" type="line"/>
      <point x="765" y="1136" type="line" name="sh02"/>
      <point x="765" y="156" type="line"/>
      <point x="765" y="120"/>
      <point x="788" y="82"/>
      <point x="819" y="82" type="qcurve" name="sv02"/>
      <point x="804" y="-30" type="line" name="ab01"/>
      <point x="755" y="-30"/>
      <point x="682" y="-16"/>
      <point x="627" y="11"/>
      <point x="589" y="53"/>
      <point x="576" y="82" type="qcurve" name="ih01"/>
      <point x="561" y="56"/>
      <point x="520" y="15"/>
      <point x="472" y="-14"/>
      <point x="419" y="-30"/>
      <point x="392" y="-30" type="qcurve" name="ab02"/>
      <point x="320" y="-30"/>
      <point x="192" y="41"/>
      <point x="97" y="174"/>
      <point x="42" y="366"/>
      <point x="42" y="487" type="qcurve" name="sh04"/>
      <point x="42" y="602"/>
      <point x="95" y="792"/>
      <point x="190" y="929"/>
      <point x="318" y="1004"/>
    </contour>
    <contour>
      <point x="554" y="821" type="line" name="sh05"/>
      <point x="534" y="852"/>
      <point x="474" y="892"/>
      <point x="429" y="892" type="qcurve" name="sv01"/>
      <point x="392" y="892"/>
      <point x="330" y="834"/>
      <point x="286" y="728"/>
      <point x="261" y="578"/>
      <point x="261" y="487" type="qcurve" name="sh06"/>
      <point x="261" y="386"/>
      <point x="290" y="234"/>
      <point x="338" y="133"/>
      <point x="398" y="82"/>
      <point x="429" y="82" type="qcurve" name="sv03"/>
      <point x="475" y="82"/>
      <point x="534" y="123"/>
      <point x="554" y="152" type="qcurve"/>
    </contour>
  </outline>
</glyph>
<glyph name="eogonek" format="2">
  <advance width="768"/>
  <unicode hex="0119"/>
  <guideline x="307" y="0" angle="135"/>
  <anchor x="400" y="1100" name="AccentDefault"/>
  <outline>
    <contour>
      <point x="571" y="-418" type="line" name="hr00"/>
      <point x="551" y="-431"/>
      <point x="501" y="-450"/>
      <point x="467" y="-450" type="qcurve" name="dv01"/>
      <point x="422" y="-450"/>
      <point x="356" y="-415"/>
      <point x="314" y="-356"/>
      <point x="293" y="-280"/>
      <point x="293" y="-239" type="qcurve" name="dh03"/>
      <point x="293" y="-217"/>
      <point x="302" y="-165"/>
      <point x="322" y="-110"/>
      <point x="356" y="-56"/>
      <point x="382" y="-30" type="qcurve" name="ih01"/>
      <point x="346" y="-30"/>
      <point x="267" y="-2"/>
      <point x="191" y="54"/>
      <point x="124" y="138"/>
      <point x="72" y="252"/>
      <point x="42" y="398"/>
      <point x="42" y="487" type="qcurve" name="dh01"/>
      <point x="42" y="599"/>
      <point x="95" y="789"/>
      <point x="194" y="927"/>
      <point x="334" y="1004"/>
      <point x="420" y="1004" type="qcurve" name="at01"/>
      <point x="474" y="1004"/>
      <point x="583" y="949"/>
      <point x="671" y="827"/>
      <point x="726" y="629"/>
      <point x="726" y="487" type="qcurve" name="dh06"/>
      <point x="254" y="487" type="line" name="dh02"/>
      <point x="254" y="371"/>
      <point x="287" y="215"/>
      <point x="339" y="121"/>
      <point x="404" y="82"/>
      <point x="435" y="82" type="qcurve" name="sv01"/>
      <point x="465" y="82"/>
      <point x="517" y="109"/>
      <point x="560" y="152"/>
      <point x="593" y="206"/>
      <point x="606" y="234" type="qcurve" name="ih02"/>
      <point x="691" y="122" type="line"/>
      <point x="665" y="83"/>
      <point x="596" y="20"/>
      <point x="551" y="0" type="qcurve"/>
      <point x="512" y="-25"/>
      <point x="456" y="-76"/>
      <point x="422" y="-129"/>
      <point x="407" y="-182"/>
      <point x="407" y="-209" type="qcurve" name="dh04"/>
      <point x="407" y="-232"/>
      <point x="420" y="-269"/>
      <point x="442" y="-294"/>
      <point x="468" y="-308"/>
      <point x="482" y="-308" type="qcurve" name="dv02"/>
      <point x="505" y="-308"/>
      <point x="539" y="-284"/>
      <point x="551" y="-270" type="qcurve" name="sh01"/>
    </contour>
    <contour>
      <point x="413" y="892" type="qcurve" name="sv02"/>
      <point x="383" y="892"/>
      <point x="326" y="855"/>
      <point x="281" y="781"/>
      <point x="254" y="671"/>
      <point x="254" y="599" type="qcurve" name="sh02"/>
      <point x="545" y="599" type="line" name="dh05"/>
      <point x="545" y="677"/>
      <point x="524" y="789"/>
      <point x="488" y="859"/>
      <point x="440" y="892"/>
    </contour>
  </outline>
</glyph>
<glyph name="latn:Hstroke" format="2">
  <advance width="1128"/>
  <unicode hex="0126"/>
  <guideline x="24" y="0" angle="90"/>
  <guideline x="-117" y="0" angle="80"/>
  <guideline x="1104" y="0" angle="90"/>
  <outline>
    <contour>
      <point x="99" y="1434" type="line" name="sh01"/>
      <point x="333" y="1464" type="line" name="sh02"/>
      <point x="333" y="1146" type="line" name="sv01"/>
      <point x="795" y="1146" type="line" name="ah01"/>
      <point x="795" y="1434" type="line"/>
      <point x="1029" y="1464" type="line" name="at01"/>
      <point x="1029" y="1146" type="line" name="sh03"/>
      <point x="1104" y="1146" type="line" name="dv02"/>
      <point x="1086" y="1004" type="line" name="dv01"/>
      <point x="1029" y="1004" type="line" name="sh04"/>
      <point x="1029" y="0" type="line" name="ab01"/>
      <point x="795" y="0" type="line" name="sh05"/>
      <point x="795" y="575" type="line" name="dv03"/>
      <point x="333" y="575" type="line" name="sh06"/>
      <point x="333" y="0" type="line" name="ab02"/>
      <point x="99" y="0" type="line" name="sh07"/>
      <point x="99" y="1004" type="line" name="sv02"/>
      <point x="24" y="1004" type="line"/>
      <point x="42" y="1146" type="line" name="sv03"/>
      <point x="99" y="1146" type="line"/>
    </contour>
    <contour>
      <point x="795" y="717" type="line" name="sh08"/>
      <point x="795" y="1004" type="line" name="sv04"/>
      <point x="333" y="1004" type="line" name="sh09"/>
      <point x="333" y="717" type="line"/>
    </contour>
  </outline>
</glyph>
<glyph name="latn:Iogonek" format="2">
  <advance width="432"/>
  <unicode hex="012E"/>
  <anchor x="240" y="1600" name="AccentAbove"/>
  <anchor x="370" y="1600" name="AccentAboveRight"/>
  <outline>
    <contour>
      <point x="353" y="-418" type="line" name="hr00"/>
      <point x="333" y="-431"/>
      <point x="283" y="-450" name="hr01"/>
      <point x="249" y="-450" type="qcurve" name="dv01"/>
      <point x="204" y="-450"/>
      <point x="138" y="-415"/>
      <point x="95" y="-356"/>
      <point x="75" y="-280"/>
      <point x="75" y="-239" type="qcurve" name="dh01"/>
      <point x="75" y="-211" name="hr02"/>
      <point x="84" y="-154"/>
      <point x="110" y="-94"/>
      <point x="158" y="-33"/>
      <point x="197" y="0" type="qcurve" name="ab01"/>
      <point x="99" y="0" type="line" name="ih01"/>
      <point x="99" y="1434" type="line"/>
      <point x="333" y="1464" type="line" name="at01"/>
      <point x="333" y="0" type="line" name="sh01"/>
      <point x="293" y="-25"/>
      <point x="238" y="-77"/>
      <point x="204" y="-129"/>
      <point x="189" y="-182"/>
      <point x="189" y="-209" type="qcurve" name="dh02"/>
      <point x="189" y="-232"/>
      <point x="202" y="-269"/>
      <point x="224" y="-294"/>
      <point x="250" y="-308"/>
      <point x="263" y="-308" type="qcurve" name="dv02"/>
      <point x="287" y="-308"/>
      <point x="320" y="-284"/>
      <point x="333" y="-270" type="qcurve" name="sh02"/>
    </contour>
  </outline>
</glyph>
<glyph name="latn:idotless" format="2">
  <advance width="432"/>
  <unicode hex="0131"/>
  <anchor x="240" y="1100" name="AccentAbove"/>
  <anchor x="270" y="1200" name="AccentAboveRight"/>
  <anchor x="219" y="0" name="AccentAttachedBelow"/>
  <anchor x="120" y="0" name="AccentBelow"/>
  <anchor x="190" y="486" name="AccentOverlay"/>
  <outline>
    <contour>
      <point x="110" y="974" type="line" name="dh01"/>
      <point x="277" y="1004" type="line" name="at01"/>
      <point x="322" y="1004" type="line" name="dh02"/>
      <point x="322" y="0" type="line" name="ab01"/>
      <point x="110" y="0" type="line"/>
    </contour>
  </outline>
</glyph>
<glyph name="latn:jcircumflex" format="2">
  <advance width="432"/>
  <unicode hex="0135"/>
  <outline>
    <contour>
      <point x="139" y="1464" type="line" name="at01"/>
      <point x="295" y="1464" type="line"/>
      <point x="458" y="1129" type="line"/>
      <point x="368" y="1099" type="line"/>
      <point x="217" y="1302" type="line" name="ih01"/>
      <point x="66" y="1099" type="line"/>
      <point x="-25" y="1129" type="line"/>
    </contour>
    <contour>
      <point x="114" y="974" type="line" name="dh01"/>
      <point x="281" y="1004" type="line" name="at02"/>
      <point x="326" y="1004" type="line" name="dh02"/>
      <point x="326" y="-76" type="line"/>
      <point x="326" y="-202"/>
      <point x="290" y="-362"/>
      <point x="215" y="-455"/>
      <point x="96" y="-490"/>
      <point x="13" y="-490" type="qcurve" name="ab01"/>
      <point x="28" y="-378" type="line"/>
      <point x="53" y="-378"/>
      <point x="86" y="-363"/>
      <point x="106" y="-323"/>
      <point x="114" y="-250"/>
      <point x="114" y="-191" type="qcurve"/>
    </contour>
  </outline>
</glyph>
<glyph name="Lslash" format="2">
  <advance width="816"/>
  <unicode hex="0141"/>
  <guideline x="0" y="468" angle="30"/>
  <guideline x="0" y="678" angle="30"/>
  <guideline x="457" y="0" angle="90"/>
  <guideline x="40" y="0" angle="90"/>
  <guideline x="543" y="0" angle="100"/>
  <outline>
    <contour>
      <point x="98" y="1434" type="line" name="dh01"/>
      <point x="332" y="1464" type="line" name="dh02"/>
      <point x="332" y="936" type="line" name="iv01"/>
      <point x="419" y="1004" type="line" name="iv02"/>
      <point x="445" y="813" type="line"/>
      <point x="332" y="725" type="line" name="sh01"/>
      <point x="332" y="122" type="line"/>
      <point x="760" y="162" type="line"/>
      <point x="737" y="0" type="line" name="ab01"/>
      <point x="98" y="0" type="line" name="sh02"/>
      <point x="98" y="544" type="line" name="iv03"/>
      <point x="24" y="487" type="line" name="iv04"/>
      <point x="0" y="678" type="line"/>
      <point x="98" y="754" type="line"/>
    </contour>
  </outline>
</glyph>
<glyph name="lslash" format="2">
  <advance width="432"/>
  <unicode hex="0142"/>
  <guideline x="0" y="476" angle="30"/>
  <guideline x="0" y="694" angle="30"/>
  <outline>
    <contour>
      <point x="313" y="1494" type="line" name="sh01"/>
      <point x="313" y="935" type="line" name="iv01"/>
      <point x="402" y="1004" type="line" name="iv02"/>
      <point x="427" y="806" type="line"/>
      <point x="313" y="717" type="line"/>
      <point x="313" y="269" type="line" name="dh02"/>
      <point x="313" y="221"/>
      <point x="326" y="151"/>
      <point x="358" y="104"/>
      <point x="409" y="82"/>
      <point x="447" y="82" type="qcurve" name="sv01"/>
      <point x="432" y="-30" type="line" name="ab01"/>
      <point x="326" y="-30"/>
      <point x="196" y="13"/>
      <point x="125" y="103"/>
      <point x="101" y="244"/>
      <point x="101" y="342" type="qcurve" name="dh01"/>
      <point x="101" y="554" type="line" name="iv03"/>
      <point x="12" y="485" type="line" name="iv04"/>
      <point x="-13" y="683" type="line"/>
      <point x="101" y="771" type="line" name="sh02"/>
      <point x="101" y="1464" type="line"/>
      <point x="268" y="1494" type="line"/>
    </contour>
  </outline>
</glyph>
<glyph name="latn:Eng" format="2">
  <advance width="1128"/>
  <unicode hex="014A"/>
  <guideline x="874" y="0" angle="80"/>
  <outline>
    <contour>
      <point x="96" y="1434" type="line" name="sh01"/>
      <point x="218" y="1464" type="line" name="sh02"/>
      <point x="911" y="437" type="line" name="sh03"/>
      <point x="911" y="1464" type="line" name="at01"/>
      <point x="1034" y="1434" type="line"/>
      <point x="1034" y="-76" type="line" name="sh04"/>
      <point x="1034" y="-198"/>
      <point x="1010" y="-358"/>
      <point x="959" y="-452"/>
      <point x="880" y="-490"/>
      <point x="809" y="-490" type="qcurve" name="ab01"/>
      <point x="824" y="-378" type="line"/>
      <point x="863" y="-378"/>
      <point x="911" y="-285"/>
      <point x="911" y="-191" type="qcurve"/>
      <point x="911" y="0" type="line" name="ah01"/>
      <point x="218" y="1026" type="line" name="sh05"/>
      <point x="218" y="0" type="line" name="ab02"/>
      <point x="96" y="0" type="line"/>
    </contour>
  </outline>
</glyph>
<glyph name="eng" format="2">
  <advance width="840"/>
  <unicode hex="014B"/>
  <outline>
    <contour>
      <point x="75" y="944" type="line" name="sh01"/>
      <point x="242" y="974" type="line" name="at01"/>
      <point x="287" y="974" type="line" name="sh02"/>
      <point x="287" y="892" type="line" name="iv01"/>
      <point x="306" y="914"/>
      <point x="354" y="955"/>
      <point x="408" y="986"/>
      <point x="465" y="1004"/>
      <point x="494" y="1004" type="qcurve" name="at02"/>
      <point x="555" y="1004"/>
      <point x="653" y="960"/>
      <point x="722" y="877"/>
      <point x="759" y="756"/>
      <point x="759" y="680" type="qcurve" name="hr00"/>
      <point x="759" y="-76" type="line" name="sh03"/>
      <point x="759" y="-198"/>
      <point x="725" y="-358"/>
      <point x="652" y="-452"/>
      <point x="538" y="-490"/>
      <point x="446" y="-490" type="qcurve" name="ab01"/>
      <point x="461" y="-378" type="line"/>
      <point x="486" y="-378"/>
      <point x="520" y="-363"/>
      <point x="540" y="-322"/>
      <point x="548" y="-249"/>
      <point x="548" y="-191" type="qcurve" name="ah01"/>
      <point x="548" y="724" type="line"/>
      <point x="548" y="802"/>
      <point x="498" y="892"/>
      <point x="448" y="892" type="qcurve" name="sv01"/>
      <point x="423" y="892"/>
      <point x="374" y="868"/>
      <point x="331" y="832"/>
      <point x="296" y="789"/>
      <point x="287" y="770" type="qcurve" name="sh04"/>
      <point x="287" y="0" type="line" name="ab02"/>
      <point x="75" y="0" type="line"/>
    </contour>
  </outline>
</glyph>
<glyph name="OE" format="2">
  <advance width="1416"/>
  <unicode hex="0152"/>
  <outline>
    <contour>
      <point x="602" y="-30" type="qcurve" name="ab02"/>
      <point x="533" y="-30"/>
      <point x="398" y="17"/>
      <point x="276" y="106"/>
      <point x="173" y="236"/>
      <point x="97" y="402"/>
      <point x="54" y="602"/>
      <point x="54" y="717" type="qcurve" name="sh01"/>
      <point x="54" y="832"/>
      <point x="97" y="1032"/>
      <point x="173" y="1198"/>
      <point x="276" y="1328"/>
      <point x="398" y="1417"/>
      <point x="533" y="1464"/>
      <point x="602" y="1464" type="qcurve" name="at02"/>
      <point x="641" y="1464"/>
      <point x="719" y="1448"/>
      <point x="757" y="1434" type="qcurve" name="at01"/>
      <point x="1340" y="1434" type="line"/>
      <point x="1319" y="1272" type="line" name="hr00"/>
      <point x="934" y="1312" type="line" name="sh03"/>
      <point x="934" y="839" type="line" name="dv02"/>
      <point x="1260" y="839" type="line"/>
      <point x="1244" y="717" type="line"/>
      <point x="934" y="717" type="line" name="dv01"/>
      <point x="934" y="122" type="line" name="sh02"/>
      <point x="1362" y="162" type="line"/>
      <point x="1340" y="0" type="line" name="ab01"/>
      <point x="758" y="0" type="line"/>
      <point x="682" y="-30"/>
    </contour>
    <contour>
      <point x="602" y="1342" type="qcurve" name="sv01"/>
      <point x="536" y="1342"/>
      <point x="424" y="1256"/>
      <point x="342" y="1095"/>
      <point x="296" y="863"/>
      <point x="296" y="717" type="qcurve" name="sh04"/>
      <point x="296" y="571"/>
      <point x="342" y="339"/>
      <point x="424" y="178"/>
      <point x="536" y="92"/>
      <point x="602" y="92" type="qcurve" name="sv02"/>
      <point x="655" y="92"/>
      <point x="700" y="117" type="qcurve" name="ah01"/>
      <point x="700" y="1316" type="line"/>
      <point x="653" y="1342"/>
    </contour>
  </outline>
</glyph>
<glyph name="latn:Scedilla" format="2">
  <advance width="864"/>
  <unicode hex="015E"/>
  <outline>
    <contour>
      <point x="768" y="1235" type="qcurve" name="hr00"/>
      <point x="677" y="1113" type="line" name="ih02"/>
      <point x="661" y="1153"/>
      <point x="617" y="1229"/>
      <point x="563" y="1287"/>
      <point x="499" y="1322"/>
      <point x="462" y="1322" type="qcurve" name="sv01"/>
      <point x="437" y="1322"/>
      <point x="386" y="1296"/>
      <point x="345" y="1247"/>
      <point x="320" y="1177" name="hr01"/>
      <point x="320" y="1134" type="qcurve" name="dh02"/>
      <point x="320" y="1084"/>
      <point x="339" y="1005"/>
      <point x="386" y="938"/>
      <point x="464" y="880"/>
      <point x="523" y="852" type="qcurve"/>
      <point x="656" y="788"/>
      <point x="791" y="570" name="hr02"/>
      <point x="791" y="409" type="qcurve" name="sh01"/>
      <point x="791" y="330"/>
      <point x="748" y="187"/>
      <point x="669" y="72"/>
      <point x="557" y="-7"/>
      <point x="488" y="-22" type="qcurve"/>
      <point x="473" y="-72" type="line"/>
      <point x="491" y="-75"/>
      <point x="537" y="-102"/>
      <point x="579" y="-149"/>
      <point x="608" y="-217"/>
      <point x="608" y="-262" type="qcurve" name="dh04"/>
      <point x="608" y="-318"/>
      <point x="576" y="-403"/>
      <point x="520" y="-461"/>
      <point x="446" y="-490"/>
      <point x="404" y="-490" type="qcurve" name="ab01"/>
      <point x="367" y="-490"/>
      <point x="308" y="-467"/>
      <point x="263" y="-433"/>
      <point x="232" y="-393"/>
      <point x="222" y="-375" type="qcurve"/>
      <point x="284" y="-266" type="line" name="ih03"/>
      <point x="296" y="-311"/>
      <point x="338" y="-369"/>
      <point x="373" y="-369" type="qcurve" name="sv02"/>
      <point x="390" y="-369"/>
      <point x="421" y="-348"/>
      <point x="443" y="-313"/>
      <point x="457" y="-267"/>
      <point x="457" y="-243" type="qcurve" name="dh03"/>
      <point x="457" y="-204"/>
      <point x="436" y="-153"/>
      <point x="400" y="-124"/>
      <point x="353" y="-113"/>
      <point x="326" y="-113" type="qcurve" name="ih04"/>
      <point x="350" y="-24" type="line"/>
      <point x="302" y="-15"/>
      <point x="218" y="31"/>
      <point x="146" y="93"/>
      <point x="88" y="164"/>
      <point x="66" y="199" type="qcurve"/>
      <point x="158" y="321" type="line" name="ih05"/>
      <point x="179" y="278"/>
      <point x="233" y="202"/>
      <point x="296" y="145"/>
      <point x="370" y="112"/>
      <point x="410" y="112" type="qcurve"/>
      <point x="452" y="112"/>
      <point x="518" y="147"/>
      <point x="563" y="208"/>
      <point x="587" y="289"/>
      <point x="587" y="336" type="qcurve" name="ih01"/>
      <point x="587" y="384"/>
      <point x="561" y="468"/>
      <point x="506" y="543"/>
      <point x="420" y="608"/>
      <point x="359" y="637" type="qcurve"/>
      <point x="308" y="662"/>
      <point x="221" y="738"/>
      <point x="158" y="841"/>
      <point x="123" y="971"/>
      <point x="123" y="1051" type="qcurve" name="dh01"/>
      <point x="123" y="1138"/>
      <point x="174" y="1289"/>
      <point x="266" y="1400"/>
      <point x="389" y="1464"/>
      <point x="463" y="1464" type="qcurve" name="at01"/>
      <point x="519" y="1464"/>
      <point x="612" y="1425"/>
      <point x="687" y="1361"/>
      <point x="746" y="1278"/>
    </contour>
  </outline>
</glyph>
<glyph name="latn:scedilla" format="2">
  <advance width="648"/>
  <unicode hex="015F"/>
  <outline>
    <contour>
      <point x="110" y="234" type="line" name="ih01"/>
      <point x="130" y="187"/>
      <point x="173" y="128"/>
      <point x="217" y="94"/>
      <point x="261" y="82"/>
      <point x="283" y="82" type="qcurve"/>
      <point x="306" y="82"/>
      <point x="354" y="101"/>
      <point x="392" y="140"/>
      <point x="416" y="201"/>
      <point x="416" y="242" type="qcurve" name="sh01"/>
      <point x="416" y="300" name="hr00"/>
      <point x="346" y="378"/>
      <point x="275" y="413" type="qcurve"/>
      <point x="238" y="431"/>
      <point x="167" y="489"/>
      <point x="112" y="568"/>
      <point x="78" y="671"/>
      <point x="78" y="735" type="qcurve" name="dh01"/>
      <point x="78" y="797"/>
      <point x="114" y="897"/>
      <point x="179" y="967"/>
      <point x="266" y="1004"/>
      <point x="317" y="1004" type="qcurve" name="at01"/>
      <point x="368" y="1004"/>
      <point x="449" y="983"/>
      <point x="517" y="944"/>
      <point x="575" y="888"/>
      <point x="602" y="852" type="qcurve"/>
      <point x="515" y="740" type="line" name="ih02"/>
      <point x="483" y="819"/>
      <point x="397" y="892"/>
      <point x="350" y="892" type="qcurve" name="sv01"/>
      <point x="335" y="892"/>
      <point x="303" y="875"/>
      <point x="277" y="840"/>
      <point x="260" y="788"/>
      <point x="260" y="753" type="qcurve" name="dh02"/>
      <point x="260" y="723"/>
      <point x="281" y="673"/>
      <point x="313" y="634"/>
      <point x="351" y="606"/>
      <point x="369" y="597" type="qcurve"/>
      <point x="430" y="567"/>
      <point x="518" y="499"/>
      <point x="577" y="417"/>
      <point x="605" y="319"/>
      <point x="605" y="260" type="qcurve" name="sh02"/>
      <point x="605" y="203"/>
      <point x="572" y="109"/>
      <point x="514" y="37"/>
      <point x="435" y="-11"/>
      <point x="390" y="-21" type="qcurve"/>
      <point x="376" y="-72" type="line"/>
      <point x="393" y="-75"/>
      <point x="440" y="-102"/>
      <point x="482" y="-149"/>
      <point x="511" y="-217"/>
      <point x="511" y="-262" type="qcurve" name="dh04"/>
      <point x="511" y="-318"/>
      <point x="479" y="-403"/>
      <point x="422" y="-461"/>
      <point x="348" y="-490"/>
      <point x="306" y="-490" type="qcurve" name="ab01"/>
      <point x="269" y="-490"/>
      <point x="211" y="-467"/>
      <point x="166" y="-433"/>
      <point x="134" y="-393"/>
      <point x="125" y="-375" type="qcurve"/>
      <point x="186" y="-266" type="line" name="ih03"/>
      <point x="199" y="-311"/>
      <point x="241" y="-369"/>
      <point x="275" y="-369" type="qcurve" name="sv02"/>
      <point x="293" y="-369"/>
      <point x="323" y="-348"/>
      <point x="346" y="-313"/>
      <point x="359" y="-267"/>
      <point x="359" y="-243" type="qcurve" name="dh03"/>
      <point x="359" y="-204"/>
      <point x="338" y="-153"/>
      <point x="302" y="-124"/>
      <point x="255" y="-113"/>
      <point x="229" y="-113" type="qcurve" name="ih04"/>
      <point x="253" y="-25" type="line"/>
      <point x="183" y="-15"/>
      <point x="74" y="56"/>
      <point x="26" y="122" type="qcurve"/>
    </contour>
  </outline>
</glyph>
<glyph name="latn:Tcedilla" format="2">
  <advance width="864"/>
  <unicode hex="0162"/>
  <guideline x="464" y="0" angle="90"/>
  <outline>
    <contour>
      <point x="23" y="1434" type="line" name="at01"/>
      <point x="863" y="1434" type="line"/>
      <point x="842" y="1272" type="line"/>
      <point x="549" y="1312" type="line"/>
      <point x="549" y="0" type="line" name="dh02"/>
      <point x="452" y="0" type="line"/>
      <point x="431" y="-72" type="line"/>
      <point x="449" y="-75"/>
      <point x="495" y="-102"/>
      <point x="537" y="-149"/>
      <point x="566" y="-217"/>
      <point x="566" y="-262" type="qcurve"/>
      <point x="566" y="-318"/>
      <point x="534" y="-403"/>
      <point x="478" y="-461"/>
      <point x="404" y="-490"/>
      <point x="362" y="-490" type="qcurve" name="ab01"/>
      <point x="325" y="-490"/>
      <point x="266" y="-467"/>
      <point x="221" y="-433"/>
      <point x="190" y="-393"/>
      <point x="180" y="-375" type="qcurve"/>
      <point x="242" y="-266" type="line" name="iv01"/>
      <point x="254" y="-310"/>
      <point x="296" y="-369"/>
      <point x="331" y="-369" type="qcurve" name="sv01"/>
      <point x="348" y="-369"/>
      <point x="379" y="-348"/>
      <point x="401" y="-313"/>
      <point x="415" y="-267"/>
      <point x="415" y="-243" type="qcurve" name="sh01"/>
      <point x="415" y="-204"/>
      <point x="394" y="-153"/>
      <point x="358" y="-124"/>
      <point x="311" y="-113"/>
      <point x="284" y="-113" type="qcurve" name="iv02"/>
      <point x="315" y="0" type="line" name="dh01"/>
      <point x="315" y="1313" type="line"/>
      <point x="2" y="1271" type="line" name="iv03"/>
    </contour>
  </outline>
</glyph>
<glyph name="tcommaaccent" format="2">
  <advance width="552"/>
  <unicode hex="0163"/>
  <guideline x="430" y="0" angle="90"/>
  <outline>
    <contour>
      <point x="353" y="1322" type="line" name="sh01"/>
      <point x="353" y="1004" type="line"/>
      <point x="506" y="1004" type="line"/>
      <point x="487" y="865" type="line" name="sh03"/>
      <point x="353" y="873" type="line"/>
      <point x="353" y="269" type="line" name="dh02"/>
      <point x="353" y="221"/>
      <point x="366" y="151"/>
      <point x="398" y="104"/>
      <point x="449" y="82" name="hr00"/>
      <point x="487" y="82" type="qcurve" name="sh04"/>
      <point x="472" y="-30" type="line" name="sh05"/>
      <point x="440" y="-30"/>
      <point x="384" y="-26"/>
      <point x="360" y="-22" type="qcurve" name="ab01"/>
      <point x="346" y="-72" type="line"/>
      <point x="363" y="-75"/>
      <point x="410" y="-102"/>
      <point x="452" y="-149"/>
      <point x="481" y="-217" name="hr01"/>
      <point x="481" y="-262" type="qcurve" name="sh02"/>
      <point x="481" y="-318"/>
      <point x="449" y="-403"/>
      <point x="392" y="-461"/>
      <point x="318" y="-490"/>
      <point x="276" y="-490" type="qcurve" name="ab02"/>
      <point x="239" y="-490"/>
      <point x="181" y="-467"/>
      <point x="136" y="-433"/>
      <point x="104" y="-393"/>
      <point x="95" y="-375" type="qcurve"/>
      <point x="156" y="-266" type="line" name="ih02"/>
      <point x="169" y="-311"/>
      <point x="211" y="-369"/>
      <point x="245" y="-369" type="qcurve" name="sv01"/>
      <point x="263" y="-369"/>
      <point x="293" y="-348"/>
      <point x="316" y="-313"/>
      <point x="329" y="-267"/>
      <point x="329" y="-243" type="qcurve" name="ih01"/>
      <point x="329" y="-204"/>
      <point x="308" y="-153"/>
      <point x="272" y="-124"/>
      <point x="225" y="-113"/>
      <point x="199" y="-113" type="qcurve" name="ih03"/>
      <point x="236" y="24" type="line"/>
      <point x="206" y="45"/>
      <point x="170" y="105"/>
      <point x="149" y="184"/>
      <point x="141" y="282"/>
      <point x="141" y="342" type="qcurve" name="dh01"/>
      <point x="141" y="885" type="line"/>
      <point x="39" y="892" type="line"/>
      <point x="54" y="1004" type="line"/>
      <point x="141" y="1004" type="line" name="sh06"/>
      <point x="141" y="1292" type="line"/>
      <point x="308" y="1322" type="line"/>
    </contour>
  </outline>
</glyph>
<glyph name="latn:tstroke" format="2">
  <advance width="552"/>
  <unicode hex="0167"/>
  <guideline x="506" y="0" angle="90"/>
  <guideline x="423" y="0" angle="80"/>
  <outline>
    <contour>
      <point x="56" y="609" type="line" name="sv01"/>
      <point x="141" y="609" type="line" name="dh01"/>
      <point x="141" y="885" type="line"/>
      <point x="39" y="892" type="line"/>
      <point x="54" y="1004" type="line"/>
      <point x="141" y="1004" type="line" name="sh01"/>
      <point x="141" y="1292" type="line"/>
      <point x="308" y="1322" type="line" name="av01"/>
      <point x="353" y="1322" type="line" name="sh02"/>
      <point x="353" y="1004" type="line"/>
      <point x="506" y="1004" type="line"/>
      <point x="487" y="865" type="line"/>
      <point x="353" y="873" type="line"/>
      <point x="353" y="609" type="line" name="dh02"/>
      <point x="506" y="609" type="line" name="dv02"/>
      <point x="489" y="487" type="line" name="dv01"/>
      <point x="353" y="487" type="line" name="sh03"/>
      <point x="353" y="269" type="line"/>
      <point x="353" y="221"/>
      <point x="366" y="151"/>
      <point x="398" y="104"/>
      <point x="449" y="82"/>
      <point x="487" y="82" type="qcurve" name="sv02"/>
      <point x="472" y="-30" type="line" name="ab01"/>
      <point x="366" y="-30"/>
      <point x="236" y="13"/>
      <point x="165" y="103"/>
      <point x="141" y="244"/>
      <point x="141" y="342" type="qcurve" name="sh04"/>
      <point x="141" y="487" type="line" name="sv03"/>
      <point x="39" y="487" type="line"/>
    </contour>
  </outline>
</glyph>
<glyph name="Uogonek" format="2">
  <advance width="1128"/>
  <unicode hex="0172"/>
  <guideline x="0" y="465" angle="0"/>
  <guideline x="935" y="0" angle="90"/>
  <anchor x="570" y="1600" name="AccentAbove"/>
  <anchor x="900" y="1600" name="AccentAboveRight"/>
  <outline>
    <contour>
      <point x="773" y="-418" type="line" name="hr00"/>
      <point x="754" y="-431"/>
      <point x="704" y="-450"/>
      <point x="670" y="-450" type="qcurve" name="dv01"/>
      <point x="625" y="-450"/>
      <point x="559" y="-415"/>
      <point x="516" y="-356"/>
      <point x="496" y="-280"/>
      <point x="496" y="-239" type="qcurve" name="dh03"/>
      <point x="496" y="-214"/>
      <point x="503" y="-164"/>
      <point x="522" y="-112"/>
      <point x="557" y="-58"/>
      <point x="585" y="-30" type="qcurve" name="ih01"/>
      <point x="485" y="-30"/>
      <point x="309" y="47"/>
      <point x="178" y="200"/>
      <point x="102" y="427"/>
      <point x="102" y="578" type="qcurve" name="dh01"/>
      <point x="102" y="1434" type="line"/>
      <point x="336" y="1464" type="line" name="at01"/>
      <point x="336" y="500" type="line" name="dh02"/>
      <point x="336" y="404"/>
      <point x="387" y="259"/>
      <point x="470" y="162"/>
      <point x="573" y="112"/>
      <point x="626" y="112" type="qcurve" name="sv01"/>
      <point x="692" y="112"/>
      <point x="796" y="171"/>
      <point x="867" y="280"/>
      <point x="905" y="435"/>
      <point x="905" y="530" type="qcurve" name="dh05"/>
      <point x="905" y="1464" type="line" name="at02"/>
      <point x="1026" y="1434" type="line"/>
      <point x="1026" y="568" type="line" name="dh06"/>
      <point x="1026" y="464"/>
      <point x="991" y="282"/>
      <point x="922" y="136"/>
      <point x="820" y="30"/>
      <point x="754" y="0" type="qcurve"/>
      <point x="714" y="-25"/>
      <point x="659" y="-77"/>
      <point x="625" y="-129"/>
      <point x="610" y="-182"/>
      <point x="610" y="-209" type="qcurve" name="dh04"/>
      <point x="610" y="-232"/>
      <point x="623" y="-269"/>
      <point x="644" y="-294"/>
      <point x="671" y="-308"/>
      <point x="684" y="-308" type="qcurve" name="dv02"/>
      <point x="707" y="-308"/>
      <point x="741" y="-284"/>
      <point x="754" y="-270" type="qcurve" name="ih02"/>
    </contour>
  </outline>
</glyph>
<glyph name="uogonek" format="2">
  <advance width="840"/>
  <unicode hex="0173"/>
  <guideline x="798" y="0" angle="90"/>
  <anchor x="470" y="1100" name="AccentAbove"/>
  <anchor x="800" y="1100" name="AccentAboveRight"/>
  <outline>
    <contour>
      <point x="818" y="-418" type="line" name="hr00"/>
      <point x="798" y="-431"/>
      <point x="751" y="-440"/>
      <point x="729" y="-440" type="qcurve" name="dv01"/>
      <point x="684" y="-440"/>
      <point x="614" y="-408"/>
      <point x="566" y="-353"/>
      <point x="540" y="-280"/>
      <point x="540" y="-239" type="qcurve" name="sh01"/>
      <point x="540" y="-211"/>
      <point x="550" y="-154"/>
      <point x="576" y="-95"/>
      <point x="623" y="-33"/>
      <point x="662" y="0" type="qcurve" name="dh04"/>
      <point x="630" y="16"/>
      <point x="591" y="59"/>
      <point x="580" y="82" type="qcurve" name="ih01"/>
      <point x="562" y="62"/>
      <point x="512" y="22"/>
      <point x="452" y="-10" name="hr01"/>
      <point x="383" y="-30"/>
      <point x="347" y="-30" type="qcurve" name="ab01"/>
      <point x="293" y="-30"/>
      <point x="194" y="6"/>
      <point x="119" y="85"/>
      <point x="75" y="209"/>
      <point x="75" y="298" type="qcurve" name="dh01"/>
      <point x="75" y="974" type="line"/>
      <point x="242" y="1004" type="line" name="at01"/>
      <point x="287" y="1004" type="line"/>
      <point x="287" y="258" type="line" name="dh02"/>
      <point x="287" y="204"/>
      <point x="305" y="135"/>
      <point x="332" y="96"/>
      <point x="364" y="82"/>
      <point x="378" y="82" type="qcurve" name="sv01"/>
      <point x="405" y="82"/>
      <point x="455" y="103"/>
      <point x="499" y="137"/>
      <point x="535" y="183"/>
      <point x="548" y="208" type="qcurve" name="dh03"/>
      <point x="548" y="974" type="line"/>
      <point x="714" y="1004" type="line" name="at02"/>
      <point x="759" y="1004" type="line"/>
      <point x="759" y="165" type="line" name="sh02"/>
      <point x="759" y="117"/>
      <point x="782" y="82"/>
      <point x="813" y="82" type="qcurve" name="sv02"/>
      <point x="798" y="-30" type="line" name="ab02"/>
      <point x="790" y="-30"/>
      <point x="765" y="-28"/>
      <point x="759" y="-26" type="qcurve" name="ab03"/>
      <point x="705" y="-68"/>
      <point x="662" y="-149"/>
      <point x="662" y="-189" type="qcurve" name="sh03"/>
      <point x="662" y="-212"/>
      <point x="675" y="-252"/>
      <point x="698" y="-281"/>
      <point x="727" y="-298"/>
      <point x="743" y="-298" type="qcurve" name="dv02"/>
      <point x="761" y="-298"/>
      <point x="785" y="-284"/>
      <point x="798" y="-270" type="qcurve"/>
    </contour>
  </outline>
</glyph>
<glyph name="latn:longs" format="2">
  <advance width="432"/>
  <unicode hex="017F"/>
  <guideline x="253" y="0" angle="80"/>
  <guideline x="447" y="0" angle="90"/>
  <outline>
    <contour>
      <point x="313" y="0" type="line" name="dh02"/>
      <point x="101" y="0" type="line" name="dh01"/>
      <point x="101" y="1012" type="line"/>
      <point x="101" y="1114"/>
      <point x="130" y="1281"/>
      <point x="206" y="1399"/>
      <point x="341" y="1464"/>
      <point x="447" y="1464" type="qcurve" name="at01"/>
      <point x="432" y="1352" type="line"/>
      <point x="397" y="1352"/>
      <point x="351" y="1315"/>
      <point x="324" y="1252"/>
      <point x="313" y="1168"/>
      <point x="313" y="1120" type="qcurve"/>
    </contour>
  </outline>
</glyph>
<glyph name="florin" format="2">
  <advance width="768"/>
  <unicode hex="0192"/>
  <guideline x="547" y="0" angle="80"/>
  <guideline x="170" y="0" angle="80"/>
  <outline>
    <contour>
      <point x="268" y="735" type="line" name="hr00"/>
      <point x="173" y="742" type="line"/>
      <point x="188" y="852" type="line"/>
      <point x="284" y="852" type="line"/>
      <point x="311" y="1050" type="line"/>
      <point x="323" y="1145"/>
      <point x="382" y="1324"/>
      <point x="485" y="1463"/>
      <point x="641" y="1546"/>
      <point x="782" y="1546" type="qcurve" name="dv02"/>
      <point x="767" y="1434" type="line" name="dv01"/>
      <point x="713" y="1434"/>
      <point x="635" y="1375"/>
      <point x="577" y="1270"/>
      <point x="539" y="1126"/>
      <point x="528" y="1042" type="qcurve"/>
      <point x="503" y="852" type="line"/>
      <point x="658" y="852" type="line"/>
      <point x="639" y="712" type="line"/>
      <point x="486" y="722" type="line"/>
      <point x="391" y="4" type="line"/>
      <point x="377" y="-96"/>
      <point x="323" y="-275"/>
      <point x="221" y="-410"/>
      <point x="65" y="-490"/>
      <point x="-80" y="-490" type="qcurve" name="ab01"/>
      <point x="-65" y="-378" type="line" name="sv01"/>
      <point x="-12" y="-378"/>
      <point x="68" y="-321"/>
      <point x="125" y="-217"/>
      <point x="162" y="-73"/>
      <point x="173" y="14" type="qcurve"/>
    </contour>
  </outline>
</glyph>
<glyph name="jdotless" format="2">
  <advance width="432"/>
  <unicode hex="0237"/>
  <guideline x="76" y="0" angle="80"/>
  <anchor x="240" y="1100" name="AccentAbove"/>
  <anchor x="370" y="1200" name="AccentAboveRight"/>
  <anchor x="100" y="-420" name="AccentBelow"/>
  <anchor x="190" y="486" name="AccentOverlay"/>
  <outline>
    <contour>
      <point x="114" y="974" type="line" name="dh01"/>
      <point x="281" y="1004" type="line" name="at01"/>
      <point x="326" y="1004" type="line" name="dh02"/>
      <point x="326" y="-76" type="line"/>
      <point x="326" y="-202"/>
      <point x="290" y="-362"/>
      <point x="215" y="-455"/>
      <point x="96" y="-490"/>
      <point x="13" y="-490" type="qcurve" name="ab01"/>
      <point x="28" y="-378" type="line"/>
      <point x="53" y="-378"/>
      <point x="86" y="-363"/>
      <point x="106" y="-323"/>
      <point x="114" y="-250"/>
      <point x="114" y="-191" type="qcurve"/>
    </contour>
  </outline>
</glyph>
<glyph name="latn:alpha" format="2">
  <advance width="840"/>
  <unicode hex="0251"/>
  <outline>
    <contour>
      <point x="765" y="1004" type="line" name="sh01"/>
      <point x="765" y="156" type="line"/>
      <point x="765" y="120"/>
      <point x="788" y="82"/>
      <point x="819" y="82" type="qcurve" name="sv01"/>
      <point x="804" y="-30" type="line" name="ab01"/>
      <point x="755" y="-30"/>
      <point x="682" y="-20"/>
      <point x="627" y="4"/>
      <point x="589" y="43"/>
      <point x="576" y="72" type="qcurve" name="ih01"/>
      <point x="546" y="21"/>
      <point x="453" y="-30"/>
      <point x="400" y="-30" type="qcurve" name="ab02"/>
      <point x="327" y="-30"/>
      <point x="197" y="41"/>
      <point x="99" y="174"/>
      <point x="42" y="366"/>
      <point x="42" y="487" type="qcurve" name="sh02"/>
      <point x="42" y="602"/>
      <point x="98" y="792"/>
      <point x="194" y="929"/>
      <point x="326" y="1004"/>
      <point x="401" y="1004" type="qcurve" name="at01"/>
      <point x="423" y="1004"/>
      <point x="472" y="992"/>
      <point x="518" y="972"/>
      <point x="560" y="947"/>
      <point x="576" y="934" type="qcurve"/>
      <point x="720" y="1004" type="line"/>
    </contour>
    <contour>
      <point x="554" y="811" type="line" name="ah01"/>
      <point x="528" y="848"/>
      <point x="467" y="892"/>
      <point x="422" y="892" type="qcurve" name="sv02"/>
      <point x="382" y="892"/>
      <point x="322" y="834"/>
      <point x="281" y="728"/>
      <point x="261" y="578"/>
      <point x="261" y="487" type="qcurve" name="sh03"/>
      <point x="261" y="382"/>
      <point x="286" y="230"/>
      <point x="329" y="130"/>
      <point x="388" y="82"/>
      <point x="422" y="82" type="qcurve" name="sv03"/>
      <point x="447" y="82"/>
      <point x="488" y="99"/>
      <point x="519" y="126"/>
      <point x="544" y="157"/>
      <point x="554" y="172" type="qcurve"/>
    </contour>
  </outline>
</glyph>
<glyph name="latn:alphaturned" format="2">
  <advance width="840"/>
  <unicode hex="0252"/>
  <outline>
    <contour>
      <point x="35" y="1004" type="line" name="at01"/>
      <point x="83" y="1004"/>
      <point x="157" y="994"/>
      <point x="212" y="970"/>
      <point x="250" y="931"/>
      <point x="263" y="902" type="qcurve" name="ih01"/>
      <point x="293" y="953"/>
      <point x="386" y="1004"/>
      <point x="439" y="1004" type="qcurve" name="at02"/>
      <point x="512" y="1004"/>
      <point x="641" y="933"/>
      <point x="740" y="800" name="hr00"/>
      <point x="797" y="608"/>
      <point x="797" y="487" type="qcurve" name="sh03"/>
      <point x="797" y="372"/>
      <point x="741" y="182"/>
      <point x="644" y="45"/>
      <point x="513" y="-30"/>
      <point x="438" y="-30" type="qcurve" name="ab02"/>
      <point x="416" y="-30"/>
      <point x="367" y="-18"/>
      <point x="320" y="2"/>
      <point x="278" y="27"/>
      <point x="263" y="40" type="qcurve" name="ih02"/>
      <point x="263" y="0" type="line" name="ab01"/>
      <point x="74" y="0" type="line" name="sh01"/>
      <point x="74" y="818" type="line"/>
      <point x="74" y="854"/>
      <point x="51" y="892"/>
      <point x="20" y="892" type="qcurve" name="sv01"/>
    </contour>
    <contour>
      <point x="285" y="802" type="qcurve"/>
      <point x="285" y="163" type="line" name="sh02"/>
      <point x="311" y="126"/>
      <point x="372" y="82"/>
      <point x="417" y="82" type="qcurve" name="sv02"/>
      <point x="457" y="82"/>
      <point x="517" y="140"/>
      <point x="557" y="246"/>
      <point x="578" y="395"/>
      <point x="578" y="487" type="qcurve" name="ah01"/>
      <point x="578" y="588"/>
      <point x="555" y="740"/>
      <point x="513" y="841"/>
      <point x="454" y="892"/>
      <point x="417" y="892" type="qcurve" name="sv03"/>
      <point x="392" y="892"/>
      <point x="351" y="875"/>
      <point x="320" y="848"/>
      <point x="295" y="817"/>
    </contour>
  </outline>
</glyph>
<glyph name="uni0254" format="2">
  <advance width="768"/>
  <unicode hex="0254"/>
  <outline>
    <contour>
      <point x="134" y="234" type="line" name="iv01"/>
      <point x="147" y="207"/>
      <point x="179" y="153"/>
      <point x="220" y="109"/>
      <point x="272" y="82"/>
      <point x="305" y="82" type="qcurve" name="sv01"/>
      <point x="343" y="82"/>
      <point x="409" y="138"/>
      <point x="458" y="243"/>
      <point x="487" y="393"/>
      <point x="487" y="487" type="qcurve" name="dh01"/>
      <point x="487" y="581"/>
      <point x="458" y="731"/>
      <point x="409" y="836"/>
      <point x="343" y="892"/>
      <point x="305" y="892" type="qcurve" name="sv02"/>
      <point x="269" y="892"/>
      <point x="217" y="865"/>
      <point x="177" y="822"/>
      <point x="147" y="768"/>
      <point x="134" y="740" type="qcurve" name="iv02"/>
      <point x="50" y="852" type="line"/>
      <point x="71" y="884"/>
      <point x="122" y="940"/>
      <point x="189" y="981"/>
      <point x="273" y="1004"/>
      <point x="328" y="1004" type="qcurve" name="at01"/>
      <point x="414" y="1004"/>
      <point x="554" y="927"/>
      <point x="653" y="789"/>
      <point x="706" y="600"/>
      <point x="706" y="487" type="qcurve" name="dh02"/>
      <point x="706" y="375"/>
      <point x="653" y="185"/>
      <point x="554" y="47"/>
      <point x="414" y="-30"/>
      <point x="328" y="-30" type="qcurve" name="ab01"/>
      <point x="274" y="-30"/>
      <point x="189" y="-6"/>
      <point x="122" y="35"/>
      <point x="71" y="91"/>
      <point x="50" y="122" type="qcurve"/>
    </contour>
  </outline>
</glyph>
<glyph name="latn:ccurl" format="2">
  <advance width="768"/>
  <unicode hex="0255"/>
  <guideline x="0" y="-22" angle="45"/>
  <guideline x="0" y="-196" angle="45"/>
  <outline>
    <contour>
      <point x="621" y="740" type="line" name="ih01"/>
      <point x="608" y="767"/>
      <point x="577" y="821"/>
      <point x="536" y="865"/>
      <point x="483" y="892"/>
      <point x="450" y="892" type="qcurve" name="sv01"/>
      <point x="413" y="892"/>
      <point x="347" y="836"/>
      <point x="297" y="731"/>
      <point x="269" y="581"/>
      <point x="269" y="487" type="qcurve" name="dh02"/>
      <point x="269" y="410"/>
      <point x="278" y="347" type="qcurve" name="sh01"/>
      <point x="308" y="388"/>
      <point x="371" y="442"/>
      <point x="432" y="473"/>
      <point x="487" y="486"/>
      <point x="508" y="486" type="qcurve" name="dv02"/>
      <point x="555" y="486"/>
      <point x="629" y="450"/>
      <point x="680" y="388"/>
      <point x="707" y="305"/>
      <point x="707" y="259" type="qcurve" name="dh04"/>
      <point x="707" y="194"/>
      <point x="667" y="88"/>
      <point x="594" y="12"/>
      <point x="491" y="-30"/>
      <point x="428" y="-30" type="qcurve" name="ab01"/>
      <point x="355" y="-30"/>
      <point x="242" y="21"/>
      <point x="195" y="65" type="qcurve"/>
      <point x="103" y="-60" type="line" name="av01"/>
      <point x="-6" y="-30" type="line" name="ab02"/>
      <point x="130" y="151" type="line"/>
      <point x="91" y="217"/>
      <point x="50" y="387"/>
      <point x="50" y="487" type="qcurve" name="dh01"/>
      <point x="50" y="599"/>
      <point x="103" y="789"/>
      <point x="202" y="927"/>
      <point x="341" y="1004"/>
      <point x="428" y="1004" type="qcurve" name="at01"/>
      <point x="482" y="1004"/>
      <point x="566" y="980"/>
      <point x="633" y="939"/>
      <point x="685" y="883"/>
      <point x="706" y="852" type="qcurve"/>
    </contour>
    <contour>
      <point x="507" y="374" type="qcurve" name="dv01"/>
      <point x="488" y="374"/>
      <point x="444" y="359"/>
      <point x="395" y="323"/>
      <point x="340" y="263"/>
      <point x="309" y="218" type="qcurve"/>
      <point x="322" y="186"/>
      <point x="358" y="136"/>
      <point x="399" y="101"/>
      <point x="444" y="82"/>
      <point x="465" y="82" type="qcurve" name="sv02"/>
      <point x="497" y="82"/>
      <point x="548" y="107"/>
      <point x="582" y="151"/>
      <point x="600" y="208"/>
      <point x="600" y="241" type="qcurve" name="dh03"/>
      <point x="600" y="278"/>
      <point x="585" y="329"/>
      <point x="559" y="360"/>
      <point x="525" y="374"/>
    </contour>
  </outline>
</glyph>
<glyph name="latn:dtail" format="2">
  <advance width="840"/>
  <unicode hex="0256"/>
  <outline>
    <contour>
      <point x="765" y="1494" type="line" name="av01"/>
      <point x="765" y="-191" type="line" name="sh01"/>
      <point x="765" y="-249"/>
      <point x="773" y="-318"/>
      <point x="800" y="-363"/>
      <point x="834" y="-378"/>
      <point x="866" y="-378" type="qcurve"/>
      <point x="851" y="-490" type="line" name="ab01"/>
      <point x="773" y="-490"/>
      <point x="670" y="-453"/>
      <point x="590" y="-360"/>
      <point x="554" y="-198"/>
      <point x="554" y="-76" type="qcurve" name="ah01"/>
      <point x="554" y="50" type="line" name="iv01"/>
      <point x="522" y="12"/>
      <point x="437" y="-30"/>
      <point x="392" y="-30" type="qcurve" name="ab02"/>
      <point x="320" y="-30"/>
      <point x="192" y="41"/>
      <point x="97" y="174"/>
      <point x="42" y="366"/>
      <point x="42" y="487" type="qcurve" name="sh02"/>
      <point x="42" y="602"/>
      <point x="95" y="792"/>
      <point x="190" y="929"/>
      <point x="318" y="1004"/>
      <point x="393" y="1004" type="qcurve" name="at01"/>
      <point x="416" y="1004"/>
      <point x="464" y="988"/>
      <point x="509" y="966"/>
      <point x="545" y="941"/>
      <point x="554" y="931" type="qcurve" name="sh03"/>
      <point x="554" y="1464" type="line"/>
      <point x="720" y="1494" type="line"/>
    </contour>
    <contour>
      <point x="554" y="821" type="line" name="sh04"/>
      <point x="534" y="852"/>
      <point x="474" y="892"/>
      <point x="429" y="892" type="qcurve" name="sv02"/>
      <point x="392" y="892"/>
      <point x="330" y="834"/>
      <point x="286" y="728"/>
      <point x="261" y="578"/>
      <point x="261" y="487" type="qcurve" name="sh05"/>
      <point x="261" y="386"/>
      <point x="290" y="234"/>
      <point x="338" y="133"/>
      <point x="398" y="82"/>
      <point x="429" y="82" type="qcurve" name="sv01"/>
      <point x="475" y="82"/>
      <point x="534" y="123"/>
      <point x="554" y="152" type="qcurve"/>
    </contour>
  </outline>
</glyph>
<glyph name="uni0257" format="2">
  <advance width="840"/>
  <unicode hex="0257"/>
  <outline>
    <contour>
      <point x="866" y="1464" type="qcurve" name="at01"/>
      <point x="851" y="1352" type="line"/>
      <point x="827" y="1352"/>
      <point x="793" y="1337"/>
      <point x="773" y="1297"/>
      <point x="765" y="1223"/>
      <point x="765" y="1165" type="qcurve" name="sh01"/>
      <point x="765" y="156" type="line"/>
      <point x="765" y="120"/>
      <point x="788" y="82"/>
      <point x="819" y="82" type="qcurve" name="sv01"/>
      <point x="804" y="-30" type="line" name="ab01"/>
      <point x="755" y="-30"/>
      <point x="682" y="-16"/>
      <point x="627" y="11"/>
      <point x="589" y="53"/>
      <point x="576" y="82" type="qcurve" name="ih01"/>
      <point x="561" y="56"/>
      <point x="520" y="15"/>
      <point x="472" y="-14"/>
      <point x="419" y="-30"/>
      <point x="392" y="-30" type="qcurve" name="ab02"/>
      <point x="320" y="-30"/>
      <point x="192" y="41"/>
      <point x="97" y="174"/>
      <point x="42" y="366"/>
      <point x="42" y="487" type="qcurve" name="sh02"/>
      <point x="42" y="602"/>
      <point x="95" y="792"/>
      <point x="190" y="929"/>
      <point x="318" y="1004"/>
      <point x="393" y="1004" type="qcurve" name="at02"/>
      <point x="416" y="1004"/>
      <point x="464" y="988"/>
      <point x="509" y="966"/>
      <point x="545" y="941"/>
      <point x="554" y="931" type="qcurve" name="iv01"/>
      <point x="554" y="1050" type="line" name="ah01"/>
      <point x="554" y="1176"/>
      <point x="589" y="1336"/>
      <point x="664" y="1429"/>
      <point x="783" y="1464"/>
    </contour>
    <contour>
      <point x="554" y="821" type="line" name="sh03"/>
      <point x="534" y="852"/>
      <point x="474" y="892"/>
      <point x="429" y="892" type="qcurve" name="sv02"/>
      <point x="392" y="892"/>
      <point x="330" y="834"/>
      <point x="286" y="728"/>
      <point x="261" y="578"/>
      <point x="261" y="487" type="qcurve" name="sh04"/>
      <point x="261" y="386"/>
      <point x="290" y="234"/>
      <point x="338" y="133"/>
      <point x="398" y="82"/>
      <point x="429" y="82" type="qcurve" name="sv03"/>
      <point x="475" y="82"/>
      <point x="534" y="123"/>
      <point x="554" y="152" type="qcurve"/>
    </contour>
  </outline>
</glyph>
<glyph name="latn:ereversed" format="2">
  <advance width="768"/>
  <unicode hex="0258"/>
  <outline>
    <contour>
      <point x="333" y="82" type="qcurve" name="sv01"/>
      <point x="365" y="82"/>
      <point x="429" y="121"/>
      <point x="482" y="215"/>
      <point x="515" y="371"/>
      <point x="515" y="487" type="qcurve" name="ah01"/>
      <point x="42" y="487" type="line" name="sh01"/>
      <point x="42" y="629"/>
      <point x="98" y="827"/>
      <point x="185" y="949"/>
      <point x="294" y="1004"/>
      <point x="348" y="1004" type="qcurve" name="at01"/>
      <point x="434" y="1004"/>
      <point x="574" y="927"/>
      <point x="673" y="789"/>
      <point x="726" y="599"/>
      <point x="726" y="487" type="qcurve" name="sh02"/>
      <point x="726" y="374"/>
      <point x="675" y="185"/>
      <point x="579" y="47"/>
      <point x="442" y="-30"/>
      <point x="356" y="-30" type="qcurve" name="ab01"/>
      <point x="307" y="-30"/>
      <point x="224" y="-7"/>
      <point x="155" y="34"/>
      <point x="99" y="90"/>
      <point x="77" y="122" type="qcurve"/>
      <point x="162" y="234" type="line" name="ih01"/>
      <point x="175" y="206"/>
      <point x="209" y="152"/>
      <point x="251" y="109"/>
      <point x="303" y="82"/>
    </contour>
    <contour>
      <point x="356" y="892" type="qcurve" name="sv02"/>
      <point x="329" y="892"/>
      <point x="281" y="859"/>
      <point x="245" y="789"/>
      <point x="224" y="677"/>
      <point x="224" y="599" type="qcurve" name="sh03"/>
      <point x="515" y="599" type="line" name="sh04"/>
      <point x="515" y="671"/>
      <point x="488" y="781"/>
      <point x="443" y="855"/>
      <point x="386" y="892"/>
    </contour>
  </outline>
</glyph>
<glyph name="latn:schwahook" format="2">
  <advance width="1080"/>
  <unicode hex="025A"/>
  <guideline x="0" y="237" angle="35"/>
  <guideline x="0" y="84" angle="35"/>
  <guideline x="369" y="0" angle="90"/>
  <guideline x="1006" y="0" angle="118"/>
  <outline>
    <contour>
      <point x="333" y="892" type="qcurve" name="sv01"/>
      <point x="303" y="892"/>
      <point x="251" y="865"/>
      <point x="209" y="822"/>
      <point x="175" y="768"/>
      <point x="162" y="740" type="qcurve" name="iv01"/>
      <point x="77" y="852" type="line"/>
      <point x="99" y="884"/>
      <point x="155" y="940"/>
      <point x="224" y="981"/>
      <point x="306" y="1004"/>
      <point x="356" y="1004" type="qcurve" name="at01"/>
      <point x="449" y="1004"/>
      <point x="593" y="915"/>
      <point x="641" y="836" type="qcurve"/>
      <point x="859" y="1038" type="line" name="ih01"/>
      <point x="884" y="974" type="line"/>
      <point x="862" y="935"/>
      <point x="836" y="872" name="hr00"/>
      <point x="823" y="821"/>
      <point x="818" y="780"/>
      <point x="818" y="762" type="qcurve" name="sh02"/>
      <point x="818" y="739"/>
      <point x="826" y="695"/>
      <point x="843" y="660"/>
      <point x="871" y="639"/>
      <point x="891" y="639" type="qcurve" name="dv02"/>
      <point x="909" y="639"/>
      <point x="940" y="654"/>
      <point x="962" y="680"/>
      <point x="975" y="717"/>
      <point x="975" y="740" type="qcurve"/>
      <point x="1057" y="788" type="line" name="ih02"/>
      <point x="1058" y="777"/>
      <point x="1063" y="743"/>
      <point x="1063" y="726" type="qcurve" name="sh01"/>
      <point x="1063" y="678"/>
      <point x="1037" y="595"/>
      <point x="992" y="533"/>
      <point x="933" y="498"/>
      <point x="899" y="498" type="qcurve" name="dv01"/>
      <point x="866" y="498"/>
      <point x="806" y="532"/>
      <point x="761" y="591"/>
      <point x="734" y="670"/>
      <point x="734" y="716" type="qcurve" name="sh03"/>
      <point x="734" y="719"/>
      <point x="735" y="735"/>
      <point x="737" y="753"/>
      <point x="740" y="770"/>
      <point x="741" y="775" type="qcurve" name="ih03"/>
      <point x="690" y="728" type="line"/>
      <point x="707" y="674"/>
      <point x="726" y="554"/>
      <point x="726" y="487" type="qcurve" name="dh02"/>
      <point x="726" y="374"/>
      <point x="673" y="185"/>
      <point x="574" y="47"/>
      <point x="434" y="-30"/>
      <point x="348" y="-30" type="qcurve" name="ab01"/>
      <point x="305" y="-30"/>
      <point x="217" y="5"/>
      <point x="139" y="82"/>
      <point x="77" y="204"/>
      <point x="59" y="291" type="qcurve"/>
      <point x="494" y="699" type="line"/>
      <point x="482" y="753"/>
      <point x="446" y="826"/>
      <point x="403" y="872"/>
      <point x="356" y="892"/>
    </contour>
    <contour>
      <point x="356" y="82" type="qcurve" name="sv02"/>
      <point x="398" y="82"/>
      <point x="460" y="137"/>
      <point x="500" y="232"/>
      <point x="519" y="359"/>
      <point x="519" y="432" type="qcurve" name="dh01"/>
      <point x="519" y="464"/>
      <point x="516" y="540"/>
      <point x="514" y="563" type="qcurve" name="sh04"/>
      <point x="227" y="295" type="line"/>
      <point x="227" y="269"/>
      <point x="241" y="197"/>
      <point x="272" y="129"/>
      <point x="321" y="82"/>
    </contour>
  </outline>
</glyph>
<glyph name="uni025C" format="2">
  <advance width="648"/>
  <unicode hex="025C"/>
  <outline>
    <contour>
      <point x="609" y="279" type="qcurve" name="sh02"/>
      <point x="609" y="214"/>
      <point x="558" y="101" name="hr00"/>
      <point x="469" y="18"/>
      <point x="347" y="-30"/>
      <point x="275" y="-30" type="qcurve" name="ab01"/>
      <point x="235" y="-30"/>
      <point x="161" y="-5"/>
      <point x="97" y="37"/>
      <point x="43" y="92"/>
      <point x="23" y="122" type="qcurve"/>
      <point x="107" y="234" type="line" name="iv01"/>
      <point x="121" y="205"/>
      <point x="155" y="150"/>
      <point x="196" y="108"/>
      <point x="244" y="82"/>
      <point x="272" y="82" type="qcurve" name="sv01"/>
      <point x="296" y="82"/>
      <point x="344" y="107"/>
      <point x="382" y="156"/>
      <point x="405" y="226"/>
      <point x="405" y="271" type="qcurve" name="sh01"/>
      <point x="405" y="318"/>
      <point x="384" y="397"/>
      <point x="343" y="455"/>
      <point x="283" y="487"/>
      <point x="245" y="487" type="qcurve"/>
      <point x="209" y="487" type="line" name="dv01"/>
      <point x="224" y="599" type="line" name="dv02"/>
      <point x="264" y="599"/>
      <point x="320" y="629"/>
      <point x="356" y="676"/>
      <point x="373" y="733"/>
      <point x="373" y="761" type="qcurve" name="dh01"/>
      <point x="373" y="789"/>
      <point x="362" y="837"/>
      <point x="339" y="872"/>
      <point x="305" y="892"/>
      <point x="283" y="892" type="qcurve" name="sv02"/>
      <point x="262" y="892"/>
      <point x="221" y="869"/>
      <point x="184" y="828"/>
      <point x="151" y="773"/>
      <point x="137" y="740" type="qcurve" name="iv02"/>
      <point x="53" y="852" type="line"/>
      <point x="71" y="878"/>
      <point x="122" y="932"/>
      <point x="188" y="976"/>
      <point x="268" y="1004"/>
      <point x="315" y="1004" type="qcurve" name="at01"/>
      <point x="374" y="1004"/>
      <point x="465" y="969"/>
      <point x="528" y="906"/>
      <point x="562" y="818"/>
      <point x="562" y="766" type="qcurve" name="dh02"/>
      <point x="562" y="727"/>
      <point x="542" y="659"/>
      <point x="511" y="604"/>
      <point x="475" y="563"/>
      <point x="459" y="551" type="qcurve" name="ih01"/>
      <point x="489" y="536"/>
      <point x="543" y="495"/>
      <point x="584" y="432"/>
      <point x="609" y="342"/>
    </contour>
  </outline>
</glyph>
<glyph name="latn:eopenreversedhook" format="2">
  <advance width="936"/>
  <unicode hex="025D"/>
  <guideline x="0" y="381" angle="35"/>
  <outline>
    <contour>
      <point x="609" y="279" type="qcurve" name="sh01"/>
      <point x="609" y="214"/>
      <point x="558" y="101"/>
      <point x="469" y="18"/>
      <point x="347" y="-30" name="hr00"/>
      <point x="275" y="-30" type="qcurve" name="ab01"/>
      <point x="235" y="-30"/>
      <point x="161" y="-5"/>
      <point x="97" y="37"/>
      <point x="43" y="92"/>
      <point x="23" y="122" type="qcurve" name="hr01"/>
      <point x="107" y="234" type="line" name="iv01"/>
      <point x="121" y="205"/>
      <point x="155" y="150"/>
      <point x="196" y="108"/>
      <point x="244" y="82"/>
      <point x="272" y="82" type="qcurve" name="sv01"/>
      <point x="296" y="82"/>
      <point x="344" y="107"/>
      <point x="382" y="156"/>
      <point x="405" y="226"/>
      <point x="405" y="271" type="qcurve" name="ih01"/>
      <point x="405" y="318" name="hr02"/>
      <point x="384" y="397"/>
      <point x="343" y="455"/>
      <point x="283" y="487"/>
      <point x="245" y="487" type="qcurve" name="sv02"/>
      <point x="209" y="487" type="line"/>
      <point x="224" y="599" type="line" name="sv03"/>
      <point x="264" y="599"/>
      <point x="320" y="629"/>
      <point x="356" y="676"/>
      <point x="373" y="733"/>
      <point x="373" y="761" type="qcurve" name="dh01"/>
      <point x="373" y="818"/>
      <point x="328" y="892"/>
      <point x="283" y="892" type="qcurve" name="sv04"/>
      <point x="262" y="892"/>
      <point x="221" y="869"/>
      <point x="184" y="828"/>
      <point x="151" y="773"/>
      <point x="137" y="740" type="qcurve" name="iv02"/>
      <point x="53" y="852" type="line"/>
      <point x="71" y="878"/>
      <point x="122" y="932"/>
      <point x="188" y="976"/>
      <point x="268" y="1004"/>
      <point x="315" y="1004" type="qcurve" name="at01"/>
      <point x="397" y="1004"/>
      <point x="511" y="936"/>
      <point x="538" y="878" type="qcurve" name="ih02"/>
      <point x="710" y="1038" type="line" name="ih03"/>
      <point x="735" y="974" type="line"/>
      <point x="713" y="935"/>
      <point x="688" y="872"/>
      <point x="674" y="821"/>
      <point x="670" y="780"/>
      <point x="670" y="762" type="qcurve" name="dh02"/>
      <point x="670" y="739"/>
      <point x="677" y="695"/>
      <point x="695" y="660"/>
      <point x="722" y="639"/>
      <point x="743" y="639" type="qcurve" name="dv02"/>
      <point x="761" y="639"/>
      <point x="791" y="654"/>
      <point x="814" y="680"/>
      <point x="827" y="717"/>
      <point x="827" y="740" type="qcurve"/>
      <point x="908" y="788" type="line" name="ih04"/>
      <point x="910" y="777"/>
      <point x="914" y="743"/>
      <point x="914" y="726" type="qcurve" name="sh03"/>
      <point x="914" y="678"/>
      <point x="888" y="595"/>
      <point x="844" y="533"/>
      <point x="785" y="498"/>
      <point x="751" y="498" type="qcurve" name="dv01"/>
      <point x="717" y="498"/>
      <point x="657" y="532"/>
      <point x="612" y="591"/>
      <point x="586" y="670"/>
      <point x="586" y="716" type="qcurve" name="sh02"/>
      <point x="586" y="730"/>
      <point x="590" y="747" type="qcurve" name="ih05"/>
      <point x="557" y="717" type="line"/>
      <point x="551" y="687"/>
      <point x="530" y="635"/>
      <point x="502" y="593"/>
      <point x="473" y="561"/>
      <point x="459" y="551" type="qcurve" name="ih06"/>
      <point x="489" y="536"/>
      <point x="543" y="495"/>
      <point x="584" y="432"/>
      <point x="609" y="342"/>
    </contour>
  </outline>
</glyph>
<glyph name="uni025F" format="2">
  <advance width="432"/>
  <unicode hex="025F"/>
  <guideline x="51" y="0" angle="90"/>
  <guideline x="375" y="0" angle="90"/>
  <outline>
    <contour>
      <point x="27" y="599" type="line" name="hr00"/>
      <point x="114" y="599" type="line" name="dh01"/>
      <point x="114" y="974" type="line"/>
      <point x="281" y="1004" type="line" name="at01"/>
      <point x="326" y="1004" type="line"/>
      <point x="326" y="599" type="line" name="dh02"/>
      <point x="428" y="599" type="line"/>
      <point x="409" y="460" type="line"/>
      <point x="326" y="466" type="line" name="sh01"/>
      <point x="326" y="-76" type="line"/>
      <point x="326" y="-202"/>
      <point x="290" y="-362"/>
      <point x="215" y="-455"/>
      <point x="96" y="-490"/>
      <point x="13" y="-490" type="qcurve" name="ab01"/>
      <point x="28" y="-378" type="line"/>
      <point x="53" y="-378"/>
      <point x="86" y="-363"/>
      <point x="106" y="-323"/>
      <point x="114" y="-250"/>
      <point x="114" y="-191" type="qcurve" name="sh02"/>
      <point x="114" y="479" type="line"/>
      <point x="12" y="487" type="line"/>
    </contour>
  </outline>
</glyph>
<glyph name="latn:hturned" format="2">
  <advance width="840"/>
  <unicode hex="0265"/>
  <outline>
    <contour>
      <point x="548" y="974" type="line" name="ah01"/>
      <point x="714" y="1004" type="line" name="at01"/>
      <point x="759" y="1004" type="line" name="sh01"/>
      <point x="759" y="-460" type="line"/>
      <point x="593" y="-490" type="line" name="ab01"/>
      <point x="548" y="-490" type="line" name="sh02"/>
      <point x="548" y="49" type="line" name="ih01"/>
      <point x="508" y="11"/>
      <point x="406" y="-30"/>
      <point x="347" y="-30" type="qcurve" name="ab02"/>
      <point x="287" y="-30"/>
      <point x="186" y="14"/>
      <point x="114" y="97"/>
      <point x="75" y="217"/>
      <point x="75" y="294" type="qcurve" name="sh03"/>
      <point x="75" y="802" type="line"/>
      <point x="75" y="850"/>
      <point x="54" y="892"/>
      <point x="21" y="892" type="qcurve"/>
      <point x="36" y="1004" type="line" name="at02"/>
      <point x="107" y="1004"/>
      <point x="203" y="962"/>
      <point x="262" y="888"/>
      <point x="287" y="787"/>
      <point x="287" y="727" type="qcurve"/>
      <point x="287" y="250" type="line" name="sh04"/>
      <point x="287" y="211"/>
      <point x="308" y="149"/>
      <point x="341" y="106"/>
      <point x="382" y="82"/>
      <point x="401" y="82" type="qcurve" name="sv01"/>
      <point x="426" y="82"/>
      <point x="470" y="99"/>
      <point x="507" y="128"/>
      <point x="537" y="163"/>
      <point x="548" y="181" type="qcurve"/>
    </contour>
  </outline>
</glyph>
<glyph name="latn:hhook" format="2">
  <advance width="840"/>
  <unicode hex="0266"/>
  <outline>
    <contour>
      <point x="388" y="1464" type="qcurve" name="at01"/>
      <point x="373" y="1352" type="line"/>
      <point x="348" y="1352"/>
      <point x="314" y="1337"/>
      <point x="295" y="1297"/>
      <point x="287" y="1223"/>
      <point x="287" y="1165" type="qcurve" name="sh03"/>
      <point x="287" y="925" type="line" name="ih01"/>
      <point x="327" y="963"/>
      <point x="428" y="1004"/>
      <point x="487" y="1004" type="qcurve" name="at02"/>
      <point x="548" y="1004"/>
      <point x="648" y="960"/>
      <point x="720" y="877"/>
      <point x="759" y="756"/>
      <point x="759" y="680" type="qcurve"/>
      <point x="759" y="172" type="line" name="sh04"/>
      <point x="759" y="124"/>
      <point x="780" y="82"/>
      <point x="813" y="82" type="qcurve"/>
      <point x="798" y="-30" type="line" name="ab01"/>
      <point x="727" y="-30"/>
      <point x="631" y="12"/>
      <point x="572" y="86"/>
      <point x="548" y="187"/>
      <point x="548" y="247" type="qcurve" name="ah01"/>
      <point x="548" y="724" type="line"/>
      <point x="548" y="763"/>
      <point x="527" y="825"/>
      <point x="493" y="868"/>
      <point x="452" y="892"/>
      <point x="433" y="892" type="qcurve" name="sv01"/>
      <point x="408" y="892"/>
      <point x="365" y="875"/>
      <point x="327" y="846"/>
      <point x="297" y="811"/>
      <point x="287" y="793" type="qcurve"/>
      <point x="287" y="0" type="line" name="sh02"/>
      <point x="75" y="0" type="line" name="sh01"/>
      <point x="75" y="1050" type="line"/>
      <point x="75" y="1176"/>
      <point x="110" y="1336"/>
      <point x="185" y="1429"/>
      <point x="305" y="1464"/>
    </contour>
  </outline>
</glyph>
